<svg width="142" height="767" viewBox="0 0 142 767" fill="none" xmlns="http://www.w3.org/2000/svg">
<path d="M118.144 40.22H93.578V110.084H118.144V40.22ZM93.578 134.65H80.798C81.082 132.378 81.2713 130.437 81.366 128.828C81.5553 127.219 81.65 125.704 81.65 124.284C81.7447 122.959 81.792 121.633 81.792 120.308C81.8867 118.983 81.934 117.515 81.934 115.906V39.794C81.934 37.3327 81.8867 35.2973 81.792 33.688C81.792 32.0787 81.6973 30.5167 81.508 29.002C85.768 29.3807 90.2173 29.6173 94.856 29.712C99.4947 29.8067 103.613 29.854 107.21 29.854C110.807 29.854 114.499 29.8067 118.286 29.712C122.167 29.6173 126.238 29.3807 130.498 29.002C130.309 30.5167 130.167 32.0313 130.072 33.546C129.977 34.966 129.93 37.0487 129.93 39.794V113.776C129.93 116.995 129.977 119.977 130.072 122.722C130.261 125.373 130.545 128.639 130.924 132.52H118.144V120.308H93.578V134.65ZM33.512 40.504C34.08 36.7173 34.506 33.4513 34.79 30.706C35.1687 27.866 35.4527 25.3573 35.642 23.18C35.8313 20.908 35.926 18.8253 35.926 16.932C36.0207 15.0387 36.068 13.0033 36.068 10.826C38.5293 11.4887 41.1327 12.0093 43.878 12.388C46.718 12.672 49.416 12.9087 51.972 13.098C53.676 13.1927 54.5753 13.524 54.67 14.092C54.8593 14.66 53.9127 15.7487 51.83 17.358C51.6407 17.5473 51.404 17.8787 51.12 18.352C50.9307 18.7307 50.5993 19.6773 50.126 21.192C49.7473 22.612 49.1793 24.8367 48.422 27.866C47.7593 30.8953 46.86 35.108 45.724 40.504C53.0133 40.504 58.8353 40.4093 63.19 40.22C67.6393 40.0307 70.8107 39.794 72.704 39.51C71.852 47.746 71 54.7987 70.148 60.668C69.3907 66.5373 68.4913 71.6967 67.45 76.146C66.5033 80.5953 65.3673 84.5713 64.042 88.074C62.8113 91.482 61.344 94.7953 59.64 98.014C63.616 100.475 67.2607 102.842 70.574 105.114C73.982 107.291 76.8693 109.185 79.236 110.794C77.3427 112.498 75.7333 114.202 74.408 115.906C73.0827 117.61 71.7573 119.551 70.432 121.728C67.2133 119.077 64.184 116.663 61.344 114.486C58.5987 112.309 55.9953 110.273 53.534 108.38C51.6407 110.936 49.416 113.587 46.86 116.332C44.304 119.077 41.606 121.728 38.766 124.284C35.926 126.935 32.9913 129.443 29.962 131.81C26.9327 134.177 23.9507 136.307 21.016 138.2C19.7853 136.401 18.318 134.697 16.614 133.088C14.91 131.479 13.0167 130.106 10.934 128.97C18.318 125.183 24.7553 121.16 30.246 116.9C35.7367 112.64 40.47 107.67 44.446 101.99C40.47 99.2447 36.778 96.9727 33.37 95.174C29.962 93.2807 26.5067 91.6713 23.004 90.346C24.0453 87.0327 24.992 83.956 25.844 81.116C26.696 78.276 27.4533 75.3887 28.116 72.454C28.8733 69.4247 29.536 66.206 30.104 62.798C30.7667 59.2953 31.4293 55.272 32.092 50.728C28.116 50.728 24.4713 50.8227 21.158 51.012C17.8447 51.2013 15.052 51.4853 12.78 51.864V39.51C14.6733 39.794 17.324 40.0307 20.732 40.22C24.14 40.3147 28.4 40.4093 33.512 40.504ZM43.452 50.728C42.5053 55.1773 41.4167 60.242 40.186 65.922C39.05 71.5073 37.7247 77.85 36.21 84.95C38.482 85.9913 40.754 87.1273 43.026 88.358C45.3927 89.5887 47.712 90.8667 49.984 92.192C52.6347 86.7013 54.7173 80.5953 56.232 73.874C57.8413 67.058 58.93 59.3427 59.498 50.728H43.452Z" fill="#57472B"/>
<path d="M109.198 239.552C101.246 239.552 94.3353 239.552 88.466 239.552C82.5967 239.552 77.39 239.599 72.846 239.694C68.302 239.694 64.184 239.789 60.492 239.978C56.8 240.167 53.0607 240.404 49.274 240.688V228.192C52.2087 228.476 55.096 228.713 57.936 228.902C60.776 228.997 63.8527 229.091 67.166 229.186C70.574 229.186 74.3133 229.233 78.384 229.328C82.4547 229.328 87.2353 229.328 92.726 229.328C98.2167 229.328 102.997 229.328 107.068 229.328C111.233 229.233 114.973 229.186 118.286 229.186C121.599 229.091 124.676 228.997 127.516 228.902C130.356 228.713 133.243 228.476 136.178 228.192V240.688C133.622 240.499 131.113 240.357 128.652 240.262C126.191 240.073 123.587 239.931 120.842 239.836V328.302C120.842 331.899 120.653 334.739 120.274 336.822C119.99 338.905 119.091 340.514 117.576 341.65C116.156 342.881 113.931 343.733 110.902 344.206C107.873 344.774 103.66 345.2 98.264 345.484C97.8853 343.117 97.3173 340.845 96.56 338.668C95.8973 336.585 94.8087 334.124 93.294 331.284C96.5127 331.947 99.116 332.278 101.104 332.278C103.187 332.373 104.796 332.136 105.932 331.568C107.163 331 108.015 330.148 108.488 329.012C108.961 327.781 109.198 326.267 109.198 324.468V239.552ZM82.502 298.766V266.816H63.332V298.766H82.502ZM63.332 307.854V323.474H52.256C52.4453 320.066 52.5873 316.989 52.682 314.244C52.7767 311.499 52.824 308.469 52.824 305.156V268.52C52.824 265.869 52.7767 263.692 52.682 261.988C52.5873 260.189 52.4453 258.485 52.256 256.876C53.2973 256.971 54.3387 257.065 55.38 257.16C56.4213 257.255 57.652 257.349 59.072 257.444C60.5867 257.444 62.4327 257.444 64.61 257.444C66.882 257.444 69.722 257.444 73.13 257.444C76.538 257.444 79.3307 257.444 81.508 257.444C83.78 257.444 85.6733 257.444 87.188 257.444C88.7027 257.349 89.9333 257.302 90.88 257.302C91.9213 257.207 92.9627 257.065 94.004 256.876C93.6253 259.053 93.436 262.935 93.436 268.52V299.618C93.436 302.931 93.4833 306.008 93.578 308.848C93.6727 311.593 93.9093 314.528 94.288 317.652H82.502V307.854H63.332ZM24.14 268.236C22.5307 271.265 20.9213 274.105 19.312 276.756C17.7027 279.312 16.2353 281.537 14.91 283.43C13.8687 281.631 12.5907 279.975 11.076 278.46C9.56133 276.851 7.76267 275.383 5.68 274.058C7.668 271.881 9.46667 269.751 11.076 267.668C12.6853 265.585 14.2 263.361 15.62 260.994C17.1347 258.533 18.5547 255.882 19.88 253.042C21.3 250.107 22.7673 246.699 24.282 242.818C25.986 238.463 27.406 234.061 28.542 229.612C29.7727 225.163 30.7667 220.95 31.524 216.974C33.8907 218.015 36.068 218.867 38.056 219.53C40.044 220.098 42.2213 220.524 44.588 220.808C46.1027 220.997 46.9547 221.423 47.144 222.086C47.3333 222.654 46.6233 223.648 45.014 225.068C44.73 225.352 44.3513 225.825 43.878 226.488C43.4993 227.056 42.9313 228.097 42.174 229.612C41.5113 231.032 40.612 233.02 39.476 235.576C38.4347 238.037 37.062 241.303 35.358 245.374V346.478H22.578C22.9567 342.407 23.288 337.579 23.572 331.994C23.9507 326.409 24.14 321.06 24.14 315.948V268.236Z" fill="#57472B"/>
<path d="M60.066 544.816C57.3207 540.651 54.4807 536.817 51.546 533.314C48.706 529.717 45.724 526.545 42.6 523.8L50.41 517.552C53.9127 520.676 57.1787 523.895 60.208 527.208C63.332 530.521 66.456 534.213 69.58 538.284L60.066 544.816ZM46.292 456.776C46.008 457.249 45.724 458.243 45.44 459.758C45.156 461.178 45.014 462.977 45.014 465.154C45.014 471.781 44.872 478.597 44.588 485.602C44.3987 492.607 44.02 499.66 43.452 506.76C43.168 510.357 42.3633 514.097 41.038 517.978C39.8073 521.765 38.1033 525.551 35.926 529.338C33.8433 533.03 31.3347 536.675 28.4 540.272C25.4653 543.869 22.2467 547.183 18.744 550.212C17.1347 548.413 15.5727 546.946 14.058 545.81C12.5433 544.674 10.508 543.443 7.952 542.118C12.8747 539.467 16.898 536.58 20.022 533.456C23.2407 530.332 25.7967 527.113 27.69 523.8C29.678 520.487 31.098 517.126 31.95 513.718C32.8967 510.31 33.512 506.949 33.796 503.636C34.5533 495.021 34.9793 486.643 35.074 478.502C35.1687 470.361 34.8373 461.888 34.08 453.084C36.5413 453.557 38.7187 453.889 40.612 454.078C42.5053 454.267 43.9727 454.362 45.014 454.362C46.3393 454.362 47.0493 454.504 47.144 454.788C47.3333 455.072 47.0493 455.735 46.292 456.776ZM53.676 511.872V443.57H26.27V515.706H15.194C15.3833 513.529 15.5727 511.304 15.762 509.032C15.9513 506.665 16.046 504.251 16.046 501.79V443.854C16.046 441.677 15.9513 439.641 15.762 437.748C15.6673 435.76 15.5253 434.103 15.336 432.778C17.608 432.967 20.6847 433.109 24.566 433.204C28.4473 433.204 33.3227 433.204 39.192 433.204C44.7773 433.204 49.7947 433.204 54.244 433.204C58.788 433.109 62.1487 432.967 64.326 432.778C64.042 435.523 63.9 439.215 63.9 443.854V497.956C63.9 500.417 63.9473 502.831 64.042 505.198C64.1367 507.565 64.2787 509.789 64.468 511.872H53.676ZM102.382 509.742C101.719 506.429 101.057 503.257 100.394 500.228C99.7313 497.104 99.0213 494.406 98.264 492.134L107.21 490.146C108.819 495.921 110.239 501.459 111.47 506.76C112.795 511.967 114.073 517.41 115.304 523.09L104.938 526.072C104.749 524.747 104.559 523.469 104.37 522.238C104.275 520.913 104.133 519.587 103.944 518.262L83.78 521.67C82.2653 521.954 80.5613 522.38 78.668 522.948C76.8693 523.421 75.1653 524.037 73.556 524.794C73.3667 522.522 73.0353 520.629 72.562 519.114C72.0887 517.505 71.3787 515.753 70.432 513.86C71.7573 513.387 72.7513 512.677 73.414 511.73C74.1713 510.689 74.9287 509.316 75.686 507.612C77.2007 503.825 78.5733 500.323 79.804 497.104C81.0347 493.885 82.076 490.761 82.928 487.732C83.8747 484.608 84.632 481.531 85.2 478.502C85.8627 475.473 86.4307 472.254 86.904 468.846C89.3653 469.603 91.732 470.219 94.004 470.692C96.3707 471.165 98.122 471.497 99.258 471.686C101.719 471.97 101.956 473.059 99.968 474.952C99.3053 475.52 98.4533 476.751 97.412 478.644C96.4653 480.443 95.708 482.147 95.14 483.756C92.868 490.004 90.738 495.353 88.75 499.802C86.762 504.157 84.6793 508.369 82.502 512.44L102.382 509.742ZM110.902 446.836C114.499 446.836 118.475 446.741 122.83 446.552C127.185 446.363 130.877 446.126 133.906 445.842L130.924 531.752C130.829 535.16 130.451 538.142 129.788 540.698C129.125 543.349 127.8 545.526 125.812 547.23C123.824 549.029 120.984 550.401 117.292 551.348C113.695 552.295 108.867 552.815 102.808 552.91C102.051 550.259 101.246 547.94 100.394 545.952C99.6367 543.964 98.5953 541.834 97.27 539.562C101.341 540.13 104.796 540.367 107.636 540.272C110.571 540.272 112.937 539.799 114.736 538.852C116.535 538 117.813 536.722 118.57 535.018C119.422 533.314 119.895 531.089 119.99 528.344L122.12 456.492H85.91C83.8273 460.941 81.8393 464.775 79.946 467.994C78.0527 471.118 75.8753 474.384 73.414 477.792C72.4673 476.845 71.1893 475.946 69.58 475.094C68.0653 474.147 66.456 473.437 64.752 472.964C70.432 465.675 75.4493 456.397 79.804 445.132C80.8453 442.481 81.7447 439.31 82.502 435.618C83.354 431.831 83.9693 427.95 84.348 423.974C86.904 425.11 89.3653 425.962 91.732 426.53C94.0987 427.098 96.3707 427.477 98.548 427.666C100.157 427.855 100.11 428.849 98.406 430.648C97.6487 431.405 96.56 433.109 95.14 435.76C93.72 438.316 91.9687 442.008 89.886 446.836H110.902Z" fill="#57472B"/>
<path d="M120.132 668.888L106.642 666.474L112.038 651.99H73.84C66.5507 651.99 60.208 652.037 54.812 652.132C49.416 652.227 44.588 652.369 40.328 652.558C36.068 652.653 32.234 652.795 28.826 652.984C25.5127 653.173 22.294 653.41 19.17 653.694V640.488C22.294 640.677 25.4653 640.867 28.684 641.056C31.9027 641.151 35.5947 641.245 39.76 641.34C43.9253 641.435 48.7533 641.529 54.244 641.624C59.7347 641.624 66.3613 641.624 74.124 641.624C81.8867 641.624 88.466 641.624 93.862 641.624C99.3527 641.529 104.133 641.435 108.204 641.34C112.275 641.245 115.872 641.151 118.996 641.056C122.215 640.867 125.386 640.677 128.51 640.488L120.132 668.888ZM34.506 680.248C38.766 682.804 42.6947 685.313 46.292 687.774C49.984 690.235 53.3447 692.555 56.374 694.732L47.854 704.53C45.1087 701.501 41.89 698.708 38.198 696.152C34.6007 693.596 30.672 691.229 26.412 689.052L34.506 680.248ZM44.588 660.226C48.848 662.877 52.8713 665.433 56.658 667.894C60.4447 670.355 63.9947 672.675 67.308 674.852L59.214 685.36C55.9953 681.952 52.6347 678.875 49.132 676.13C45.6293 673.29 41.606 670.781 37.062 668.604L44.588 660.226ZM91.448 726.54C94.572 728.149 97.6013 729.711 100.536 731.226C103.471 732.741 106.405 734.303 109.34 735.912C112.369 737.427 115.446 739.083 118.57 740.882C121.694 742.586 124.96 744.432 128.368 746.42L118.996 757.496C115.777 755.224 112.748 753.141 109.908 751.248C107.068 749.355 104.228 747.509 101.388 745.71C98.548 744.006 95.6607 742.349 92.726 740.74C89.886 739.131 86.762 737.521 83.354 735.912L91.448 726.54ZM83.78 717.878C82.2653 723.274 79.7567 728.149 76.254 732.504C72.846 736.764 68.586 740.645 63.474 744.148C58.362 747.556 52.5873 750.538 46.15 753.094C39.7127 755.745 32.7547 758.017 25.276 759.91C24.2347 757.354 23.004 755.224 21.584 753.52C20.2587 751.816 18.5073 750.065 16.33 748.266C24.4713 746.751 31.5713 745.142 37.63 743.438C43.7833 741.639 49.0373 739.557 53.392 737.19C57.7467 734.729 61.344 731.936 64.184 728.812C67.024 725.688 69.296 722.043 71 717.878C57.8413 717.878 46.5287 718.02 37.062 718.304C27.5953 718.493 19.3593 718.825 12.354 719.298V705.524C15.9513 705.808 19.6907 706.045 23.572 706.234C27.548 706.329 31.95 706.471 36.778 706.66C41.606 706.755 47.002 706.849 52.966 706.944C59.0247 706.944 65.9353 706.944 73.698 706.944C73.8873 704.009 74.0293 700.317 74.124 695.868C74.3133 691.419 74.408 686.922 74.408 682.378C74.5027 677.739 74.5027 673.432 74.408 669.456C74.408 665.385 74.3607 662.309 74.266 660.226C79.5673 661.173 84.632 661.504 89.46 661.22C90.312 661.125 90.7853 661.267 90.88 661.646C91.0693 661.93 90.7853 662.309 90.028 662.782C88.4187 663.918 87.5193 666.947 87.33 671.87C87.2353 674.521 87.0933 677.455 86.904 680.674C86.8093 683.798 86.6673 686.969 86.478 690.188C86.2887 693.407 86.0993 696.483 85.91 699.418C85.7207 702.353 85.5787 704.861 85.484 706.944C94.856 706.849 103.045 706.707 110.05 706.518C117.055 706.234 123.54 705.903 129.504 705.524V719.298C123.54 718.825 116.913 718.493 109.624 718.304C102.429 718.115 93.8147 717.973 83.78 717.878Z" fill="#57472B"/>
</svg>
