<svg width="16" height="19" viewBox="0 0 16 19" fill="none" xmlns="http://www.w3.org/2000/svg">
<path d="M12.0007 0.992188C10.595 4.01671 9.2165 6.88955 7.54827 9.787C7.15881 10.4634 6.74249 11.1131 6.27389 11.7379C5.96902 12.1444 5.50099 12.5541 5.33777 13.0438C5.19727 13.4653 4.68652 13.887 4.63764 14.3024C4.52069 15.2965 2.95794 15.9626 2.51367 16.8512" stroke="black" stroke-linecap="round"/>
<path d="M1.33138 2.45041C1.19123 2.22783 1.03814 1.70153 0.832761 1.49185C0.953058 1.37044 1.09242 1.29459 1.26797 1.28083C2.04417 1.21995 2.67178 0.927516 3.29008 1.28083C3.50983 1.4064 3.63599 2.06357 3.86782 2.2954C4.06555 2.49313 4.09163 2.71649 4.27647 2.90133C4.47118 3.09604 4.60764 3.39456 4.76262 3.62704C5.06257 4.07695 5.63719 4.33747 5.91107 4.78253C6.63311 5.95584 7.72053 6.79718 8.29956 8.05173C8.53462 8.56104 9.0134 9.14585 9.32118 9.62291C9.49675 9.89504 9.74409 10.104 9.95529 10.3416C10.4566 10.9055 10.8196 11.6573 11.3222 12.2157C12.0242 12.9958 12.5429 14.2503 12.8722 15.2383C13.0403 15.7427 13.6174 16.2226 13.7529 16.6968C13.8332 16.9777 14.021 17.2484 14.1686 17.5141C14.2239 17.6136 14.7182 18.1233 14.7182 18.1482C14.7182 18.2993 12.9885 18.0232 12.8722 17.965C12.0453 17.5515 11.5105 16.1536 11.0685 15.3581C10.7656 14.8128 10.5169 14.1975 10.1455 13.7024C9.12567 12.3426 7.90596 11.1388 6.86224 9.79201C5.49392 8.02644 4.39575 5.94052 2.85324 4.32456C2.29791 3.74279 1.75934 3.13011 1.33138 2.45041Z" fill="black"/>
<path d="M0.697266 1.40765C0.973797 1.4691 1.16204 2.18146 1.33138 2.45041C1.75934 3.13011 2.29791 3.74279 2.85324 4.32456C4.39575 5.94052 5.49392 8.02644 6.86224 9.79201C7.90596 11.1388 9.12567 12.3426 10.1455 13.7024C10.5169 14.1975 10.7656 14.8128 11.0685 15.3581C11.5105 16.1536 12.0453 17.5515 12.8722 17.965C12.9885 18.0232 14.7182 18.2993 14.7182 18.1482C14.7182 18.1233 14.2239 17.6136 14.1686 17.5141C14.021 17.2484 13.8332 16.9777 13.7529 16.6968C13.6174 16.2226 13.0403 15.7427 12.8722 15.2383C12.5429 14.2503 12.0242 12.9958 11.3222 12.2157C10.8196 11.6573 10.4566 10.9055 9.95529 10.3416C9.7441 10.104 9.49675 9.89504 9.32118 9.62291C9.0134 9.14585 8.53462 8.56104 8.29956 8.05173C7.72053 6.79718 6.63311 5.95584 5.91107 4.78253C5.63719 4.33747 5.06257 4.07695 4.76262 3.62704C4.60764 3.39456 4.47118 3.09604 4.27647 2.90133C4.09163 2.71649 4.06555 2.49313 3.86782 2.2954C3.63599 2.06357 3.50983 1.4064 3.29008 1.28083C2.67178 0.927516 2.04417 1.21995 1.26797 1.28083C0.90984 1.30891 0.702333 1.59533 0.5 2" stroke="black" stroke-linecap="round"/>
</svg>
