<svg width="507" height="344" viewBox="0 0 507 344" fill="none" xmlns="http://www.w3.org/2000/svg">
<rect x="0.5" y="0.5" width="506" height="343" fill="#7E3B19" stroke="#FFCB13"/>
<path d="M69.664 111C68.032 111 66.664 110.592 65.56 109.776C64.504 108.912 63.76 107.76 63.328 106.32C62.944 104.976 62.704 103.512 62.608 101.928C62.56 100.344 62.536 98.112 62.536 95.232C62.536 92.544 62.416 90.552 62.176 89.256C61.984 87.96 61.48 87.312 60.664 87.312C59.704 87.312 59.032 87.744 58.648 88.608C58.264 89.424 58.072 90.6 58.072 92.136C58.072 93.528 58.264 95.712 58.648 98.688C58.696 99.264 58.792 100.176 58.936 101.424C59.08 102.672 59.152 103.704 59.152 104.52C59.152 106.824 58.624 108.456 57.568 109.416C56.56 110.376 55.072 110.856 53.104 110.856C50.752 110.856 48.712 109.584 46.984 107.04C45.256 104.496 43.96 101.328 43.096 97.536C42.232 93.696 41.8 89.928 41.8 86.232C41.8 81.816 42.424 77.712 43.672 73.92C44.968 70.128 46.888 67.08 49.432 64.776C52.024 62.472 55.144 61.32 58.792 61.32C61.864 61.32 64.312 62.28 66.136 64.2C67.96 66.072 69.184 68.352 69.808 71.04C70.336 68.4 71.512 66.12 73.336 64.2C75.208 62.28 77.656 61.32 80.68 61.32C84.28 61.32 87.352 62.448 89.896 64.704C92.488 66.912 94.456 70.008 95.8 73.992C97.192 77.976 97.888 82.584 97.888 87.816C97.888 91.224 97.408 94.752 96.448 98.4C95.488 102 94.144 105 92.416 107.4C90.688 109.8 88.72 111 86.512 111C84.496 111 82.96 110.496 81.904 109.488C80.848 108.48 80.32 106.824 80.32 104.52C80.32 103.464 80.512 101.496 80.896 98.616C81.28 95.544 81.472 93.336 81.472 91.992C81.472 88.872 80.632 87.312 78.952 87.312C78.088 87.312 77.536 88.008 77.296 89.4C77.104 90.792 76.984 93.048 76.936 96.168C76.936 98.52 76.888 100.488 76.792 102.072C76.696 103.608 76.48 105.024 76.144 106.32C75.76 107.712 74.992 108.84 73.84 109.704C72.736 110.568 71.344 111 69.664 111ZM111.321 111.144C108.105 111.144 105.513 109.584 103.545 106.464C101.625 103.296 100.497 99.024 100.161 93.648C100.113 92.88 100.089 91.752 100.089 90.264C100.089 84.456 101.049 79.32 102.969 74.856C104.889 70.344 107.601 66.864 111.105 64.416C114.657 61.92 118.785 60.672 123.489 60.672C128.193 60.672 132.297 61.92 135.801 64.416C139.353 66.864 142.065 70.32 143.937 74.784C145.857 79.248 146.817 84.408 146.817 90.264C146.817 91.752 146.793 92.88 146.745 93.648C146.409 99.12 145.281 103.392 143.361 106.464C141.441 109.536 138.849 111.072 135.585 111.072C132.945 111.072 131.097 110.352 130.041 108.912C129.033 107.472 128.529 105.72 128.529 103.656C128.529 102.696 128.601 101.856 128.745 101.136C126.249 101.232 124.041 101.28 122.121 101.28C120.921 101.28 119.601 101.232 118.161 101.136C118.305 101.856 118.377 102.696 118.377 103.656C118.377 105.768 117.849 107.544 116.793 108.984C115.785 110.424 113.961 111.144 111.321 111.144ZM117.657 88.32C120.249 88.224 122.145 88.176 123.345 88.176C124.641 88.176 126.537 88.224 129.033 88.32C129.129 87.792 129.177 87 129.177 85.944C129.177 83.688 128.697 81.864 127.737 80.472C126.777 79.032 125.289 78.312 123.273 78.312C121.305 78.312 119.841 79.008 118.881 80.4C117.921 81.792 117.441 83.592 117.441 85.8C117.441 86.616 117.513 87.456 117.657 88.32ZM193.506 80.976C193.506 84.48 192.978 87.576 191.922 90.264C190.914 92.952 189.474 95.208 187.602 97.032C189.186 99.48 189.978 101.856 189.978 104.16C189.978 106.128 189.21 107.76 187.674 109.056C186.186 110.352 184.482 111 182.562 111C181.458 111 180.45 110.832 179.538 110.496C178.626 110.16 177.642 109.584 176.586 108.768C175.674 108.048 174.81 107.064 173.994 105.816C173.178 104.568 172.53 103.272 172.05 101.928C170.466 101.736 168.882 101.328 167.298 100.704C167.586 102.24 167.73 103.416 167.73 104.232C167.73 108.792 165.354 111.072 160.602 111.072C156.618 111.072 153.81 108.744 152.178 104.088C150.546 99.432 149.73 93.744 149.73 87.024C149.73 82.464 150.546 78.192 152.178 74.208C153.858 70.176 156.402 66.936 159.81 64.488C163.218 61.992 167.37 60.744 172.266 60.744C176.202 60.744 179.778 61.584 182.994 63.264C186.21 64.896 188.754 67.248 190.626 70.32C192.546 73.392 193.506 76.944 193.506 80.976ZM166.578 84.36C166.578 85.992 167.226 87.432 168.522 88.68C169.818 89.88 171.306 90.48 172.986 90.48C174.714 90.48 176.202 89.88 177.45 88.68C178.746 87.432 179.394 85.992 179.394 84.36C179.394 82.68 178.746 81.24 177.45 80.04C176.202 78.792 174.714 78.168 172.986 78.168C171.306 78.168 169.818 78.792 168.522 80.04C167.226 81.288 166.578 82.728 166.578 84.36ZM223.273 86.304C227.545 88.272 231.169 90.648 234.145 93.432C237.169 96.216 238.681 99.24 238.681 102.504C238.681 105.384 237.889 107.52 236.305 108.912C234.721 110.304 232.777 111 230.473 111C227.161 111 224.041 109.488 221.113 106.464C218.233 103.392 215.449 99.384 212.761 94.44C212.761 97.848 212.569 100.704 212.185 103.008C211.849 105.312 211.081 107.232 209.881 108.768C208.681 110.256 206.881 111 204.481 111C201.985 111 200.137 110.064 198.937 108.192C197.785 106.32 197.065 104.064 196.777 101.424C196.537 98.784 196.417 95.328 196.417 91.056C196.417 88.032 196.441 84.456 196.489 80.328C196.585 76.152 196.681 73.56 196.777 72.552C196.873 68.952 197.617 66.072 199.009 63.912C200.401 61.704 202.369 60.6 204.913 60.6C207.841 60.6 209.881 61.848 211.033 64.344C212.233 66.84 212.833 70.656 212.833 75.792V77.952C215.281 73.536 218.113 69.576 221.329 66.072C224.545 62.568 227.761 60.816 230.977 60.816C233.233 60.816 235.081 61.68 236.521 63.408C238.009 65.088 238.753 67.176 238.753 69.672C238.753 73.032 237.313 76.248 234.433 79.32C231.601 82.344 227.881 84.672 223.273 86.304ZM276.08 99.48C278.384 100.2 279.536 101.712 279.536 104.016C279.536 106.176 278.432 107.88 276.224 109.128C274.016 110.376 270.2 111 264.776 111C258.008 111 252.2 109.368 247.352 106.104C242.552 102.84 240.152 96.36 240.152 86.664C240.152 81.768 240.992 77.352 242.672 73.416C244.352 69.48 246.848 66.36 250.16 64.056C253.52 61.752 257.624 60.6 262.472 60.6C268.952 60.6 273.512 61.608 276.152 63.624C278.792 65.592 280.112 68.016 280.112 70.896C280.112 72.24 279.776 73.488 279.104 74.64C278.432 75.744 277.424 76.608 276.08 77.232C274.928 77.808 273.44 78.096 271.616 78.096L269.672 78.024C269.288 77.976 268.736 77.952 268.016 77.952C265.52 77.952 263.552 78.408 262.112 79.32C260.672 80.184 259.688 81.528 259.16 83.352C261.176 83.256 263 83.208 264.632 83.208C269.48 83.208 272.624 83.352 274.064 83.64C275.696 83.976 276.944 84.624 277.808 85.584C278.72 86.544 279.176 87.672 279.176 88.968C279.176 90.264 278.744 91.392 277.88 92.352C277.016 93.264 275.72 93.888 273.992 94.224C272.648 94.512 269.384 94.656 264.2 94.656C262.088 94.656 260.6 94.632 259.736 94.584C261.224 97.752 264.008 99.336 268.088 99.336C268.328 99.336 268.88 99.288 269.744 99.192C270.896 99.096 271.88 99.048 272.696 99.048C274.088 99.048 275.216 99.192 276.08 99.48ZM333.946 71.328C333.946 74.496 332.626 76.8 329.986 78.24C327.394 79.632 323.146 80.472 317.242 80.76C317.434 83.064 317.53 86.04 317.53 89.688C317.53 94.776 317.242 98.856 316.666 101.928C316.138 104.952 315.202 107.208 313.858 108.696C312.514 110.136 310.642 110.856 308.242 110.856C305.89 110.856 304.09 110.088 302.842 108.552C301.594 107.016 300.73 104.736 300.25 101.712C299.77 98.688 299.53 94.68 299.53 89.688C299.53 86.328 299.602 83.352 299.746 80.76C295.762 80.568 292.546 80.16 290.098 79.536C287.698 78.864 285.922 77.88 284.77 76.584C283.618 75.288 283.042 73.536 283.042 71.328C283.042 68.64 283.954 66.528 285.778 64.992C287.602 63.456 290.338 62.376 293.986 61.752C297.634 61.128 302.41 60.816 308.314 60.816C314.266 60.816 319.09 61.128 322.786 61.752C326.482 62.376 329.266 63.456 331.138 64.992C333.01 66.528 333.946 68.64 333.946 71.328ZM358.683 97.968C361.131 98.256 363.027 98.88 364.371 99.84C365.763 100.752 366.459 102.216 366.459 104.232C366.459 106.248 365.739 107.736 364.299 108.696C362.907 109.656 361.227 110.256 359.259 110.496C357.291 110.688 354.747 110.784 351.627 110.784C348.555 110.784 346.035 110.688 344.067 110.496C342.099 110.256 340.419 109.656 339.027 108.696C337.635 107.736 336.939 106.248 336.939 104.232C336.939 102.264 337.587 100.824 338.883 99.912C340.227 98.952 342.051 98.304 344.355 97.968C344.115 95.184 343.995 91.2 343.995 86.016C343.995 81.36 344.091 77.616 344.283 74.784C341.499 74.496 339.315 73.824 337.731 72.768C336.147 71.712 335.355 70.056 335.355 67.8C335.355 65.592 336.123 63.96 337.659 62.904C339.195 61.848 341.043 61.2 343.203 60.96C345.363 60.72 348.147 60.6 351.555 60.6C354.963 60.6 357.747 60.72 359.907 60.96C362.067 61.2 363.915 61.848 365.451 62.904C367.035 63.96 367.827 65.592 367.827 67.8C367.827 70.056 367.011 71.712 365.379 72.768C363.795 73.824 361.587 74.496 358.755 74.784C358.995 77.424 359.115 81.168 359.115 86.016C359.115 90.672 358.971 94.656 358.683 97.968ZM378.334 111C375.982 111 374.062 109.56 372.574 106.68C371.134 103.8 370.102 100.32 369.478 96.24C368.854 92.16 368.542 88.224 368.542 84.432C368.542 78.24 369.526 72.744 371.494 67.944C373.51 63.096 376.87 60.672 381.574 60.672C383.638 60.672 385.438 61.464 386.974 63.048C388.558 64.632 389.926 66.696 391.078 69.24C392.23 71.736 393.622 75.216 395.254 79.68L396.478 83.064C396.382 81.24 396.334 79.896 396.334 79.032C396.334 73.416 397.078 68.952 398.566 65.64C400.102 62.328 402.526 60.672 405.838 60.672C409.822 60.672 412.558 63.048 414.046 67.8C415.534 72.504 416.278 78.048 416.278 84.432C416.278 88.224 415.798 92.16 414.838 96.24C413.926 100.32 412.366 103.8 410.158 106.68C407.95 109.56 405.07 111 401.518 111C399.358 111 397.462 110.232 395.83 108.696C394.246 107.112 392.902 105.168 391.798 102.864C390.742 100.56 389.47 97.392 387.982 93.36C387.214 91.248 386.614 89.664 386.182 88.608L386.254 94.44C386.254 98.232 386.062 101.304 385.678 103.656C385.294 105.96 384.526 107.76 383.374 109.056C382.27 110.352 380.59 111 378.334 111ZM445.862 110.928C440.39 110.928 435.71 109.968 431.822 108.048C427.934 106.128 424.958 103.392 422.894 99.84C420.878 96.24 419.87 91.992 419.87 87.096C419.87 81.24 421.094 76.32 423.542 72.336C426.038 68.352 429.254 65.4 433.19 63.48C437.126 61.56 441.254 60.6 445.574 60.6C449.414 60.6 452.798 61.176 455.726 62.328C458.654 63.48 460.91 64.992 462.494 66.864C464.078 68.736 464.87 70.704 464.87 72.768C464.87 75.744 464.102 77.88 462.566 79.176C461.03 80.424 459.134 81.048 456.878 81.048C455.822 81.048 454.886 80.952 454.07 80.76C453.302 80.568 452.486 80.304 451.622 79.968C450.662 79.632 449.798 79.392 449.03 79.248C448.31 79.056 447.398 78.96 446.294 78.96C443.126 78.96 440.63 79.92 438.806 81.84C436.982 83.712 436.07 86.376 436.07 89.832C436.07 92.76 436.958 95.016 438.734 96.6C440.51 98.184 442.718 98.976 445.358 98.976C446.846 98.976 448.142 98.784 449.246 98.4C450.35 98.016 451.19 97.584 451.766 97.104C452.342 96.624 452.63 96.24 452.63 95.952C449.126 95.952 446.462 95.544 444.638 94.728C442.814 93.912 441.902 92.496 441.902 90.48C441.902 88.464 442.598 86.904 443.99 85.8C445.382 84.648 447.734 84.072 451.046 84.072C454.454 84.072 457.118 84.48 459.038 85.296C460.958 86.064 462.326 87.288 463.142 88.968C463.958 90.6 464.366 92.784 464.366 95.52C464.366 98.304 463.526 100.872 461.846 103.224C460.214 105.576 457.958 107.448 455.078 108.84C452.246 110.232 449.174 110.928 445.862 110.928Z" fill="#FFC42C"/>
<path d="M220.076 244C215.32 244 211.111 242.743 207.448 240.228C203.84 237.659 201.025 234.187 199.002 229.814C197.034 225.441 196.05 220.603 196.05 215.3C196.05 210.325 197.034 205.651 199.002 201.278C200.97 196.85 203.785 193.297 207.448 190.618C211.111 187.939 215.32 186.6 220.076 186.6C224.832 186.6 229.041 187.857 232.704 190.372C236.367 192.887 239.182 196.331 241.15 200.704C243.173 205.077 244.184 209.943 244.184 215.3C244.184 220.165 243.173 224.812 241.15 229.24C239.182 233.668 236.367 237.249 232.704 239.982C229.041 242.661 224.832 244 220.076 244ZM220.076 228.666C223.028 228.666 225.242 227.463 226.718 225.058C228.194 222.653 228.932 219.673 228.932 216.12C228.932 212.621 228.194 209.697 226.718 207.346C225.297 204.941 223.083 203.738 220.076 203.738C217.069 203.738 214.828 204.941 213.352 207.346C211.931 209.697 211.22 212.621 211.22 216.12C211.22 218.033 211.521 219.947 212.122 221.86C212.723 223.773 213.68 225.386 214.992 226.698C216.359 228.01 218.053 228.666 220.076 228.666ZM283.931 217.924C279.284 225.468 275.84 230.935 273.599 234.324C271.412 237.659 269.554 240.119 268.023 241.704C266.547 243.289 265.208 244.082 264.005 244.082C263.076 244.082 262.146 243.727 261.217 243.016C260.288 242.305 259.823 241.403 259.823 240.31C259.823 238.561 260.834 235.827 262.857 232.11C264.88 228.393 268.706 221.942 274.337 212.758C278.82 205.487 282.209 200.13 284.505 196.686C286.856 193.187 288.796 190.645 290.327 189.06C291.858 187.475 293.224 186.682 294.427 186.682C295.356 186.682 296.258 187.037 297.133 187.748C298.062 188.404 298.527 189.279 298.527 190.372C298.527 192.121 297.516 194.855 295.493 198.572C293.47 202.235 289.616 208.685 283.931 217.924ZM261.791 213.742C259.167 213.742 256.816 213.141 254.739 211.938C252.662 210.735 251.049 209.068 249.901 206.936C248.808 204.804 248.261 202.453 248.261 199.884C248.261 197.424 248.835 195.21 249.983 193.242C251.186 191.274 252.798 189.716 254.821 188.568C256.898 187.42 259.222 186.846 261.791 186.846C264.36 186.846 266.684 187.447 268.761 188.65C270.838 189.798 272.451 191.438 273.599 193.57C274.802 195.647 275.403 197.971 275.403 200.54C275.403 202.945 274.802 205.159 273.599 207.182C272.451 209.15 270.838 210.735 268.761 211.938C266.738 213.141 264.415 213.742 261.791 213.742ZM261.955 204.148C262.666 204.148 263.294 203.875 263.841 203.328C264.388 202.781 264.661 202.153 264.661 201.442C264.661 200.677 264.388 200.021 263.841 199.474C263.294 198.927 262.666 198.654 261.955 198.654C261.244 198.654 260.616 198.927 260.069 199.474C259.522 200.021 259.249 200.677 259.249 201.442C259.249 202.153 259.522 202.781 260.069 203.328C260.616 203.875 261.244 204.148 261.955 204.148ZM296.477 243.918C293.853 243.918 291.502 243.317 289.425 242.114C287.348 240.911 285.735 239.244 284.587 237.112C283.494 234.98 282.947 232.629 282.947 230.06C282.947 227.6 283.521 225.386 284.669 223.418C285.872 221.45 287.484 219.892 289.507 218.744C291.584 217.596 293.908 217.022 296.477 217.022C299.046 217.022 301.37 217.623 303.447 218.826C305.524 219.974 307.137 221.614 308.285 223.746C309.488 225.823 310.089 228.147 310.089 230.716C310.089 233.121 309.488 235.335 308.285 237.358C307.137 239.326 305.524 240.911 303.447 242.114C301.424 243.317 299.101 243.918 296.477 243.918ZM296.641 234.324C297.352 234.324 297.98 234.051 298.527 233.504C299.074 232.957 299.347 232.329 299.347 231.618C299.347 230.853 299.074 230.197 298.527 229.65C297.98 229.103 297.352 228.83 296.641 228.83C295.93 228.83 295.302 229.103 294.755 229.65C294.208 230.197 293.935 230.853 293.935 231.618C293.935 232.329 294.208 232.957 294.755 233.504C295.302 234.051 295.93 234.324 296.641 234.324Z" fill="#FFF066"/>
</svg>
