<svg width="507" height="344" viewBox="0 0 507 344" fill="none" xmlns="http://www.w3.org/2000/svg">
<rect x="0.5" y="0.5" width="506" height="343" fill="#7E3B19" stroke="#FFCB13"/>
<path d="M230.704 71.328C230.704 74.496 229.384 76.8 226.744 78.24C224.152 79.632 219.904 80.472 214 80.76C214.192 83.064 214.288 86.04 214.288 89.688C214.288 94.776 214 98.856 213.424 101.928C212.896 104.952 211.96 107.208 210.616 108.696C209.272 110.136 207.4 110.856 205 110.856C202.648 110.856 200.848 110.088 199.6 108.552C198.352 107.016 197.488 104.736 197.008 101.712C196.528 98.688 196.288 94.68 196.288 89.688C196.288 86.328 196.36 83.352 196.504 80.76C192.52 80.568 189.304 80.16 186.856 79.536C184.456 78.864 182.68 77.88 181.528 76.584C180.376 75.288 179.8 73.536 179.8 71.328C179.8 68.64 180.712 66.528 182.536 64.992C184.36 63.456 187.096 62.376 190.744 61.752C194.392 61.128 199.168 60.816 205.072 60.816C211.024 60.816 215.848 61.128 219.544 61.752C223.24 62.376 226.024 63.456 227.896 64.992C229.768 66.528 230.704 68.64 230.704 71.328ZM240.462 111.144C237.246 111.144 234.654 109.584 232.686 106.464C230.766 103.296 229.638 99.024 229.302 93.648C229.254 92.88 229.23 91.752 229.23 90.264C229.23 84.456 230.19 79.32 232.11 74.856C234.03 70.344 236.742 66.864 240.246 64.416C243.798 61.92 247.926 60.672 252.63 60.672C257.334 60.672 261.438 61.92 264.942 64.416C268.494 66.864 271.206 70.32 273.078 74.784C274.998 79.248 275.958 84.408 275.958 90.264C275.958 91.752 275.934 92.88 275.886 93.648C275.55 99.12 274.422 103.392 272.502 106.464C270.582 109.536 267.99 111.072 264.726 111.072C262.086 111.072 260.238 110.352 259.182 108.912C258.174 107.472 257.67 105.72 257.67 103.656C257.67 102.696 257.742 101.856 257.886 101.136C255.39 101.232 253.182 101.28 251.262 101.28C250.062 101.28 248.742 101.232 247.302 101.136C247.446 101.856 247.518 102.696 247.518 103.656C247.518 105.768 246.99 107.544 245.934 108.984C244.926 110.424 243.102 111.144 240.462 111.144ZM246.798 88.32C249.39 88.224 251.286 88.176 252.486 88.176C253.782 88.176 255.678 88.224 258.174 88.32C258.27 87.792 258.318 87 258.318 85.944C258.318 83.688 257.838 81.864 256.878 80.472C255.918 79.032 254.43 78.312 252.414 78.312C250.446 78.312 248.982 79.008 248.022 80.4C247.062 81.792 246.582 83.592 246.582 85.8C246.582 86.616 246.654 87.456 246.798 88.32ZM327.487 69.744C327.487 71.856 326.719 74.112 325.183 76.512C323.695 78.864 321.055 82.104 317.263 86.232C323.215 93.336 326.191 98.712 326.191 102.36C326.191 104.712 325.543 106.728 324.247 108.408C322.999 110.04 321.031 110.856 318.343 110.856C316.471 110.856 314.119 109.992 311.287 108.264C308.455 106.536 305.407 104.28 302.143 101.496C294.943 107.832 289.567 111 286.015 111C283.471 111 281.527 110.208 280.183 108.624C278.839 106.992 278.167 104.952 278.167 102.504C278.167 98.808 281.167 93.384 287.167 86.232C283.567 82.152 281.071 78.936 279.679 76.584C278.287 74.184 277.591 71.904 277.591 69.744C277.591 66.864 278.527 64.632 280.399 63.048C282.319 61.416 284.575 60.6 287.167 60.6C288.847 60.6 290.311 60.84 291.559 61.32C292.807 61.8 294.199 62.688 295.735 63.984C297.319 65.28 299.503 67.344 302.287 70.176C305.071 67.44 307.303 65.424 308.983 64.128C310.711 62.784 312.223 61.872 313.519 61.392C314.815 60.864 316.255 60.6 317.839 60.6C319.519 60.6 321.079 60.96 322.519 61.68C324.007 62.4 325.207 63.456 326.119 64.848C327.031 66.24 327.487 67.872 327.487 69.744Z" fill="#FFC42C"/>
<path d="M220.076 244C215.32 244 211.111 242.743 207.448 240.228C203.84 237.659 201.025 234.187 199.002 229.814C197.034 225.441 196.05 220.603 196.05 215.3C196.05 210.325 197.034 205.651 199.002 201.278C200.97 196.85 203.785 193.297 207.448 190.618C211.111 187.939 215.32 186.6 220.076 186.6C224.832 186.6 229.041 187.857 232.704 190.372C236.367 192.887 239.182 196.331 241.15 200.704C243.173 205.077 244.184 209.943 244.184 215.3C244.184 220.165 243.173 224.812 241.15 229.24C239.182 233.668 236.367 237.249 232.704 239.982C229.041 242.661 224.832 244 220.076 244ZM220.076 228.666C223.028 228.666 225.242 227.463 226.718 225.058C228.194 222.653 228.932 219.673 228.932 216.12C228.932 212.621 228.194 209.697 226.718 207.346C225.297 204.941 223.083 203.738 220.076 203.738C217.069 203.738 214.828 204.941 213.352 207.346C211.931 209.697 211.22 212.621 211.22 216.12C211.22 218.033 211.521 219.947 212.122 221.86C212.723 223.773 213.68 225.386 214.992 226.698C216.359 228.01 218.053 228.666 220.076 228.666ZM283.931 217.924C279.284 225.468 275.84 230.935 273.599 234.324C271.412 237.659 269.554 240.119 268.023 241.704C266.547 243.289 265.208 244.082 264.005 244.082C263.076 244.082 262.146 243.727 261.217 243.016C260.288 242.305 259.823 241.403 259.823 240.31C259.823 238.561 260.834 235.827 262.857 232.11C264.88 228.393 268.706 221.942 274.337 212.758C278.82 205.487 282.209 200.13 284.505 196.686C286.856 193.187 288.796 190.645 290.327 189.06C291.858 187.475 293.224 186.682 294.427 186.682C295.356 186.682 296.258 187.037 297.133 187.748C298.062 188.404 298.527 189.279 298.527 190.372C298.527 192.121 297.516 194.855 295.493 198.572C293.47 202.235 289.616 208.685 283.931 217.924ZM261.791 213.742C259.167 213.742 256.816 213.141 254.739 211.938C252.662 210.735 251.049 209.068 249.901 206.936C248.808 204.804 248.261 202.453 248.261 199.884C248.261 197.424 248.835 195.21 249.983 193.242C251.186 191.274 252.798 189.716 254.821 188.568C256.898 187.42 259.222 186.846 261.791 186.846C264.36 186.846 266.684 187.447 268.761 188.65C270.838 189.798 272.451 191.438 273.599 193.57C274.802 195.647 275.403 197.971 275.403 200.54C275.403 202.945 274.802 205.159 273.599 207.182C272.451 209.15 270.838 210.735 268.761 211.938C266.738 213.141 264.415 213.742 261.791 213.742ZM261.955 204.148C262.666 204.148 263.294 203.875 263.841 203.328C264.388 202.781 264.661 202.153 264.661 201.442C264.661 200.677 264.388 200.021 263.841 199.474C263.294 198.927 262.666 198.654 261.955 198.654C261.244 198.654 260.616 198.927 260.069 199.474C259.522 200.021 259.249 200.677 259.249 201.442C259.249 202.153 259.522 202.781 260.069 203.328C260.616 203.875 261.244 204.148 261.955 204.148ZM296.477 243.918C293.853 243.918 291.502 243.317 289.425 242.114C287.348 240.911 285.735 239.244 284.587 237.112C283.494 234.98 282.947 232.629 282.947 230.06C282.947 227.6 283.521 225.386 284.669 223.418C285.872 221.45 287.484 219.892 289.507 218.744C291.584 217.596 293.908 217.022 296.477 217.022C299.046 217.022 301.37 217.623 303.447 218.826C305.524 219.974 307.137 221.614 308.285 223.746C309.488 225.823 310.089 228.147 310.089 230.716C310.089 233.121 309.488 235.335 308.285 237.358C307.137 239.326 305.524 240.911 303.447 242.114C301.424 243.317 299.101 243.918 296.477 243.918ZM296.641 234.324C297.352 234.324 297.98 234.051 298.527 233.504C299.074 232.957 299.347 232.329 299.347 231.618C299.347 230.853 299.074 230.197 298.527 229.65C297.98 229.103 297.352 228.83 296.641 228.83C295.93 228.83 295.302 229.103 294.755 229.65C294.208 230.197 293.935 230.853 293.935 231.618C293.935 232.329 294.208 232.957 294.755 233.504C295.302 234.051 295.93 234.324 296.641 234.324Z" fill="#FFF066"/>
</svg>
