<svg width="329" height="279" viewBox="0 0 329 279" fill="none" xmlns="http://www.w3.org/2000/svg">
<path d="M113 20L138.37 97.7356H220.469L154.05 145.779L179.42 223.514L113 175.471L46.5803 223.514L71.9503 145.779L5.53062 97.7356H87.6299L113 20Z" fill="#F3EC19"/>
<path d="M237.567 12.5045L235.639 34.4085L255.875 43.0111L234.447 47.9459L232.519 69.8498L221.204 50.9957L199.776 55.9305L214.211 39.3432L202.896 20.4892L223.132 29.0918L237.567 12.5045Z" fill="#F3EC19"/>
<path d="M308.744 82.3153L297.753 101.36L312.47 117.698L290.961 113.131L279.97 132.175L277.667 110.308L256.158 105.74L276.244 96.7926L273.941 74.9249L288.658 91.2628L308.744 82.3153Z" fill="#F3EC19"/>
<path d="M316.491 172.815L295.305 178.698L294.353 200.666L282.21 182.335L261.024 188.218L274.706 171.005L262.563 152.673L283.162 160.367L296.844 143.153L295.893 165.121L316.491 172.815Z" fill="#F3EC19"/>
<path d="M247.03 269.168L233.993 251.461L213.124 258.388L225.936 240.518L212.898 222.811L233.853 229.473L246.665 211.602L246.804 233.59L267.76 240.252L246.891 247.18L247.03 269.168Z" fill="#F3EC19"/>
</svg>
