<svg width="890" height="120" viewBox="0 0 890 120" fill="none" xmlns="http://www.w3.org/2000/svg">
<path d="M54.5322 51.2715V64.7188H17.3281V51.2715H54.5322ZM23.1553 22.4844V95H5.67383V22.4844H23.1553ZM66.2861 22.4844V95H48.8545V22.4844H66.2861ZM138.752 57.2979V60.2363C138.752 65.7812 137.972 70.7617 136.411 75.1777C134.884 79.5605 132.709 83.3125 129.887 86.4336C127.064 89.5215 123.728 91.8955 119.876 93.5557C116.024 95.1826 111.774 95.9961 107.126 95.9961C102.444 95.9961 98.1611 95.1826 94.2764 93.5557C90.4248 91.8955 87.0713 89.5215 84.2158 86.4336C81.3936 83.3125 79.2021 79.5605 77.6416 75.1777C76.1143 70.7617 75.3506 65.7812 75.3506 60.2363V57.2979C75.3506 51.7529 76.1143 46.7725 77.6416 42.3564C79.2021 37.9404 81.377 34.1885 84.166 31.1006C86.9883 27.9795 90.3252 25.6055 94.1768 23.9785C98.0615 22.3184 102.345 21.4883 107.026 21.4883C111.675 21.4883 115.925 22.3184 119.776 23.9785C123.661 25.6055 127.015 27.9795 129.837 31.1006C132.659 34.1885 134.851 37.9404 136.411 42.3564C137.972 46.7725 138.752 51.7529 138.752 57.2979ZM121.021 60.2363V57.1982C121.021 53.6123 120.706 50.458 120.075 47.7354C119.478 44.9795 118.581 42.6719 117.386 40.8125C116.19 38.9531 114.713 37.5586 112.953 36.6289C111.227 35.666 109.251 35.1846 107.026 35.1846C104.702 35.1846 102.677 35.666 100.95 36.6289C99.2236 37.5586 97.7793 38.9531 96.6172 40.8125C95.4551 42.6719 94.5752 44.9795 93.9775 47.7354C93.4131 50.458 93.1309 53.6123 93.1309 57.1982V60.2363C93.1309 63.7891 93.4131 66.9434 93.9775 69.6992C94.5752 72.4219 95.4551 74.7295 96.6172 76.6221C97.8125 78.5146 99.2734 79.9424 101 80.9053C102.76 81.8682 104.802 82.3496 107.126 82.3496C109.351 82.3496 111.326 81.8682 113.053 80.9053C114.779 79.9424 116.224 78.5146 117.386 76.6221C118.581 74.7295 119.478 72.4219 120.075 69.6992C120.706 66.9434 121.021 63.7891 121.021 60.2363ZM164.551 88.4258L178.994 22.4844H187.61L192.292 28.1123L176.902 95H167.39L164.551 88.4258ZM160.716 22.4844L172.918 88.9238L169.78 95H158.773L143.384 22.4844H160.716ZM200.211 88.5752L212.313 22.4844H229.596L214.206 95H203.249L200.211 88.5752ZM193.836 22.4844L208.628 88.8242L205.64 95H196.127L180.389 28.0127L185.27 22.4844H193.836ZM293.993 22.4844V95H276.512V22.4844H293.993ZM315.808 22.4844V35.9814H255.195V22.4844H315.808ZM383.193 57.2979V60.2363C383.193 65.7812 382.413 70.7617 380.853 75.1777C379.325 79.5605 377.15 83.3125 374.328 86.4336C371.506 89.5215 368.169 91.8955 364.317 93.5557C360.466 95.1826 356.216 95.9961 351.567 95.9961C346.886 95.9961 342.603 95.1826 338.718 93.5557C334.866 91.8955 331.513 89.5215 328.657 86.4336C325.835 83.3125 323.644 79.5605 322.083 75.1777C320.556 70.7617 319.792 65.7812 319.792 60.2363V57.2979C319.792 51.7529 320.556 46.7725 322.083 42.3564C323.644 37.9404 325.818 34.1885 328.607 31.1006C331.43 27.9795 334.767 25.6055 338.618 23.9785C342.503 22.3184 346.786 21.4883 351.468 21.4883C356.116 21.4883 360.366 22.3184 364.218 23.9785C368.103 25.6055 371.456 27.9795 374.278 31.1006C377.101 34.1885 379.292 37.9404 380.853 42.3564C382.413 46.7725 383.193 51.7529 383.193 57.2979ZM365.463 60.2363V57.1982C365.463 53.6123 365.147 50.458 364.517 47.7354C363.919 44.9795 363.022 42.6719 361.827 40.8125C360.632 38.9531 359.154 37.5586 357.395 36.6289C355.668 35.666 353.692 35.1846 351.468 35.1846C349.144 35.1846 347.118 35.666 345.392 36.6289C343.665 37.5586 342.221 38.9531 341.059 40.8125C339.896 42.6719 339.017 44.9795 338.419 47.7354C337.854 50.458 337.572 53.6123 337.572 57.1982V60.2363C337.572 63.7891 337.854 66.9434 338.419 69.6992C339.017 72.4219 339.896 74.7295 341.059 76.6221C342.254 78.5146 343.715 79.9424 345.441 80.9053C347.201 81.8682 349.243 82.3496 351.567 82.3496C353.792 82.3496 355.768 81.8682 357.494 80.9053C359.221 79.9424 360.665 78.5146 361.827 76.6221C363.022 74.7295 363.919 72.4219 364.517 69.6992C365.147 66.9434 365.463 63.7891 365.463 60.2363ZM447.242 64.1709H428.565L428.466 52.7158H443.606C446.329 52.7158 448.504 52.417 450.131 51.8193C451.758 51.1885 452.937 50.2754 453.667 49.0801C454.431 47.8848 454.812 46.3906 454.812 44.5977C454.812 42.5391 454.431 40.8789 453.667 39.6172C452.903 38.3555 451.691 37.4424 450.031 36.8779C448.404 36.2803 446.296 35.9814 443.706 35.9814H435.14V95H417.658V22.4844H443.706C448.188 22.4844 452.189 22.8994 455.709 23.7295C459.229 24.5264 462.217 25.7549 464.674 27.415C467.164 29.0752 469.057 31.167 470.352 33.6904C471.646 36.1807 472.294 39.1191 472.294 42.5059C472.294 45.4609 471.663 48.2334 470.401 50.8232C469.14 53.4131 467.031 55.5215 464.076 57.1484C461.154 58.7422 457.153 59.5723 452.073 59.6387L447.242 64.1709ZM446.545 95H424.332L430.309 81.5527H446.545C448.936 81.5527 450.845 81.1875 452.272 80.457C453.733 79.6934 454.779 78.6973 455.41 77.4688C456.074 76.207 456.406 74.8125 456.406 73.2852C456.406 71.4258 456.091 69.8154 455.46 68.4541C454.862 67.0928 453.899 66.0469 452.571 65.3164C451.243 64.5527 449.467 64.1709 447.242 64.1709H432.55L432.649 52.7158H450.23L454.314 57.2979C459.162 57.0986 462.997 57.7793 465.819 59.3398C468.675 60.9004 470.717 62.959 471.945 65.5156C473.174 68.0723 473.788 70.7451 473.788 73.5342C473.788 78.2822 472.759 82.25 470.7 85.4375C468.675 88.625 465.637 91.0156 461.586 92.6094C457.535 94.2031 452.521 95 446.545 95ZM522.846 22.4844H540.327V69.8486C540.327 75.4932 539.148 80.2744 536.791 84.1924C534.434 88.0771 531.13 91.0156 526.88 93.0078C522.63 95 517.633 95.9961 511.889 95.9961C506.211 95.9961 501.214 95 496.897 93.0078C492.614 91.0156 489.261 88.0771 486.837 84.1924C484.446 80.2744 483.251 75.4932 483.251 69.8486V22.4844H500.782V69.8486C500.782 72.8369 501.214 75.2773 502.077 77.1699C502.94 79.0293 504.202 80.3906 505.862 81.2539C507.522 82.1172 509.531 82.5488 511.889 82.5488C514.279 82.5488 516.288 82.1172 517.915 81.2539C519.542 80.3906 520.771 79.0293 521.601 77.1699C522.431 75.2773 522.846 72.8369 522.846 69.8486V22.4844ZM564.482 22.4844L577.83 53.9609L591.228 22.4844H610.054L586.745 68.9521V95H568.965V68.9521L545.606 22.4844H564.482Z" fill="#57472B"/>
<path d="M723.264 45.32H714.268V70.904H723.264V45.32ZM714.268 79.9H709.588C709.692 79.068 709.761 78.3573 709.796 77.768C709.865 77.1787 709.9 76.624 709.9 76.104C709.935 75.6187 709.952 75.1333 709.952 74.648C709.987 74.1627 710.004 73.6253 710.004 73.036V45.164C710.004 44.2627 709.987 43.5173 709.952 42.928C709.952 42.3387 709.917 41.7667 709.848 41.212C711.408 41.3507 713.037 41.4373 714.736 41.472C716.435 41.5067 717.943 41.524 719.26 41.524C720.577 41.524 721.929 41.5067 723.316 41.472C724.737 41.4373 726.228 41.3507 727.788 41.212C727.719 41.7667 727.667 42.3213 727.632 42.876C727.597 43.396 727.58 44.1587 727.58 45.164V72.256C727.58 73.4347 727.597 74.5267 727.632 75.532C727.701 76.5027 727.805 77.6987 727.944 79.12H723.264V74.648H714.268V79.9ZM692.272 45.424C692.48 44.0373 692.636 42.8413 692.74 41.836C692.879 40.796 692.983 39.8773 693.052 39.08C693.121 38.248 693.156 37.4853 693.156 36.792C693.191 36.0987 693.208 35.3533 693.208 34.556C694.109 34.7987 695.063 34.9893 696.068 35.128C697.108 35.232 698.096 35.3187 699.032 35.388C699.656 35.4227 699.985 35.544 700.02 35.752C700.089 35.96 699.743 36.3587 698.98 36.948C698.911 37.0173 698.824 37.1387 698.72 37.312C698.651 37.4507 698.529 37.7973 698.356 38.352C698.217 38.872 698.009 39.6867 697.732 40.796C697.489 41.9053 697.16 43.448 696.744 45.424C699.413 45.424 701.545 45.3893 703.14 45.32C704.769 45.2507 705.931 45.164 706.624 45.06C706.312 48.076 706 50.6587 705.688 52.808C705.411 54.9573 705.081 56.8467 704.7 58.476C704.353 60.1053 703.937 61.5613 703.452 62.844C703.001 64.092 702.464 65.3053 701.84 66.484C703.296 67.3853 704.631 68.252 705.844 69.084C707.092 69.8813 708.149 70.5747 709.016 71.164C708.323 71.788 707.733 72.412 707.248 73.036C706.763 73.66 706.277 74.3707 705.792 75.168C704.613 74.1973 703.504 73.3133 702.464 72.516C701.459 71.7187 700.505 70.9733 699.604 70.28C698.911 71.216 698.096 72.1867 697.16 73.192C696.224 74.1973 695.236 75.168 694.196 76.104C693.156 77.0747 692.081 77.9933 690.972 78.86C689.863 79.7267 688.771 80.5067 687.696 81.2C687.245 80.5413 686.708 79.9173 686.084 79.328C685.46 78.7387 684.767 78.236 684.004 77.82C686.708 76.4333 689.065 74.96 691.076 73.4C693.087 71.84 694.82 70.02 696.276 67.94C694.82 66.9347 693.468 66.1027 692.22 65.444C690.972 64.7507 689.707 64.1613 688.424 63.676C688.805 62.4627 689.152 61.336 689.464 60.296C689.776 59.256 690.053 58.1987 690.296 57.124C690.573 56.0147 690.816 54.836 691.024 53.588C691.267 52.3053 691.509 50.832 691.752 49.168C690.296 49.168 688.961 49.2027 687.748 49.272C686.535 49.3413 685.512 49.4453 684.68 49.584V45.06C685.373 45.164 686.344 45.2507 687.592 45.32C688.84 45.3547 690.4 45.3893 692.272 45.424ZM695.912 49.168C695.565 50.7973 695.167 52.652 694.716 54.732C694.3 56.7773 693.815 59.1 693.26 61.7C694.092 62.0813 694.924 62.4973 695.756 62.948C696.623 63.3987 697.472 63.8667 698.304 64.352C699.275 62.3413 700.037 60.1053 700.592 57.644C701.181 55.148 701.58 52.3227 701.788 49.168H695.912ZM772.508 42.512C769.596 42.512 767.065 42.512 764.916 42.512C762.767 42.512 760.86 42.5293 759.196 42.564C757.532 42.564 756.024 42.5987 754.672 42.668C753.32 42.7373 751.951 42.824 750.564 42.928V38.352C751.639 38.456 752.696 38.5427 753.736 38.612C754.776 38.6467 755.903 38.6813 757.116 38.716C758.364 38.716 759.733 38.7333 761.224 38.768C762.715 38.768 764.465 38.768 766.476 38.768C768.487 38.768 770.237 38.768 771.728 38.768C773.253 38.7333 774.623 38.716 775.836 38.716C777.049 38.6813 778.176 38.6467 779.216 38.612C780.256 38.5427 781.313 38.456 782.388 38.352V42.928C781.452 42.8587 780.533 42.8067 779.632 42.772C778.731 42.7027 777.777 42.6507 776.772 42.616V75.012C776.772 76.3293 776.703 77.3693 776.564 78.132C776.46 78.8947 776.131 79.484 775.576 79.9C775.056 80.3507 774.241 80.6627 773.132 80.836C772.023 81.044 770.48 81.2 768.504 81.304C768.365 80.4373 768.157 79.6053 767.88 78.808C767.637 78.0453 767.239 77.144 766.684 76.104C767.863 76.3467 768.816 76.468 769.544 76.468C770.307 76.5027 770.896 76.416 771.312 76.208C771.763 76 772.075 75.688 772.248 75.272C772.421 74.8213 772.508 74.2667 772.508 73.608V42.512ZM762.732 64.196V52.496H755.712V64.196H762.732ZM755.712 67.524V73.244H751.656C751.725 71.996 751.777 70.8693 751.812 69.864C751.847 68.8587 751.864 67.7493 751.864 66.536V53.12C751.864 52.1493 751.847 51.352 751.812 50.728C751.777 50.0693 751.725 49.4453 751.656 48.856C752.037 48.8907 752.419 48.9253 752.8 48.96C753.181 48.9947 753.632 49.0293 754.152 49.064C754.707 49.064 755.383 49.064 756.18 49.064C757.012 49.064 758.052 49.064 759.3 49.064C760.548 49.064 761.571 49.064 762.368 49.064C763.2 49.064 763.893 49.064 764.448 49.064C765.003 49.0293 765.453 49.012 765.8 49.012C766.181 48.9773 766.563 48.9253 766.944 48.856C766.805 49.6533 766.736 51.0747 766.736 53.12V64.508C766.736 65.7213 766.753 66.848 766.788 67.888C766.823 68.8933 766.909 69.968 767.048 71.112H762.732V67.524H755.712ZM741.36 53.016C740.771 54.1253 740.181 55.1653 739.592 56.136C739.003 57.072 738.465 57.8867 737.98 58.58C737.599 57.9213 737.131 57.3147 736.576 56.76C736.021 56.1707 735.363 55.6333 734.6 55.148C735.328 54.3507 735.987 53.5707 736.576 52.808C737.165 52.0453 737.72 51.2307 738.24 50.364C738.795 49.4627 739.315 48.492 739.8 47.452C740.32 46.3773 740.857 45.1293 741.412 43.708C742.036 42.1133 742.556 40.5013 742.972 38.872C743.423 37.2427 743.787 35.7 744.064 34.244C744.931 34.6253 745.728 34.9373 746.456 35.18C747.184 35.388 747.981 35.544 748.848 35.648C749.403 35.7173 749.715 35.8733 749.784 36.116C749.853 36.324 749.593 36.688 749.004 37.208C748.9 37.312 748.761 37.4853 748.588 37.728C748.449 37.936 748.241 38.3173 747.964 38.872C747.721 39.392 747.392 40.12 746.976 41.056C746.595 41.9573 746.092 43.1533 745.468 44.644V81.668H740.788C740.927 80.1773 741.048 78.4093 741.152 76.364C741.291 74.3187 741.36 72.36 741.36 70.488V53.016ZM807.036 78.496C806.031 76.9707 804.991 75.5667 803.916 74.284C802.876 72.9667 801.784 71.8053 800.64 70.8L803.5 68.512C804.783 69.656 805.979 70.8347 807.088 72.048C808.232 73.2613 809.376 74.6133 810.52 76.104L807.036 78.496ZM801.992 46.256C801.888 46.4293 801.784 46.7933 801.68 47.348C801.576 47.868 801.524 48.5267 801.524 49.324C801.524 51.7507 801.472 54.2467 801.368 56.812C801.299 59.3773 801.16 61.96 800.952 64.56C800.848 65.8773 800.553 67.2467 800.068 68.668C799.617 70.0547 798.993 71.4413 798.196 72.828C797.433 74.18 796.515 75.5147 795.44 76.832C794.365 78.1493 793.187 79.3627 791.904 80.472C791.315 79.8133 790.743 79.276 790.188 78.86C789.633 78.444 788.888 77.9933 787.952 77.508C789.755 76.5373 791.228 75.48 792.372 74.336C793.551 73.192 794.487 72.0133 795.18 70.8C795.908 69.5867 796.428 68.356 796.74 67.108C797.087 65.86 797.312 64.6293 797.416 63.416C797.693 60.2613 797.849 57.1933 797.884 54.212C797.919 51.2307 797.797 48.128 797.52 44.904C798.421 45.0773 799.219 45.1987 799.912 45.268C800.605 45.3373 801.143 45.372 801.524 45.372C802.009 45.372 802.269 45.424 802.304 45.528C802.373 45.632 802.269 45.8747 801.992 46.256ZM804.696 66.432V41.42H794.66V67.836H790.604C790.673 67.0387 790.743 66.224 790.812 65.392C790.881 64.5253 790.916 63.6413 790.916 62.74V41.524C790.916 40.7267 790.881 39.9813 790.812 39.288C790.777 38.56 790.725 37.9533 790.656 37.468C791.488 37.5373 792.615 37.5893 794.036 37.624C795.457 37.624 797.243 37.624 799.392 37.624C801.437 37.624 803.275 37.624 804.904 37.624C806.568 37.5893 807.799 37.5373 808.596 37.468C808.492 38.4733 808.44 39.8253 808.44 41.524V61.336C808.44 62.2373 808.457 63.1213 808.492 63.988C808.527 64.8547 808.579 65.6693 808.648 66.432H804.696ZM822.532 65.652C822.289 64.4387 822.047 63.2773 821.804 62.168C821.561 61.024 821.301 60.036 821.024 59.204L824.3 58.476C824.889 60.5907 825.409 62.6187 825.86 64.56C826.345 66.4667 826.813 68.46 827.264 70.54L823.468 71.632C823.399 71.1467 823.329 70.6787 823.26 70.228C823.225 69.7427 823.173 69.2573 823.104 68.772L815.72 70.02C815.165 70.124 814.541 70.28 813.848 70.488C813.189 70.6613 812.565 70.8867 811.976 71.164C811.907 70.332 811.785 69.6387 811.612 69.084C811.439 68.4947 811.179 67.8533 810.832 67.16C811.317 66.9867 811.681 66.7267 811.924 66.38C812.201 65.9987 812.479 65.496 812.756 64.872C813.311 63.4853 813.813 62.2027 814.264 61.024C814.715 59.8453 815.096 58.7013 815.408 57.592C815.755 56.448 816.032 55.3213 816.24 54.212C816.483 53.1027 816.691 51.924 816.864 50.676C817.765 50.9533 818.632 51.1787 819.464 51.352C820.331 51.5253 820.972 51.6467 821.388 51.716C822.289 51.82 822.376 52.2187 821.648 52.912C821.405 53.12 821.093 53.5707 820.712 54.264C820.365 54.9227 820.088 55.5467 819.88 56.136C819.048 58.424 818.268 60.3827 817.54 62.012C816.812 63.6067 816.049 65.1493 815.252 66.64L822.532 65.652ZM825.652 42.616C826.969 42.616 828.425 42.5813 830.02 42.512C831.615 42.4427 832.967 42.356 834.076 42.252L832.984 73.712C832.949 74.96 832.811 76.052 832.568 76.988C832.325 77.9587 831.84 78.756 831.112 79.38C830.384 80.0387 829.344 80.5413 827.992 80.888C826.675 81.2347 824.907 81.4253 822.688 81.46C822.411 80.4893 822.116 79.64 821.804 78.912C821.527 78.184 821.145 77.404 820.66 76.572C822.151 76.78 823.416 76.8667 824.456 76.832C825.531 76.832 826.397 76.6587 827.056 76.312C827.715 76 828.183 75.532 828.46 74.908C828.772 74.284 828.945 73.4693 828.98 72.464L829.76 46.152H816.5C815.737 47.7813 815.009 49.1853 814.316 50.364C813.623 51.508 812.825 52.704 811.924 53.952C811.577 53.6053 811.109 53.276 810.52 52.964C809.965 52.6173 809.376 52.3573 808.752 52.184C810.832 49.5147 812.669 46.1173 814.264 41.992C814.645 41.0213 814.975 39.86 815.252 38.508C815.564 37.1213 815.789 35.7 815.928 34.244C816.864 34.66 817.765 34.972 818.632 35.18C819.499 35.388 820.331 35.5267 821.128 35.596C821.717 35.6653 821.7 36.0293 821.076 36.688C820.799 36.9653 820.4 37.5893 819.88 38.56C819.36 39.496 818.719 40.848 817.956 42.616H825.652ZM881.552 48.128L876.612 47.244L878.588 41.94H864.6C861.931 41.94 859.608 41.9573 857.632 41.992C855.656 42.0267 853.888 42.0787 852.328 42.148C850.768 42.1827 849.364 42.2347 848.116 42.304C846.903 42.3733 845.724 42.46 844.58 42.564V37.728C845.724 37.7973 846.885 37.8667 848.064 37.936C849.243 37.9707 850.595 38.0053 852.12 38.04C853.645 38.0747 855.413 38.1093 857.424 38.144C859.435 38.144 861.861 38.144 864.704 38.144C867.547 38.144 869.956 38.144 871.932 38.144C873.943 38.1093 875.693 38.0747 877.184 38.04C878.675 38.0053 879.992 37.9707 881.136 37.936C882.315 37.8667 883.476 37.7973 884.62 37.728L881.552 48.128ZM850.196 52.288C851.756 53.224 853.195 54.1427 854.512 55.044C855.864 55.9453 857.095 56.7947 858.204 57.592L855.084 61.18C854.079 60.0707 852.9 59.048 851.548 58.112C850.231 57.176 848.792 56.3093 847.232 55.512L850.196 52.288ZM853.888 44.956C855.448 45.9267 856.921 46.8627 858.308 47.764C859.695 48.6653 860.995 49.5147 862.208 50.312L859.244 54.16C858.065 52.912 856.835 51.7853 855.552 50.78C854.269 49.74 852.796 48.8213 851.132 48.024L853.888 44.956ZM871.048 69.24C872.192 69.8293 873.301 70.4013 874.376 70.956C875.451 71.5107 876.525 72.0827 877.6 72.672C878.709 73.2267 879.836 73.8333 880.98 74.492C882.124 75.116 883.32 75.792 884.568 76.52L881.136 80.576C879.957 79.744 878.848 78.9813 877.808 78.288C876.768 77.5947 875.728 76.9187 874.688 76.26C873.648 75.636 872.591 75.0293 871.516 74.44C870.476 73.8507 869.332 73.2613 868.084 72.672L871.048 69.24ZM868.24 66.068C867.685 68.044 866.767 69.8293 865.484 71.424C864.236 72.984 862.676 74.4053 860.804 75.688C858.932 76.936 856.817 78.028 854.46 78.964C852.103 79.9347 849.555 80.7667 846.816 81.46C846.435 80.524 845.984 79.744 845.464 79.12C844.979 78.496 844.337 77.8547 843.54 77.196C846.521 76.6413 849.121 76.052 851.34 75.428C853.593 74.7693 855.517 74.0067 857.112 73.14C858.707 72.2387 860.024 71.216 861.064 70.072C862.104 68.928 862.936 67.5933 863.56 66.068C858.741 66.068 854.599 66.12 851.132 66.224C847.665 66.2933 844.649 66.4147 842.084 66.588V61.544C843.401 61.648 844.771 61.7347 846.192 61.804C847.648 61.8387 849.26 61.8907 851.028 61.96C852.796 61.9947 854.772 62.0293 856.956 62.064C859.175 62.064 861.705 62.064 864.548 62.064C864.617 60.9893 864.669 59.6373 864.704 58.008C864.773 56.3787 864.808 54.732 864.808 53.068C864.843 51.3693 864.843 49.792 864.808 48.336C864.808 46.8453 864.791 45.7187 864.756 44.956C866.697 45.3027 868.552 45.424 870.32 45.32C870.632 45.2853 870.805 45.3373 870.84 45.476C870.909 45.58 870.805 45.7187 870.528 45.892C869.939 46.308 869.609 47.4173 869.54 49.22C869.505 50.1907 869.453 51.2653 869.384 52.444C869.349 53.588 869.297 54.7493 869.228 55.928C869.159 57.1067 869.089 58.2333 869.02 59.308C868.951 60.3827 868.899 61.3013 868.864 62.064C872.296 62.0293 875.295 61.9773 877.86 61.908C880.425 61.804 882.8 61.6827 884.984 61.544V66.588C882.8 66.4147 880.373 66.2933 877.704 66.224C875.069 66.1547 871.915 66.1027 868.24 66.068Z" fill="#57472B"/>
</svg>
