<svg width="270" height="33" viewBox="0 0 270 33" fill="none" xmlns="http://www.w3.org/2000/svg">
<path d="M251.774 32V18.5059H263.587V32H269.842V1.77148H263.587V13.2969H251.774V1.77148H245.499V32H251.774ZM226.078 32.8408C230.398 32.8408 233.7 31.665 235.983 29.3135C239.046 26.4287 240.577 22.2725 240.577 16.8447C240.577 11.3076 239.046 7.15137 235.983 4.37598C233.7 2.02441 230.398 0.848633 226.078 0.848633C221.758 0.848633 218.456 2.02441 216.173 4.37598C213.124 7.15137 211.6 11.3076 211.6 16.8447C211.6 22.2725 213.124 26.4287 216.173 29.3135C218.456 31.665 221.758 32.8408 226.078 32.8408ZM220.11 24.7197C218.647 22.874 217.916 20.249 217.916 16.8447C217.916 13.4541 218.654 10.8359 220.131 8.99023C221.594 7.13086 223.576 6.20117 226.078 6.20117C228.58 6.20117 230.576 7.12402 232.066 8.96973C233.557 10.8154 234.302 13.4404 234.302 16.8447C234.302 20.249 233.557 22.874 232.066 24.7197C230.576 26.5654 228.58 27.4883 226.078 27.4883C223.576 27.4883 221.587 26.5654 220.11 24.7197ZM177.352 1.77148H170.933L179.443 32H185.473L189.123 14.3223L190.189 8.47754L191.256 14.3223L194.906 32H200.771L209.344 1.77148H202.638L198.639 19.0801L197.777 23.8994L196.896 19.1826L193.491 1.77148H186.826L183.237 19.0801L182.314 23.8994L181.392 19.2646L177.352 1.77148ZM133.444 1.77148V7.12402H142.488V32H148.846V7.12402H157.931V1.77148H133.444ZM117.1 32.8408C121.42 32.8408 124.722 31.665 127.005 29.3135C130.067 26.4287 131.599 22.2725 131.599 16.8447C131.599 11.3076 130.067 7.15137 127.005 4.37598C124.722 2.02441 121.42 0.848633 117.1 0.848633C112.779 0.848633 109.478 2.02441 107.194 4.37598C104.146 7.15137 102.621 11.3076 102.621 16.8447C102.621 22.2725 104.146 26.4287 107.194 29.3135C109.478 31.665 112.779 32.8408 117.1 32.8408ZM111.132 24.7197C109.669 22.874 108.938 20.249 108.938 16.8447C108.938 13.4541 109.676 10.8359 111.152 8.99023C112.615 7.13086 114.598 6.20117 117.1 6.20117C119.602 6.20117 121.598 7.12402 123.088 8.96973C124.578 10.8154 125.323 13.4404 125.323 16.8447C125.323 20.249 124.578 22.874 123.088 24.7197C121.598 26.5654 119.602 27.4883 117.1 27.4883C114.598 27.4883 112.608 26.5654 111.132 24.7197ZM72.29 32H85.9893V1.77148H71.3057C67.6006 1.82617 64.9756 2.89941 63.4307 4.99121C62.501 6.27637 62.0361 7.81445 62.0361 9.60547C62.0361 11.4512 62.501 12.9346 63.4307 14.0557C63.9502 14.6846 64.7158 15.2588 65.7275 15.7783C64.1826 16.3389 63.0205 17.2275 62.2412 18.4443C61.4482 19.6611 61.0518 21.1377 61.0518 22.874C61.0518 24.665 61.5029 26.2715 62.4053 27.6934C62.9795 28.6367 63.6973 29.4297 64.5586 30.0723C65.5293 30.8105 66.6777 31.3164 68.0039 31.5898C69.3164 31.8633 70.7451 32 72.29 32ZM72.4336 18.6904H79.96V26.75H72.5361C71.21 26.75 70.1777 26.5723 69.4395 26.2168C68.0996 25.5605 67.4297 24.3027 67.4297 22.4434C67.4297 20.8711 68.0791 19.791 69.3779 19.2031C70.1025 18.875 71.1211 18.7041 72.4336 18.6904ZM69.2959 12.9277C68.4756 12.4355 68.0654 11.5537 68.0654 10.2822C68.0654 8.87402 68.6123 7.94434 69.7061 7.49316C70.6494 7.17871 71.8525 7.02148 73.3154 7.02148H79.96V13.6865H72.5361C71.21 13.6865 70.1299 13.4336 69.2959 12.9277ZM37.8574 20.3516V1.77148H31.4385V20.3516C31.4385 23.5645 31.9375 26.0664 32.9355 27.8574C34.7949 31.1387 38.3428 32.7793 43.5791 32.7793C48.8154 32.7793 52.3701 31.1387 54.2432 27.8574C55.2412 26.0664 55.7402 23.5645 55.7402 20.3516V1.77148H49.3213V20.3516C49.3213 22.4297 49.0752 23.9473 48.583 24.9043C47.8174 26.5996 46.1494 27.4473 43.5791 27.4473C41.0225 27.4473 39.3613 26.5996 38.5957 24.9043C38.1035 23.9473 37.8574 22.4297 37.8574 20.3516ZM0.984375 1.77148L11.0947 20.6387V32H17.4111V20.6387L27.8701 1.77148H20.4258L14.1504 14.9375L8.1416 1.77148H0.984375Z" fill="black"/>
</svg>
