<svg width="462" height="56" viewBox="0 0 462 56" fill="none" xmlns="http://www.w3.org/2000/svg">
<path d="M430.613 54V30.8672H450.863V54H461.586V2.17969H450.863V21.9375H430.613V2.17969H419.855V54H430.613ZM386.562 55.4414C393.969 55.4414 399.629 53.4258 403.543 49.3945C408.793 44.4492 411.418 37.3242 411.418 28.0195C411.418 18.5273 408.793 11.4023 403.543 6.64453C399.629 2.61328 393.969 0.597656 386.562 0.597656C379.156 0.597656 373.496 2.61328 369.582 6.64453C364.355 11.4023 361.742 18.5273 361.742 28.0195C361.742 37.3242 364.355 44.4492 369.582 49.3945C373.496 53.4258 379.156 55.4414 386.562 55.4414ZM376.332 41.5195C373.824 38.3555 372.57 33.8555 372.57 28.0195C372.57 22.207 373.836 17.7188 376.367 14.5547C378.875 11.3672 382.273 9.77344 386.562 9.77344C390.852 9.77344 394.273 11.3555 396.828 14.5195C399.383 17.6836 400.66 22.1836 400.66 28.0195C400.66 33.8555 399.383 38.3555 396.828 41.5195C394.273 44.6836 390.852 46.2656 386.562 46.2656C382.273 46.2656 378.863 44.6836 376.332 41.5195ZM303.031 2.17969H292.027L306.617 54H316.953L323.211 23.6953L325.039 13.6758L326.867 23.6953L333.125 54H343.18L357.875 2.17969H346.379L339.523 31.8516L338.047 40.1133L336.535 32.0273L330.699 2.17969H319.273L313.121 31.8516L311.539 40.1133L309.957 32.168L303.031 2.17969ZM227.762 2.17969V11.3555H243.266V54H254.164V11.3555H269.738V2.17969H227.762ZM199.742 55.4414C207.148 55.4414 212.809 53.4258 216.723 49.3945C221.973 44.4492 224.598 37.3242 224.598 28.0195C224.598 18.5273 221.973 11.4023 216.723 6.64453C212.809 2.61328 207.148 0.597656 199.742 0.597656C192.336 0.597656 186.676 2.61328 182.762 6.64453C177.535 11.4023 174.922 18.5273 174.922 28.0195C174.922 37.3242 177.535 44.4492 182.762 49.3945C186.676 53.4258 192.336 55.4414 199.742 55.4414ZM189.512 41.5195C187.004 38.3555 185.75 33.8555 185.75 28.0195C185.75 22.207 187.016 17.7188 189.547 14.5547C192.055 11.3672 195.453 9.77344 199.742 9.77344C204.031 9.77344 207.453 11.3555 210.008 14.5195C212.562 17.6836 213.84 22.1836 213.84 28.0195C213.84 33.8555 212.562 38.3555 210.008 41.5195C207.453 44.6836 204.031 46.2656 199.742 46.2656C195.453 46.2656 192.043 44.6836 189.512 41.5195ZM122.926 54H146.41V2.17969H121.238C114.887 2.27344 110.387 4.11328 107.738 7.69922C106.145 9.90234 105.348 12.5391 105.348 15.6094C105.348 18.7734 106.145 21.3164 107.738 23.2383C108.629 24.3164 109.941 25.3008 111.676 26.1914C109.027 27.1523 107.035 28.6758 105.699 30.7617C104.34 32.8477 103.66 35.3789 103.66 38.3555C103.66 41.4258 104.434 44.1797 105.98 46.6172C106.965 48.2344 108.195 49.5938 109.672 50.6953C111.336 51.9609 113.305 52.8281 115.578 53.2969C117.828 53.7656 120.277 54 122.926 54ZM123.172 31.1836H136.074V45H123.348C121.074 45 119.305 44.6953 118.039 44.0859C115.742 42.9609 114.594 40.8047 114.594 37.6172C114.594 34.9219 115.707 33.0703 117.934 32.0625C119.176 31.5 120.922 31.207 123.172 31.1836ZM117.793 21.3047C116.387 20.4609 115.684 18.9492 115.684 16.7695C115.684 14.3555 116.621 12.7617 118.496 11.9883C120.113 11.4492 122.176 11.1797 124.684 11.1797H136.074V22.6055H123.348C121.074 22.6055 119.223 22.1719 117.793 21.3047ZM63.8984 34.0312V2.17969H52.8945V34.0312C52.8945 39.5391 53.75 43.8281 55.4609 46.8984C58.6484 52.5234 64.7305 55.3359 73.707 55.3359C82.6836 55.3359 88.7773 52.5234 91.9883 46.8984C93.6992 43.8281 94.5547 39.5391 94.5547 34.0312V2.17969H83.5508V34.0312C83.5508 37.5938 83.1289 40.1953 82.2852 41.8359C80.9727 44.7422 78.1133 46.1953 73.707 46.1953C69.3242 46.1953 66.4766 44.7422 65.1641 41.8359C64.3203 40.1953 63.8984 37.5938 63.8984 34.0312ZM0.6875 2.17969L18.0195 34.5234V54H28.8477V34.5234L46.7773 2.17969H34.0156L23.2578 24.75L12.957 2.17969H0.6875Z" fill="black"/>
</svg>
