<svg width="1032" height="43" viewBox="0 0 1032 43" fill="none" xmlns="http://www.w3.org/2000/svg">
<path d="M1013.77 33V19.5059H1025.59V33H1031.84V2.77148H1025.59V14.2969H1013.77V2.77148H1007.5V33H1013.77ZM983.279 13.4766C981.393 15.8418 980.449 18.6377 980.449 21.8643C980.449 25.1455 981.393 27.9551 983.279 30.293C985.166 32.6172 988.03 33.7793 991.872 33.7793C995.714 33.7793 998.578 32.6172 1000.46 30.293C1002.35 27.9551 1003.29 25.1455 1003.29 21.8643C1003.29 18.6377 1002.35 15.8418 1000.46 13.4766C998.578 11.1113 995.714 9.92871 991.872 9.92871C988.03 9.92871 985.166 11.1113 983.279 13.4766ZM991.893 14.8711C993.602 14.8711 994.921 15.4795 995.851 16.6963C996.767 17.8994 997.225 19.6221 997.225 21.8643C997.225 24.1064 996.767 25.8359 995.851 27.0527C994.921 28.2695 993.602 28.8779 991.893 28.8779C990.184 28.8779 988.871 28.2695 987.955 27.0527C987.039 25.8359 986.581 24.1064 986.581 21.8643C986.581 19.6221 987.039 17.8994 987.955 16.6963C988.871 15.4795 990.184 14.8711 991.893 14.8711ZM959.285 33L962.792 16.7168L966.34 33H972.41L978.686 10.6465H972.41L968.924 26.6836L965.704 10.6465H959.777L956.373 26.7451L952.887 10.6465H946.796L953.276 33H959.285ZM911.522 2.8125V33H917.203V29.9033C918.037 31.2295 918.987 32.1934 920.054 32.7949C921.12 33.3965 922.446 33.6973 924.032 33.6973C926.644 33.6973 928.845 32.6445 930.636 30.5391C932.413 28.4199 933.302 25.7061 933.302 22.3975C933.302 18.583 932.427 15.582 930.677 13.3945C928.913 11.207 926.562 10.1133 923.622 10.1133C922.269 10.1133 921.065 10.4141 920.013 11.0156C918.96 11.6035 918.105 12.4238 917.449 13.4766V2.8125H911.522ZM927.272 21.9668C927.272 24.0312 926.862 25.6787 926.042 26.9092C925.235 28.1533 924.005 28.7754 922.351 28.7754C920.696 28.7754 919.438 28.1602 918.577 26.9297C917.716 25.6992 917.285 24.1064 917.285 22.1514C917.285 19.417 917.976 17.4619 919.356 16.2861C920.204 15.5752 921.188 15.2197 922.31 15.2197C924.019 15.2197 925.276 15.8691 926.083 17.168C926.876 18.4531 927.272 20.0527 927.272 21.9668ZM887.549 13.4766C885.662 15.8418 884.719 18.6377 884.719 21.8643C884.719 25.1455 885.662 27.9551 887.549 30.293C889.436 32.6172 892.3 33.7793 896.142 33.7793C899.983 33.7793 902.848 32.6172 904.734 30.293C906.621 27.9551 907.564 25.1455 907.564 21.8643C907.564 18.6377 906.621 15.8418 904.734 13.4766C902.848 11.1113 899.983 9.92871 896.142 9.92871C892.3 9.92871 889.436 11.1113 887.549 13.4766ZM896.162 14.8711C897.871 14.8711 899.19 15.4795 900.12 16.6963C901.036 17.8994 901.494 19.6221 901.494 21.8643C901.494 24.1064 901.036 25.8359 900.12 27.0527C899.19 28.2695 897.871 28.8779 896.162 28.8779C894.453 28.8779 893.141 28.2695 892.225 27.0527C891.309 25.8359 890.851 24.1064 890.851 21.8643C890.851 19.6221 891.309 17.8994 892.225 16.6963C893.141 15.4795 894.453 14.8711 896.162 14.8711ZM861.381 26.4375C861.531 27.7637 862.222 29.1104 863.452 30.4775C865.366 32.6514 868.046 33.7383 871.491 33.7383C874.335 33.7383 876.844 32.8223 879.018 30.9902C881.191 29.1582 882.278 26.1777 882.278 22.0488C882.278 18.1797 881.301 15.2129 879.346 13.1484C877.377 11.084 874.827 10.0518 871.696 10.0518C869.837 10.0518 868.162 10.4004 866.672 11.0977C865.182 11.7949 863.951 12.8955 862.98 14.3994C862.105 15.7256 861.538 17.2637 861.278 19.0137C861.128 20.0391 861.066 21.5156 861.094 23.4434H876.393C876.311 25.6855 875.606 27.2578 874.28 28.1602C873.474 28.7207 872.503 29.001 871.368 29.001C870.165 29.001 869.188 28.6592 868.436 27.9756C868.025 27.6064 867.663 27.0938 867.349 26.4375H861.381ZM867.164 19.5879C867.26 18.043 867.731 16.874 868.579 16.0811C869.413 15.2744 870.452 14.8711 871.696 14.8711C873.05 14.8711 874.103 15.2949 874.854 16.1426C875.593 16.9902 876.058 18.1387 876.249 19.5879H867.164ZM841.734 11.6719C839.984 12.793 838.979 14.7207 838.72 17.4551H844.564C844.646 16.7031 844.858 16.1084 845.2 15.6709C845.843 14.8779 846.937 14.4814 848.481 14.4814C849.753 14.4814 850.662 14.6797 851.209 15.0762C851.742 15.4727 852.009 15.9375 852.009 16.4707C852.009 17.1406 851.722 17.626 851.147 17.9268C850.573 18.2412 848.543 18.7812 845.057 19.5469C842.732 20.0938 840.989 20.9209 839.827 22.0283C838.679 23.1494 838.104 24.5508 838.104 26.2324C838.104 28.4473 838.932 30.2588 840.586 31.667C842.227 33.0615 844.77 33.7588 848.215 33.7588C851.729 33.7588 854.326 33.0205 856.008 31.5439C857.676 30.0537 858.51 28.1602 858.51 25.8633H852.583C852.46 26.9023 852.193 27.6406 851.783 28.0781C851.059 28.8574 849.719 29.2471 847.764 29.2471C846.615 29.2471 845.706 29.0762 845.036 28.7344C844.353 28.3926 844.011 27.8799 844.011 27.1963C844.011 26.54 844.284 26.041 844.831 25.6992C845.378 25.3574 847.408 24.7695 850.922 23.9355C853.451 23.3066 855.235 22.5205 856.274 21.5771C857.313 20.6475 857.833 19.3076 857.833 17.5576C857.833 15.4932 857.026 13.7227 855.413 12.2461C853.786 10.7559 851.503 10.0107 848.563 10.0107C845.774 10.0107 843.498 10.5645 841.734 11.6719ZM815.771 19.9775C818.383 19.2119 820.229 18.1455 821.309 16.7783C822.375 15.4111 822.908 13.7637 822.908 11.8359C822.908 10.5645 822.703 9.40918 822.293 8.37012C821.869 7.33105 821.281 6.43555 820.529 5.68359C819.559 4.71289 818.479 4.04297 817.289 3.67383C816.564 3.44141 815.505 3.27051 814.11 3.16113V0.433594H812.162V3.20215C809.934 3.37988 808.184 3.92676 806.912 4.84277C804.602 6.30566 803.405 8.67773 803.323 11.959H808.717C808.826 10.7422 809.031 9.85352 809.332 9.29297C809.852 8.32227 810.795 7.78906 812.162 7.69336V15.5068C808.908 16.6279 806.721 17.6191 805.6 18.4805C803.754 19.916 802.831 21.9395 802.831 24.5508C802.831 27.9961 804.096 30.498 806.625 32.0566C808.17 33.0137 810.002 33.5742 812.121 33.7383V37.8604H814.11V33.7793C816.804 33.4785 818.813 32.8906 820.14 32.0156C822.478 30.4434 823.626 27.7637 823.585 23.9766H818.048C817.856 25.6992 817.59 26.8545 817.248 27.4424C816.715 28.3584 815.669 28.9531 814.11 29.2266V20.4697L815.771 19.9775ZM812.162 21.1465V29.165C811.082 29.0283 810.296 28.7822 809.804 28.4268C808.942 27.7979 808.512 26.7109 808.512 25.166C808.512 23.9902 808.915 23.0605 809.722 22.377C810.2 21.9805 811.014 21.5703 812.162 21.1465ZM814.11 14.9326V7.73438C815.3 7.76172 816.182 8.08301 816.756 8.69824C817.33 9.2998 817.617 10.127 817.617 11.1797C817.617 12.3281 817.187 13.2373 816.325 13.9072C815.847 14.2764 815.108 14.6182 814.11 14.9326ZM776.786 8.12402H791.941V15.0762H778.673V20.3262H791.941V33H798.217V2.8125H776.786V8.12402ZM767.004 10.6465V33H772.931V10.6465H767.004ZM767.004 2.58691V7.98047H772.931V2.58691H767.004ZM750.803 14.9736C752.785 14.9736 754.146 15.8145 754.884 17.4961C755.267 18.3848 755.458 19.5195 755.458 20.9004V33H761.282V10.6875H755.643V13.9482C754.891 12.7998 754.18 11.9727 753.51 11.4668C752.307 10.5645 750.782 10.1133 748.937 10.1133C746.626 10.1133 744.739 10.7217 743.276 11.9385C741.8 13.1416 741.062 15.1445 741.062 17.9473V33H747.05V19.4033C747.05 18.2275 747.207 17.3252 747.521 16.6963C748.096 15.5479 749.189 14.9736 750.803 14.9736ZM716.514 26.4375C716.664 27.7637 717.354 29.1104 718.585 30.4775C720.499 32.6514 723.179 33.7383 726.624 33.7383C729.468 33.7383 731.977 32.8223 734.15 30.9902C736.324 29.1582 737.411 26.1777 737.411 22.0488C737.411 18.1797 736.434 15.2129 734.479 13.1484C732.51 11.084 729.96 10.0518 726.829 10.0518C724.97 10.0518 723.295 10.4004 721.805 11.0977C720.314 11.7949 719.084 12.8955 718.113 14.3994C717.238 15.7256 716.671 17.2637 716.411 19.0137C716.261 20.0391 716.199 21.5156 716.227 23.4434H731.525C731.443 25.6855 730.739 27.2578 729.413 28.1602C728.606 28.7207 727.636 29.001 726.501 29.001C725.298 29.001 724.32 28.6592 723.568 27.9756C723.158 27.6064 722.796 27.0938 722.481 26.4375H716.514ZM722.297 19.5879C722.393 18.043 722.864 16.874 723.712 16.0811C724.546 15.2744 725.585 14.8711 726.829 14.8711C728.183 14.8711 729.235 15.2949 729.987 16.1426C730.726 16.9902 731.19 18.1387 731.382 19.5879H722.297ZM680.235 2.8125V33H685.916V29.9033C686.75 31.2295 687.7 32.1934 688.767 32.7949C689.833 33.3965 691.159 33.6973 692.745 33.6973C695.356 33.6973 697.558 32.6445 699.349 30.5391C701.126 28.4199 702.015 25.7061 702.015 22.3975C702.015 18.583 701.14 15.582 699.39 13.3945C697.626 11.207 695.274 10.1133 692.335 10.1133C690.981 10.1133 689.778 10.4141 688.726 11.0156C687.673 11.6035 686.818 12.4238 686.162 13.4766V2.8125H680.235ZM695.985 21.9668C695.985 24.0312 695.575 25.6787 694.755 26.9092C693.948 28.1533 692.718 28.7754 691.063 28.7754C689.409 28.7754 688.151 28.1602 687.29 26.9297C686.429 25.6992 685.998 24.1064 685.998 22.1514C685.998 19.417 686.688 17.4619 688.069 16.2861C688.917 15.5752 689.901 15.2197 691.022 15.2197C692.731 15.2197 693.989 15.8691 694.796 17.168C695.589 18.4531 695.985 20.0527 695.985 21.9668ZM668.895 10.6465V33H674.821V10.6465H668.895ZM668.895 2.58691V7.98047H674.821V2.58691H668.895ZM652.734 2.58691V7.34473C653.062 7.30371 653.616 7.27637 654.396 7.2627C655.161 7.23535 655.694 7.40625 655.995 7.77539C656.282 8.13086 656.426 8.52734 656.426 8.96484V10.8516H652.591V14.9736H656.426V33H662.25V14.9736H665.511V10.8516H662.312V9.41602C662.312 7.02344 661.908 5.37598 661.102 4.47363C660.254 3.13379 658.21 2.46387 654.97 2.46387C654.601 2.46387 654.266 2.47754 653.965 2.50488C653.664 2.51855 653.254 2.5459 652.734 2.58691ZM638.748 2.58691V7.34473C639.076 7.30371 639.63 7.27637 640.409 7.2627C641.175 7.23535 641.708 7.40625 642.009 7.77539C642.296 8.13086 642.439 8.52734 642.439 8.96484V10.8516H638.604V14.9736H642.439V33H648.264V14.9736H651.524V10.8516H648.325V9.41602C648.325 7.02344 647.922 5.37598 647.115 4.47363C646.268 3.13379 644.224 2.46387 640.983 2.46387C640.614 2.46387 640.279 2.47754 639.979 2.50488C639.678 2.51855 639.268 2.5459 638.748 2.58691ZM616.107 26.4375C616.258 27.7637 616.948 29.1104 618.179 30.4775C620.093 32.6514 622.772 33.7383 626.218 33.7383C629.062 33.7383 631.57 32.8223 633.744 30.9902C635.918 29.1582 637.005 26.1777 637.005 22.0488C637.005 18.1797 636.027 15.2129 634.072 13.1484C632.104 11.084 629.554 10.0518 626.423 10.0518C624.563 10.0518 622.889 10.4004 621.398 11.0977C619.908 11.7949 618.678 12.8955 617.707 14.3994C616.832 15.7256 616.265 17.2637 616.005 19.0137C615.854 20.0391 615.793 21.5156 615.82 23.4434H631.119C631.037 25.6855 630.333 27.2578 629.007 28.1602C628.2 28.7207 627.229 29.001 626.095 29.001C624.892 29.001 623.914 28.6592 623.162 27.9756C622.752 27.6064 622.39 27.0938 622.075 26.4375H616.107ZM621.891 19.5879C621.986 18.043 622.458 16.874 623.306 16.0811C624.14 15.2744 625.179 14.8711 626.423 14.8711C627.776 14.8711 628.829 15.2949 629.581 16.1426C630.319 16.9902 630.784 18.1387 630.976 19.5879H621.891ZM600.624 16.04C602.976 16.04 604.555 16.8057 605.361 18.3369C605.812 19.1982 606.038 20.5244 606.038 22.3154V33H611.924V10.6465H606.346V14.543C605.443 13.0527 604.657 12.0342 603.987 11.4873C602.894 10.5713 601.472 10.1133 599.722 10.1133C599.612 10.1133 599.523 10.1201 599.455 10.1338C599.373 10.1338 599.202 10.1406 598.942 10.1543V16.1426C599.312 16.1016 599.64 16.0742 599.927 16.0605C600.214 16.0469 600.446 16.04 600.624 16.04ZM573.328 2.58691V7.34473C573.656 7.30371 574.21 7.27637 574.989 7.2627C575.755 7.23535 576.288 7.40625 576.589 7.77539C576.876 8.13086 577.02 8.52734 577.02 8.96484V10.8516H573.185V14.9736H577.02V33H582.844V14.9736H586.104V10.8516H582.905V9.41602C582.905 7.02344 582.502 5.37598 581.695 4.47363C580.848 3.13379 578.804 2.46387 575.563 2.46387C575.194 2.46387 574.859 2.47754 574.559 2.50488C574.258 2.51855 573.848 2.5459 573.328 2.58691ZM558.583 16.04C560.935 16.04 562.514 16.8057 563.32 18.3369C563.771 19.1982 563.997 20.5244 563.997 22.3154V33H569.883V10.6465H564.305V14.543C563.402 13.0527 562.616 12.0342 561.946 11.4873C560.853 10.5713 559.431 10.1133 557.681 10.1133C557.571 10.1133 557.482 10.1201 557.414 10.1338C557.332 10.1338 557.161 10.1406 556.901 10.1543V16.1426C557.271 16.1016 557.599 16.0742 557.886 16.0605C558.173 16.0469 558.405 16.04 558.583 16.04ZM534.814 13.4766C532.928 15.8418 531.984 18.6377 531.984 21.8643C531.984 25.1455 532.928 27.9551 534.814 30.293C536.701 32.6172 539.565 33.7793 543.407 33.7793C547.249 33.7793 550.113 32.6172 552 30.293C553.887 27.9551 554.83 25.1455 554.83 21.8643C554.83 18.6377 553.887 15.8418 552 13.4766C550.113 11.1113 547.249 9.92871 543.407 9.92871C539.565 9.92871 536.701 11.1113 534.814 13.4766ZM543.428 14.8711C545.137 14.8711 546.456 15.4795 547.386 16.6963C548.302 17.8994 548.76 19.6221 548.76 21.8643C548.76 24.1064 548.302 25.8359 547.386 27.0527C546.456 28.2695 545.137 28.8779 543.428 28.8779C541.719 28.8779 540.406 28.2695 539.49 27.0527C538.574 25.8359 538.116 24.1064 538.116 21.8643C538.116 19.6221 538.574 17.8994 539.49 16.6963C540.406 15.4795 541.719 14.8711 543.428 14.8711ZM515.229 16.7988C515.722 15.7188 516.686 15.1787 518.121 15.1787C519.789 15.1787 520.91 15.7188 521.484 16.7988C521.799 17.4141 521.956 18.3301 521.956 19.5469V33H527.883V10.6875H522.202V13.9482C521.478 12.7861 520.794 11.959 520.151 11.4668C519.017 10.5918 517.547 10.1543 515.742 10.1543C514.033 10.1543 512.652 10.5303 511.6 11.2822C510.752 11.9795 510.109 12.875 509.672 13.9688C508.906 12.6562 507.956 11.6924 506.821 11.0771C505.618 10.4619 504.278 10.1543 502.802 10.1543C501.817 10.1543 500.847 10.3457 499.89 10.7285C498.933 11.1113 498.064 11.7812 497.285 12.7383C496.656 13.5176 496.232 14.4746 496.014 15.6094C495.877 16.3613 495.809 17.4619 495.809 18.9111L495.85 33H501.838V18.7676C501.838 17.9199 501.975 17.2227 502.248 16.6758C502.768 15.6367 503.725 15.1172 505.119 15.1172C506.732 15.1172 507.847 15.7871 508.462 17.127C508.776 17.8379 508.934 18.6924 508.934 19.6904V33H514.819V19.6904C514.819 18.3643 514.956 17.4004 515.229 16.7988ZM460.084 13.4766C458.197 15.8418 457.254 18.6377 457.254 21.8643C457.254 25.1455 458.197 27.9551 460.084 30.293C461.971 32.6172 464.835 33.7793 468.677 33.7793C472.519 33.7793 475.383 32.6172 477.27 30.293C479.156 27.9551 480.1 25.1455 480.1 21.8643C480.1 18.6377 479.156 15.8418 477.27 13.4766C475.383 11.1113 472.519 9.92871 468.677 9.92871C464.835 9.92871 461.971 11.1113 460.084 13.4766ZM468.697 14.8711C470.406 14.8711 471.726 15.4795 472.655 16.6963C473.571 17.8994 474.029 19.6221 474.029 21.8643C474.029 24.1064 473.571 25.8359 472.655 27.0527C471.726 28.2695 470.406 28.8779 468.697 28.8779C466.988 28.8779 465.676 28.2695 464.76 27.0527C463.844 25.8359 463.386 24.1064 463.386 21.8643C463.386 19.6221 463.844 17.8994 464.76 16.6963C465.676 15.4795 466.988 14.8711 468.697 14.8711ZM442.816 28.8369V33.2051L445.585 33.3076C448.347 33.4033 450.233 32.9248 451.245 31.8721C451.901 31.2021 452.229 30.1699 452.229 28.7754V15.0146H455.347V10.8516H452.229V4.61719H446.446V10.8516H442.816V15.0146H446.446V26.8271C446.446 27.7432 446.33 28.3174 446.098 28.5498C445.865 28.7686 445.154 28.8779 443.965 28.8779C443.787 28.8779 443.603 28.8779 443.411 28.8779C443.206 28.8643 443.008 28.8506 442.816 28.8369ZM418.863 19.875V33H424.831V19.4033C424.831 18.2002 425.036 17.2295 425.446 16.4912C425.979 15.4521 426.991 14.9326 428.481 14.9326C430.026 14.9326 431.202 15.4521 432.009 16.4912C432.802 17.5166 433.198 18.9863 433.198 20.9004V33H439.022V2.87402H433.198V13.5586C432.351 12.2598 431.373 11.3574 430.266 10.8516C429.145 10.332 427.969 10.0723 426.738 10.0723C425.357 10.0723 424.106 10.3115 422.985 10.79C421.851 11.2686 420.921 12 420.196 12.9844C419.581 13.8184 419.205 14.6797 419.068 15.5684C418.932 16.4434 418.863 17.8789 418.863 19.875ZM394.254 26.4375C394.404 27.7637 395.095 29.1104 396.325 30.4775C398.239 32.6514 400.919 33.7383 404.364 33.7383C407.208 33.7383 409.717 32.8223 411.891 30.9902C414.064 29.1582 415.151 26.1777 415.151 22.0488C415.151 18.1797 414.174 15.2129 412.219 13.1484C410.25 11.084 407.7 10.0518 404.569 10.0518C402.71 10.0518 401.035 10.4004 399.545 11.0977C398.055 11.7949 396.824 12.8955 395.854 14.3994C394.979 15.7256 394.411 17.2637 394.151 19.0137C394.001 20.0391 393.939 21.5156 393.967 23.4434H409.266C409.184 25.6855 408.479 27.2578 407.153 28.1602C406.347 28.7207 405.376 29.001 404.241 29.001C403.038 29.001 402.061 28.6592 401.309 27.9756C400.898 27.6064 400.536 27.0938 400.222 26.4375H394.254ZM400.037 19.5879C400.133 18.043 400.604 16.874 401.452 16.0811C402.286 15.2744 403.325 14.8711 404.569 14.8711C405.923 14.8711 406.976 15.2949 407.728 16.1426C408.466 16.9902 408.931 18.1387 409.122 19.5879H400.037ZM378.771 16.04C381.122 16.04 382.701 16.8057 383.508 18.3369C383.959 19.1982 384.185 20.5244 384.185 22.3154V33H390.07V10.6465H384.492V14.543C383.59 13.0527 382.804 12.0342 382.134 11.4873C381.04 10.5713 379.618 10.1133 377.868 10.1133C377.759 10.1133 377.67 10.1201 377.602 10.1338C377.52 10.1338 377.349 10.1406 377.089 10.1543V16.1426C377.458 16.1016 377.786 16.0742 378.073 16.0605C378.36 16.0469 378.593 16.04 378.771 16.04ZM342.615 18.665H348.604C348.713 17.8311 348.993 17.0791 349.444 16.4092C350.101 15.5068 351.119 15.0557 352.5 15.0557C354.469 15.0557 355.815 16.0332 356.54 17.9883C356.923 19.0273 357.114 20.4082 357.114 22.1309C357.114 23.7715 356.923 25.0908 356.54 26.0889C355.843 27.9482 354.53 28.8779 352.603 28.8779C351.235 28.8779 350.265 28.5088 349.69 27.7705C349.116 27.0322 348.768 26.0752 348.645 24.8994H342.677C342.813 26.6768 343.456 28.3584 344.604 29.9443C346.437 32.501 349.15 33.7793 352.746 33.7793C356.342 33.7793 358.987 32.7129 360.683 30.5801C362.378 28.4473 363.226 25.6787 363.226 22.2744C363.226 18.4326 362.289 15.4453 360.416 13.3125C358.543 11.1797 355.959 10.1133 352.664 10.1133C349.861 10.1133 347.571 10.7422 345.794 12C344.003 13.2578 342.943 15.4795 342.615 18.665ZM327.337 16.04C329.688 16.04 331.268 16.8057 332.074 18.3369C332.525 19.1982 332.751 20.5244 332.751 22.3154V33H338.637V10.6465H333.059V14.543C332.156 13.0527 331.37 12.0342 330.7 11.4873C329.606 10.5713 328.185 10.1133 326.435 10.1133C326.325 10.1133 326.236 10.1201 326.168 10.1338C326.086 10.1338 325.915 10.1406 325.655 10.1543V16.1426C326.024 16.1016 326.353 16.0742 326.64 16.0605C326.927 16.0469 327.159 16.04 327.337 16.04ZM313.125 27.1348L308.511 10.6465H302.297L309.967 32.6309C311.443 36.8691 312.612 39.4941 313.474 40.5059C314.335 41.5312 316.058 42.0439 318.642 42.0439C319.161 42.0439 319.578 42.0371 319.893 42.0234C320.207 42.0234 320.679 42.0029 321.308 41.9619V37.2861L320.569 37.3271C319.995 37.3545 319.448 37.334 318.929 37.2656C318.409 37.1973 317.972 37.04 317.616 36.7939C317.274 36.5615 316.96 36.0762 316.673 35.3379C316.372 34.5996 316.249 34.1484 316.304 33.9844L324.507 10.6465H318.006L313.125 27.1348ZM280.107 13.0459C278.303 14.9736 277.4 17.8037 277.4 21.5361C277.4 25.4736 278.289 28.4746 280.066 30.5391C281.83 32.6035 284.106 33.6357 286.896 33.6357C288.673 33.6357 290.149 33.1914 291.325 32.3027C291.968 31.8105 292.597 31.0928 293.212 30.1494V41.7979H298.995V10.6465H293.396V13.9482C292.768 12.9775 292.098 12.2119 291.387 11.6514C290.088 10.6533 288.543 10.1543 286.752 10.1543C284.141 10.1543 281.926 11.1182 280.107 13.0459ZM283.43 21.8232C283.43 20.1006 283.826 18.5762 284.619 17.25C285.398 15.9238 286.67 15.2607 288.434 15.2607C290.553 15.2607 292.009 16.2656 292.802 18.2754C293.212 19.3418 293.417 20.6953 293.417 22.3359C293.417 24.9336 292.727 26.7588 291.346 27.8115C290.525 28.4268 289.555 28.7344 288.434 28.7344C286.807 28.7344 285.569 28.1055 284.722 26.8477C283.86 25.5898 283.43 23.915 283.43 21.8232ZM262.922 28.8369V33.2051L265.69 33.3076C268.452 33.4033 270.339 32.9248 271.351 31.8721C272.007 31.2021 272.335 30.1699 272.335 28.7754V15.0146H275.452V10.8516H272.335V4.61719H266.552V10.8516H262.922V15.0146H266.552V26.8271C266.552 27.7432 266.436 28.3174 266.203 28.5498C265.971 28.7686 265.26 28.8779 264.07 28.8779C263.893 28.8779 263.708 28.8779 263.517 28.8779C263.312 28.8643 263.113 28.8506 262.922 28.8369ZM240.527 13.4766C238.641 15.8418 237.697 18.6377 237.697 21.8643C237.697 25.1455 238.641 27.9551 240.527 30.293C242.414 32.6172 245.278 33.7793 249.12 33.7793C252.962 33.7793 255.826 32.6172 257.713 30.293C259.6 27.9551 260.543 25.1455 260.543 21.8643C260.543 18.6377 259.6 15.8418 257.713 13.4766C255.826 11.1113 252.962 9.92871 249.12 9.92871C245.278 9.92871 242.414 11.1113 240.527 13.4766ZM249.141 14.8711C250.85 14.8711 252.169 15.4795 253.099 16.6963C254.015 17.8994 254.473 19.6221 254.473 21.8643C254.473 24.1064 254.015 25.8359 253.099 27.0527C252.169 28.2695 250.85 28.8779 249.141 28.8779C247.432 28.8779 246.119 28.2695 245.203 27.0527C244.287 25.8359 243.829 24.1064 243.829 21.8643C243.829 19.6221 244.287 17.8994 245.203 16.6963C246.119 15.4795 247.432 14.8711 249.141 14.8711ZM214.154 18.665H220.143C220.252 17.8311 220.532 17.0791 220.983 16.4092C221.64 15.5068 222.658 15.0557 224.039 15.0557C226.008 15.0557 227.354 16.0332 228.079 17.9883C228.462 19.0273 228.653 20.4082 228.653 22.1309C228.653 23.7715 228.462 25.0908 228.079 26.0889C227.382 27.9482 226.069 28.8779 224.142 28.8779C222.774 28.8779 221.804 28.5088 221.229 27.7705C220.655 27.0322 220.307 26.0752 220.184 24.8994H214.216C214.353 26.6768 214.995 28.3584 216.144 29.9443C217.976 32.501 220.689 33.7793 224.285 33.7793C227.881 33.7793 230.526 32.7129 232.222 30.5801C233.917 28.4473 234.765 25.6787 234.765 22.2744C234.765 18.4326 233.828 15.4453 231.955 13.3125C230.082 11.1797 227.498 10.1133 224.203 10.1133C221.4 10.1133 219.11 10.7422 217.333 12C215.542 13.2578 214.482 15.4795 214.154 18.665ZM195.779 29.8418C195.834 29.9102 195.971 30.1152 196.189 30.457C196.408 30.7988 196.668 31.0996 196.969 31.3594C197.885 32.1797 198.773 32.7402 199.635 33.041C200.482 33.3418 201.48 33.4922 202.629 33.4922C205.938 33.4922 208.166 32.3027 209.314 29.9238C209.957 28.6113 210.278 26.6768 210.278 24.1201V10.6465H204.29V24.1201C204.29 25.3916 204.14 26.3486 203.839 26.9912C203.306 28.126 202.26 28.6934 200.701 28.6934C198.705 28.6934 197.338 27.8867 196.6 26.2734C196.217 25.3984 196.025 24.2432 196.025 22.8076V10.6465H190.099V33H195.779V29.8418ZM173.2 16.04C175.552 16.04 177.131 16.8057 177.938 18.3369C178.389 19.1982 178.614 20.5244 178.614 22.3154V33H184.5V10.6465H178.922V14.543C178.02 13.0527 177.233 12.0342 176.563 11.4873C175.47 10.5713 174.048 10.1133 172.298 10.1133C172.188 10.1133 172.1 10.1201 172.031 10.1338C171.949 10.1338 171.778 10.1406 171.519 10.1543V16.1426C171.888 16.1016 172.216 16.0742 172.503 16.0605C172.79 16.0469 173.022 16.04 173.2 16.04ZM156.835 16.04C159.187 16.04 160.766 16.8057 161.572 18.3369C162.023 19.1982 162.249 20.5244 162.249 22.3154V33H168.135V10.6465H162.557V14.543C161.654 13.0527 160.868 12.0342 160.198 11.4873C159.104 10.5713 157.683 10.1133 155.933 10.1133C155.823 10.1133 155.734 10.1201 155.666 10.1338C155.584 10.1338 155.413 10.1406 155.153 10.1543V16.1426C155.522 16.1016 155.851 16.0742 156.138 16.0605C156.425 16.0469 156.657 16.04 156.835 16.04ZM132.574 26.4375C132.725 27.7637 133.415 29.1104 134.646 30.4775C136.56 32.6514 139.239 33.7383 142.685 33.7383C145.528 33.7383 148.037 32.8223 150.211 30.9902C152.385 29.1582 153.472 26.1777 153.472 22.0488C153.472 18.1797 152.494 15.2129 150.539 13.1484C148.57 11.084 146.021 10.0518 142.89 10.0518C141.03 10.0518 139.355 10.4004 137.865 11.0977C136.375 11.7949 135.145 12.8955 134.174 14.3994C133.299 15.7256 132.731 17.2637 132.472 19.0137C132.321 20.0391 132.26 21.5156 132.287 23.4434H147.586C147.504 25.6855 146.8 27.2578 145.474 28.1602C144.667 28.7207 143.696 29.001 142.562 29.001C141.358 29.001 140.381 28.6592 139.629 27.9756C139.219 27.6064 138.856 27.0938 138.542 26.4375H132.574ZM138.357 19.5879C138.453 18.043 138.925 16.874 139.772 16.0811C140.606 15.2744 141.646 14.8711 142.89 14.8711C144.243 14.8711 145.296 15.2949 146.048 16.1426C146.786 16.9902 147.251 18.1387 147.442 19.5879H138.357ZM117.809 14.9736C119.791 14.9736 121.151 15.8145 121.89 17.4961C122.272 18.3848 122.464 19.5195 122.464 20.9004V33H128.288V10.6875H122.648V13.9482C121.896 12.7998 121.186 11.9727 120.516 11.4668C119.312 10.5645 117.788 10.1133 115.942 10.1133C113.632 10.1133 111.745 10.7217 110.282 11.9385C108.806 13.1416 108.067 15.1445 108.067 17.9473V33H114.056V19.4033C114.056 18.2275 114.213 17.3252 114.527 16.6963C115.102 15.5479 116.195 14.9736 117.809 14.9736ZM83.3145 18.665H89.3027C89.4121 17.8311 89.6924 17.0791 90.1436 16.4092C90.7998 15.5068 91.8184 15.0557 93.1992 15.0557C95.168 15.0557 96.5146 16.0332 97.2393 17.9883C97.6221 19.0273 97.8135 20.4082 97.8135 22.1309C97.8135 23.7715 97.6221 25.0908 97.2393 26.0889C96.542 27.9482 95.2295 28.8779 93.3018 28.8779C91.9346 28.8779 90.9639 28.5088 90.3896 27.7705C89.8154 27.0322 89.4668 26.0752 89.3438 24.8994H83.376C83.5127 26.6768 84.1553 28.3584 85.3037 29.9443C87.1357 32.501 89.8496 33.7793 93.4453 33.7793C97.041 33.7793 99.6865 32.7129 101.382 30.5801C103.077 28.4473 103.925 25.6787 103.925 22.2744C103.925 18.4326 102.988 15.4453 101.115 13.3125C99.2422 11.1797 96.6582 10.1133 93.3633 10.1133C90.5605 10.1133 88.2705 10.7422 86.4932 12C84.7021 13.2578 83.6426 15.4795 83.3145 18.665ZM73.2656 10.6465V33H79.1924V10.6465H73.2656ZM73.2656 2.58691V7.98047H79.1924V2.58691H73.2656ZM48.4512 26.4375C48.6016 27.7637 49.292 29.1104 50.5225 30.4775C52.4365 32.6514 55.1162 33.7383 58.5615 33.7383C61.4053 33.7383 63.9141 32.8223 66.0879 30.9902C68.2617 29.1582 69.3486 26.1777 69.3486 22.0488C69.3486 18.1797 68.3711 15.2129 66.416 13.1484C64.4473 11.084 61.8975 10.0518 58.7666 10.0518C56.9072 10.0518 55.2324 10.4004 53.7422 11.0977C52.252 11.7949 51.0215 12.8955 50.0508 14.3994C49.1758 15.7256 48.6084 17.2637 48.3486 19.0137C48.1982 20.0391 48.1367 21.5156 48.1641 23.4434H63.4629C63.3809 25.6855 62.6768 27.2578 61.3506 28.1602C60.5439 28.7207 59.5732 29.001 58.4385 29.001C57.2354 29.001 56.2578 28.6592 55.5059 27.9756C55.0957 27.6064 54.7334 27.0938 54.4189 26.4375H48.4512ZM54.2344 19.5879C54.3301 18.043 54.8018 16.874 55.6494 16.0811C56.4834 15.2744 57.5225 14.8711 58.7666 14.8711C60.1201 14.8711 61.1729 15.2949 61.9248 16.1426C62.6631 16.9902 63.1279 18.1387 63.3193 19.5879H54.2344ZM28.8047 11.6719C27.0547 12.793 26.0498 14.7207 25.79 17.4551H31.6348C31.7168 16.7031 31.9287 16.1084 32.2705 15.6709C32.9131 14.8779 34.0068 14.4814 35.5518 14.4814C36.8232 14.4814 37.7324 14.6797 38.2793 15.0762C38.8125 15.4727 39.0791 15.9375 39.0791 16.4707C39.0791 17.1406 38.792 17.626 38.2178 17.9268C37.6436 18.2412 35.6133 18.7812 32.127 19.5469C29.8027 20.0938 28.0596 20.9209 26.8975 22.0283C25.749 23.1494 25.1748 24.5508 25.1748 26.2324C25.1748 28.4473 26.002 30.2588 27.6562 31.667C29.2969 33.0615 31.8398 33.7588 35.2852 33.7588C38.7988 33.7588 41.3965 33.0205 43.0781 31.5439C44.7461 30.0537 45.5801 28.1602 45.5801 25.8633H39.6533C39.5303 26.9023 39.2637 27.6406 38.8535 28.0781C38.1289 28.8574 36.7891 29.2471 34.834 29.2471C33.6855 29.2471 32.7764 29.0762 32.1064 28.7344C31.4229 28.3926 31.0811 27.8799 31.0811 27.1963C31.0811 26.54 31.3545 26.041 31.9014 25.6992C32.4482 25.3574 34.4785 24.7695 37.9922 23.9355C40.5215 23.3066 42.3057 22.5205 43.3447 21.5771C44.3838 20.6475 44.9033 19.3076 44.9033 17.5576C44.9033 15.4932 44.0967 13.7227 42.4834 12.2461C40.8564 10.7559 38.5732 10.0107 35.6338 10.0107C32.8447 10.0107 30.5684 10.5645 28.8047 11.6719ZM7.59961 21.8438C7.76367 22.3633 7.85254 23.1699 7.86621 24.2637H13.4033C13.3213 21.9531 13.1025 20.3604 12.7471 19.4854C12.3916 18.5967 11.4756 17.5781 9.99902 16.4297L8.50195 15.2607C8.00977 14.8916 7.61328 14.4883 7.3125 14.0508C6.76562 13.2988 6.49219 12.4717 6.49219 11.5693C6.49219 10.5303 6.7998 9.58691 7.41504 8.73926C8.0166 7.87793 9.12402 7.44727 10.7373 7.44727C12.3232 7.44727 13.4512 7.97363 14.1211 9.02637C14.7773 10.0791 15.1055 11.1729 15.1055 12.3076H21.0322C20.8682 8.41113 19.5078 5.64941 16.9512 4.02246C15.3379 2.9834 13.3555 2.46387 11.0039 2.46387C7.91406 2.46387 5.35059 3.20215 3.31348 4.67871C1.2627 6.15527 0.237305 8.34277 0.237305 11.2412C0.237305 13.0186 0.681641 14.5156 1.57031 15.7324C2.08984 16.4707 3.08789 17.4141 4.56445 18.5625L6.02051 19.6904C6.81348 20.3057 7.33984 21.0234 7.59961 21.8438ZM7.43555 33H13.5469V27.0732H7.43555V33Z" fill="black"/>
</svg>
