<svg width="691" height="43" viewBox="0 0 691 43" fill="none" xmlns="http://www.w3.org/2000/svg">
<path d="M672.774 33V19.5059H684.587V33H690.842V2.77148H684.587V14.2969H672.774V2.77148H666.499V33H672.774ZM642.279 13.4766C640.393 15.8418 639.449 18.6377 639.449 21.8643C639.449 25.1455 640.393 27.9551 642.279 30.293C644.166 32.6172 647.03 33.7793 650.872 33.7793C654.714 33.7793 657.578 32.6172 659.465 30.293C661.352 27.9551 662.295 25.1455 662.295 21.8643C662.295 18.6377 661.352 15.8418 659.465 13.4766C657.578 11.1113 654.714 9.92871 650.872 9.92871C647.03 9.92871 644.166 11.1113 642.279 13.4766ZM650.893 14.8711C652.602 14.8711 653.921 15.4795 654.851 16.6963C655.767 17.8994 656.225 19.6221 656.225 21.8643C656.225 24.1064 655.767 25.8359 654.851 27.0527C653.921 28.2695 652.602 28.8779 650.893 28.8779C649.184 28.8779 647.871 28.2695 646.955 27.0527C646.039 25.8359 645.581 24.1064 645.581 21.8643C645.581 19.6221 646.039 17.8994 646.955 16.6963C647.871 15.4795 649.184 14.8711 650.893 14.8711ZM618.285 33L621.792 16.7168L625.34 33H631.41L637.686 10.6465H631.41L627.924 26.6836L624.704 10.6465H618.777L615.373 26.7451L611.887 10.6465H605.796L612.276 33H618.285ZM571.527 18.665H577.516C577.625 17.8311 577.905 17.0791 578.356 16.4092C579.013 15.5068 580.031 15.0557 581.412 15.0557C583.381 15.0557 584.728 16.0332 585.452 17.9883C585.835 19.0273 586.026 20.4082 586.026 22.1309C586.026 23.7715 585.835 25.0908 585.452 26.0889C584.755 27.9482 583.442 28.8779 581.515 28.8779C580.147 28.8779 579.177 28.5088 578.603 27.7705C578.028 27.0322 577.68 26.0752 577.557 24.8994H571.589C571.726 26.6768 572.368 28.3584 573.517 29.9443C575.349 32.501 578.062 33.7793 581.658 33.7793C585.254 33.7793 587.899 32.7129 589.595 30.5801C591.29 28.4473 592.138 25.6787 592.138 22.2744C592.138 18.4326 591.201 15.4453 589.328 13.3125C587.455 11.1797 584.871 10.1133 581.576 10.1133C578.773 10.1133 576.483 10.7422 574.706 12C572.915 13.2578 571.855 15.4795 571.527 18.665ZM566.646 13.0664C565.102 11.0977 562.449 10.1133 558.689 10.1133C556.242 10.1133 554.068 10.5986 552.168 11.5693C550.268 12.54 549.317 14.3721 549.317 17.0654V27.3193C549.317 28.0303 549.304 28.8916 549.276 29.9033C549.235 30.6689 549.119 31.1885 548.928 31.4619C548.736 31.7354 548.449 31.9609 548.066 32.1387V33H554.424C554.602 32.5488 554.725 32.125 554.793 31.7285C554.861 31.332 554.916 30.8809 554.957 30.375C555.764 31.25 556.693 31.9951 557.746 32.6104C559.004 33.335 560.426 33.6973 562.012 33.6973C564.035 33.6973 565.71 33.123 567.036 31.9746C568.349 30.8125 569.005 29.1719 569.005 27.0527C569.005 24.3047 567.945 22.3154 565.826 21.085C564.664 20.415 562.955 19.9365 560.699 19.6494L558.71 19.4033C557.63 19.2666 556.857 19.0957 556.393 18.8906C555.559 18.5352 555.142 17.9814 555.142 17.2295C555.142 16.3135 555.463 15.6846 556.105 15.3428C556.734 14.9873 557.664 14.8096 558.895 14.8096C560.275 14.8096 561.253 15.1514 561.827 15.835C562.237 16.3408 562.511 17.0244 562.647 17.8857H568.287C568.164 15.9307 567.617 14.3242 566.646 13.0664ZM562.299 28.7754C561.752 29.2266 561.082 29.4521 560.289 29.4521C559.031 29.4521 557.876 29.083 556.823 28.3447C555.757 27.6064 555.203 26.2598 555.162 24.3047V22.1309C555.531 22.3633 555.907 22.5547 556.29 22.7051C556.659 22.8418 557.172 22.9717 557.828 23.0947L559.141 23.3408C560.371 23.5596 561.253 23.8262 561.786 24.1406C562.688 24.6738 563.14 25.501 563.14 26.6221C563.14 27.6201 562.859 28.3379 562.299 28.7754ZM533.588 14.9736C535.57 14.9736 536.931 15.8145 537.669 17.4961C538.052 18.3848 538.243 19.5195 538.243 20.9004V33H544.067V10.6875H538.428V13.9482C537.676 12.7998 536.965 11.9727 536.295 11.4668C535.092 10.5645 533.567 10.1133 531.722 10.1133C529.411 10.1133 527.524 10.7217 526.062 11.9385C524.585 13.1416 523.847 15.1445 523.847 17.9473V33H529.835V19.4033C529.835 18.2275 529.992 17.3252 530.307 16.6963C530.881 15.5479 531.975 14.9736 533.588 14.9736ZM506.764 2.77148H500.488V33H506.764V2.77148ZM477.048 36.917C476.419 37.4502 475.359 37.7168 473.869 37.7168C471.764 37.7168 470.355 37.0127 469.645 35.6045C469.18 34.7021 468.947 33.1846 468.947 31.0518V29.6162C469.508 30.5732 470.109 31.291 470.752 31.7695C471.914 32.6582 473.425 33.1025 475.284 33.1025C478.155 33.1025 480.452 32.0977 482.175 30.0879C483.884 28.0645 484.738 25.3301 484.738 21.8848C484.738 18.5625 483.911 15.7734 482.257 13.5176C480.603 11.248 478.258 10.1133 475.223 10.1133C474.102 10.1133 473.124 10.2842 472.29 10.626C470.868 11.2139 469.72 12.2939 468.845 13.8662V10.6465H463.164V31.8516C463.164 34.7363 463.649 36.9102 464.62 38.373C466.288 40.8887 469.487 42.1465 474.218 42.1465C477.075 42.1465 479.406 41.5859 481.211 40.4648C483.016 39.3438 484.014 37.6689 484.205 35.4404H477.848C477.684 36.124 477.417 36.6162 477.048 36.917ZM478.032 25.3711C477.239 27.2578 475.817 28.2012 473.767 28.2012C472.399 28.2012 471.244 27.6885 470.301 26.6631C469.357 25.624 468.886 23.9766 468.886 21.7207C468.886 19.6016 469.337 17.9883 470.239 16.8809C471.128 15.7734 472.324 15.2197 473.828 15.2197C475.879 15.2197 477.294 16.1836 478.073 18.1113C478.483 19.1367 478.688 20.4014 478.688 21.9053C478.688 23.2041 478.47 24.3594 478.032 25.3711ZM438.555 26.4375C438.705 27.7637 439.396 29.1104 440.626 30.4775C442.54 32.6514 445.22 33.7383 448.665 33.7383C451.509 33.7383 454.018 32.8223 456.191 30.9902C458.365 29.1582 459.452 26.1777 459.452 22.0488C459.452 18.1797 458.475 15.2129 456.52 13.1484C454.551 11.084 452.001 10.0518 448.87 10.0518C447.011 10.0518 445.336 10.4004 443.846 11.0977C442.355 11.7949 441.125 12.8955 440.154 14.3994C439.279 15.7256 438.712 17.2637 438.452 19.0137C438.302 20.0391 438.24 21.5156 438.268 23.4434H453.566C453.484 25.6855 452.78 27.2578 451.454 28.1602C450.647 28.7207 449.677 29.001 448.542 29.001C447.339 29.001 446.361 28.6592 445.609 27.9756C445.199 27.6064 444.837 27.0938 444.522 26.4375H438.555ZM444.338 19.5879C444.434 18.043 444.905 16.874 445.753 16.0811C446.587 15.2744 447.626 14.8711 448.87 14.8711C450.224 14.8711 451.276 15.2949 452.028 16.1426C452.767 16.9902 453.231 18.1387 453.423 19.5879H444.338ZM424.076 28.8369V33.2051L426.845 33.3076C429.606 33.4033 431.493 32.9248 432.505 31.8721C433.161 31.2021 433.489 30.1699 433.489 28.7754V15.0146H436.606V10.8516H433.489V4.61719H427.706V10.8516H424.076V15.0146H427.706V26.8271C427.706 27.7432 427.59 28.3174 427.357 28.5498C427.125 28.7686 426.414 28.8779 425.225 28.8779C425.047 28.8779 424.862 28.8779 424.671 28.8779C424.466 28.8643 424.268 28.8506 424.076 28.8369ZM402.625 10.6465V33H408.552V10.6465H402.625ZM402.625 2.58691V7.98047H408.552V2.58691H402.625ZM386.424 14.9736C388.406 14.9736 389.767 15.8145 390.505 17.4961C390.888 18.3848 391.079 19.5195 391.079 20.9004V33H396.903V10.6875H391.264V13.9482C390.512 12.7998 389.801 11.9727 389.131 11.4668C387.928 10.5645 386.403 10.1133 384.558 10.1133C382.247 10.1133 380.36 10.7217 378.897 11.9385C377.421 13.1416 376.683 15.1445 376.683 17.9473V33H382.671V19.4033C382.671 18.2275 382.828 17.3252 383.143 16.6963C383.717 15.5479 384.811 14.9736 386.424 14.9736ZM373.463 10.6465H366.9L362.245 27.1348L357.487 10.6465H351.212L359.271 33H365.444L373.463 10.6465ZM329.248 13.4766C327.361 15.8418 326.418 18.6377 326.418 21.8643C326.418 25.1455 327.361 27.9551 329.248 30.293C331.135 32.6172 333.999 33.7793 337.841 33.7793C341.683 33.7793 344.547 32.6172 346.434 30.293C348.32 27.9551 349.264 25.1455 349.264 21.8643C349.264 18.6377 348.32 15.8418 346.434 13.4766C344.547 11.1113 341.683 9.92871 337.841 9.92871C333.999 9.92871 331.135 11.1113 329.248 13.4766ZM337.861 14.8711C339.57 14.8711 340.89 15.4795 341.819 16.6963C342.735 17.8994 343.193 19.6221 343.193 21.8643C343.193 24.1064 342.735 25.8359 341.819 27.0527C340.89 28.2695 339.57 28.8779 337.861 28.8779C336.152 28.8779 334.84 28.2695 333.924 27.0527C333.008 25.8359 332.55 24.1064 332.55 21.8643C332.55 19.6221 333.008 17.8994 333.924 16.6963C334.84 15.4795 336.152 14.8711 337.861 14.8711ZM322.091 2.77148H316.246V33H322.091V2.77148ZM312.719 10.6465H306.156L301.501 27.1348L296.743 10.6465H290.468L298.527 33H304.7L312.719 10.6465ZM268.012 26.4375C268.162 27.7637 268.853 29.1104 270.083 30.4775C271.997 32.6514 274.677 33.7383 278.122 33.7383C280.966 33.7383 283.475 32.8223 285.648 30.9902C287.822 29.1582 288.909 26.1777 288.909 22.0488C288.909 18.1797 287.932 15.2129 285.977 13.1484C284.008 11.084 281.458 10.0518 278.327 10.0518C276.468 10.0518 274.793 10.4004 273.303 11.0977C271.812 11.7949 270.582 12.8955 269.611 14.3994C268.736 15.7256 268.169 17.2637 267.909 19.0137C267.759 20.0391 267.697 21.5156 267.725 23.4434H283.023C282.941 25.6855 282.237 27.2578 280.911 28.1602C280.104 28.7207 279.134 29.001 277.999 29.001C276.796 29.001 275.818 28.6592 275.066 27.9756C274.656 27.6064 274.294 27.0938 273.979 26.4375H268.012ZM273.795 19.5879C273.891 18.043 274.362 16.874 275.21 16.0811C276.044 15.2744 277.083 14.8711 278.327 14.8711C279.681 14.8711 280.733 15.2949 281.485 16.1426C282.224 16.9902 282.688 18.1387 282.88 19.5879H273.795ZM243.423 2.8125V33H249.104V29.9033C249.938 31.2295 250.888 32.1934 251.954 32.7949C253.021 33.3965 254.347 33.6973 255.933 33.6973C258.544 33.6973 260.745 32.6445 262.536 30.5391C264.313 28.4199 265.202 25.7061 265.202 22.3975C265.202 18.583 264.327 15.582 262.577 13.3945C260.813 11.207 258.462 10.1133 255.522 10.1133C254.169 10.1133 252.966 10.4141 251.913 11.0156C250.86 11.6035 250.006 12.4238 249.35 13.4766V2.8125H243.423ZM259.173 21.9668C259.173 24.0312 258.763 25.6787 257.942 26.9092C257.136 28.1533 255.905 28.7754 254.251 28.7754C252.597 28.7754 251.339 28.1602 250.478 26.9297C249.616 25.6992 249.186 24.1064 249.186 22.1514C249.186 19.417 249.876 17.4619 251.257 16.2861C252.104 15.5752 253.089 15.2197 254.21 15.2197C255.919 15.2197 257.177 15.8691 257.983 17.168C258.776 18.4531 259.173 20.0527 259.173 21.9668ZM209.441 33L212.948 16.7168L216.496 33H222.566L228.842 10.6465H222.566L219.08 26.6836L215.86 10.6465H209.934L206.529 26.7451L203.043 10.6465H196.952L203.433 33H209.441ZM187.703 10.6465V33H193.63V10.6465H187.703ZM187.703 2.58691V7.98047H193.63V2.58691H187.703ZM171.789 28.8369V33.2051L174.558 33.3076C177.319 33.4033 179.206 32.9248 180.218 31.8721C180.874 31.2021 181.202 30.1699 181.202 28.7754V15.0146H184.319V10.8516H181.202V4.61719H175.419V10.8516H171.789V15.0146H175.419V26.8271C175.419 27.7432 175.303 28.3174 175.07 28.5498C174.838 28.7686 174.127 28.8779 172.938 28.8779C172.76 28.8779 172.575 28.8779 172.384 28.8779C172.179 28.8643 171.98 28.8506 171.789 28.8369ZM147.836 19.875V33H153.804V19.4033C153.804 18.2002 154.009 17.2295 154.419 16.4912C154.952 15.4521 155.964 14.9326 157.454 14.9326C158.999 14.9326 160.175 15.4521 160.981 16.4912C161.774 17.5166 162.171 18.9863 162.171 20.9004V33H167.995V2.87402H162.171V13.5586C161.323 12.2598 160.346 11.3574 159.238 10.8516C158.117 10.332 156.941 10.0723 155.711 10.0723C154.33 10.0723 153.079 10.3115 151.958 10.79C150.823 11.2686 149.894 12 149.169 12.9844C148.554 13.8184 148.178 14.6797 148.041 15.5684C147.904 16.4434 147.836 17.8789 147.836 19.875ZM124.375 19.9775C126.986 19.2119 128.832 18.1455 129.912 16.7783C130.979 15.4111 131.512 13.7637 131.512 11.8359C131.512 10.5645 131.307 9.40918 130.896 8.37012C130.473 7.33105 129.885 6.43555 129.133 5.68359C128.162 4.71289 127.082 4.04297 125.893 3.67383C125.168 3.44141 124.108 3.27051 122.714 3.16113V0.433594H120.766V3.20215C118.537 3.37988 116.787 3.92676 115.516 4.84277C113.205 6.30566 112.009 8.67773 111.927 11.959H117.32C117.43 10.7422 117.635 9.85352 117.936 9.29297C118.455 8.32227 119.398 7.78906 120.766 7.69336V15.5068C117.512 16.6279 115.324 17.6191 114.203 18.4805C112.357 19.916 111.435 21.9395 111.435 24.5508C111.435 27.9961 112.699 30.498 115.229 32.0566C116.773 33.0137 118.605 33.5742 120.725 33.7383V37.8604H122.714V33.7793C125.407 33.4785 127.417 32.8906 128.743 32.0156C131.081 30.4434 132.229 27.7637 132.188 23.9766H126.651C126.46 25.6992 126.193 26.8545 125.852 27.4424C125.318 28.3584 124.272 28.9531 122.714 29.2266V20.4697L124.375 19.9775ZM120.766 21.1465V29.165C119.686 29.0283 118.899 28.7822 118.407 28.4268C117.546 27.7979 117.115 26.7109 117.115 25.166C117.115 23.9902 117.519 23.0605 118.325 22.377C118.804 21.9805 119.617 21.5703 120.766 21.1465ZM122.714 14.9326V7.73438C123.903 7.76172 124.785 8.08301 125.359 8.69824C125.934 9.2998 126.221 10.127 126.221 11.1797C126.221 12.3281 125.79 13.2373 124.929 13.9072C124.45 14.2764 123.712 14.6182 122.714 14.9326ZM85.3896 8.12402H100.545V15.0762H87.2764V20.3262H100.545V33H106.82V2.8125H85.3896V8.12402ZM75.6074 10.6465V33H81.5342V10.6465H75.6074ZM75.6074 2.58691V7.98047H81.5342V2.58691H75.6074ZM59.4062 14.9736C61.3887 14.9736 62.749 15.8145 63.4873 17.4961C63.8701 18.3848 64.0615 19.5195 64.0615 20.9004V33H69.8857V10.6875H64.2461V13.9482C63.4941 12.7998 62.7832 11.9727 62.1133 11.4668C60.9102 10.5645 59.3857 10.1133 57.54 10.1133C55.2295 10.1133 53.3428 10.7217 51.8799 11.9385C50.4033 13.1416 49.665 15.1445 49.665 17.9473V33H55.6533V19.4033C55.6533 18.2275 55.8105 17.3252 56.125 16.6963C56.6992 15.5479 57.793 14.9736 59.4062 14.9736ZM25.1172 26.4375C25.2676 27.7637 25.958 29.1104 27.1885 30.4775C29.1025 32.6514 31.7822 33.7383 35.2275 33.7383C38.0713 33.7383 40.5801 32.8223 42.7539 30.9902C44.9277 29.1582 46.0146 26.1777 46.0146 22.0488C46.0146 18.1797 45.0371 15.2129 43.082 13.1484C41.1133 11.084 38.5635 10.0518 35.4326 10.0518C33.5732 10.0518 31.8984 10.4004 30.4082 11.0977C28.918 11.7949 27.6875 12.8955 26.7168 14.3994C25.8418 15.7256 25.2744 17.2637 25.0146 19.0137C24.8643 20.0391 24.8027 21.5156 24.8301 23.4434H40.1289C40.0469 25.6855 39.3428 27.2578 38.0166 28.1602C37.21 28.7207 36.2393 29.001 35.1045 29.001C33.9014 29.001 32.9238 28.6592 32.1719 27.9756C31.7617 27.6064 31.3994 27.0938 31.085 26.4375H25.1172ZM30.9004 19.5879C30.9961 18.043 31.4678 16.874 32.3154 16.0811C33.1494 15.2744 34.1885 14.8711 35.4326 14.8711C36.7861 14.8711 37.8389 15.2949 38.5908 16.1426C39.3291 16.9902 39.7939 18.1387 39.9854 19.5879H30.9004ZM7.64453 21.8438C7.80859 22.3633 7.89746 23.1699 7.91113 24.2637H13.4482C13.3662 21.9531 13.1475 20.3604 12.792 19.4854C12.4365 18.5967 11.5205 17.5781 10.0439 16.4297L8.54688 15.2607C8.05469 14.8916 7.6582 14.4883 7.35742 14.0508C6.81055 13.2988 6.53711 12.4717 6.53711 11.5693C6.53711 10.5303 6.84473 9.58691 7.45996 8.73926C8.06152 7.87793 9.16895 7.44727 10.7822 7.44727C12.3682 7.44727 13.4961 7.97363 14.166 9.02637C14.8223 10.0791 15.1504 11.1729 15.1504 12.3076H21.0771C20.9131 8.41113 19.5527 5.64941 16.9961 4.02246C15.3828 2.9834 13.4004 2.46387 11.0488 2.46387C7.95898 2.46387 5.39551 3.20215 3.3584 4.67871C1.30762 6.15527 0.282227 8.34277 0.282227 11.2412C0.282227 13.0186 0.726562 14.5156 1.61523 15.7324C2.13477 16.4707 3.13281 17.4141 4.60938 18.5625L6.06543 19.6904C6.8584 20.3057 7.38477 21.0234 7.64453 21.8438ZM7.48047 33H13.5918V27.0732H7.48047V33Z" fill="black"/>
</svg>
