<svg width="493" height="43" viewBox="0 0 493 43" fill="none" xmlns="http://www.w3.org/2000/svg">
<path d="M474.774 33V19.5059H486.587V33H492.842V2.77148H486.587V14.2969H474.774V2.77148H468.499V33H474.774ZM444.279 13.4766C442.393 15.8418 441.449 18.6377 441.449 21.8643C441.449 25.1455 442.393 27.9551 444.279 30.293C446.166 32.6172 449.03 33.7793 452.872 33.7793C456.714 33.7793 459.578 32.6172 461.465 30.293C463.352 27.9551 464.295 25.1455 464.295 21.8643C464.295 18.6377 463.352 15.8418 461.465 13.4766C459.578 11.1113 456.714 9.92871 452.872 9.92871C449.03 9.92871 446.166 11.1113 444.279 13.4766ZM452.893 14.8711C454.602 14.8711 455.921 15.4795 456.851 16.6963C457.767 17.8994 458.225 19.6221 458.225 21.8643C458.225 24.1064 457.767 25.8359 456.851 27.0527C455.921 28.2695 454.602 28.8779 452.893 28.8779C451.184 28.8779 449.871 28.2695 448.955 27.0527C448.039 25.8359 447.581 24.1064 447.581 21.8643C447.581 19.6221 448.039 17.8994 448.955 16.6963C449.871 15.4795 451.184 14.8711 452.893 14.8711ZM420.285 33L423.792 16.7168L427.34 33H433.41L439.686 10.6465H433.41L429.924 26.6836L426.704 10.6465H420.777L417.373 26.7451L413.887 10.6465H407.796L414.276 33H420.285ZM373.527 18.665H379.516C379.625 17.8311 379.905 17.0791 380.356 16.4092C381.013 15.5068 382.031 15.0557 383.412 15.0557C385.381 15.0557 386.728 16.0332 387.452 17.9883C387.835 19.0273 388.026 20.4082 388.026 22.1309C388.026 23.7715 387.835 25.0908 387.452 26.0889C386.755 27.9482 385.442 28.8779 383.515 28.8779C382.147 28.8779 381.177 28.5088 380.603 27.7705C380.028 27.0322 379.68 26.0752 379.557 24.8994H373.589C373.726 26.6768 374.368 28.3584 375.517 29.9443C377.349 32.501 380.062 33.7793 383.658 33.7793C387.254 33.7793 389.899 32.7129 391.595 30.5801C393.29 28.4473 394.138 25.6787 394.138 22.2744C394.138 18.4326 393.201 15.4453 391.328 13.3125C389.455 11.1797 386.871 10.1133 383.576 10.1133C380.773 10.1133 378.483 10.7422 376.706 12C374.915 13.2578 373.855 15.4795 373.527 18.665ZM368.646 13.0664C367.102 11.0977 364.449 10.1133 360.689 10.1133C358.242 10.1133 356.068 10.5986 354.168 11.5693C352.268 12.54 351.317 14.3721 351.317 17.0654V27.3193C351.317 28.0303 351.304 28.8916 351.276 29.9033C351.235 30.6689 351.119 31.1885 350.928 31.4619C350.736 31.7354 350.449 31.9609 350.066 32.1387V33H356.424C356.602 32.5488 356.725 32.125 356.793 31.7285C356.861 31.332 356.916 30.8809 356.957 30.375C357.764 31.25 358.693 31.9951 359.746 32.6104C361.004 33.335 362.426 33.6973 364.012 33.6973C366.035 33.6973 367.71 33.123 369.036 31.9746C370.349 30.8125 371.005 29.1719 371.005 27.0527C371.005 24.3047 369.945 22.3154 367.826 21.085C366.664 20.415 364.955 19.9365 362.699 19.6494L360.71 19.4033C359.63 19.2666 358.857 19.0957 358.393 18.8906C357.559 18.5352 357.142 17.9814 357.142 17.2295C357.142 16.3135 357.463 15.6846 358.105 15.3428C358.734 14.9873 359.664 14.8096 360.895 14.8096C362.275 14.8096 363.253 15.1514 363.827 15.835C364.237 16.3408 364.511 17.0244 364.647 17.8857H370.287C370.164 15.9307 369.617 14.3242 368.646 13.0664ZM364.299 28.7754C363.752 29.2266 363.082 29.4521 362.289 29.4521C361.031 29.4521 359.876 29.083 358.823 28.3447C357.757 27.6064 357.203 26.2598 357.162 24.3047V22.1309C357.531 22.3633 357.907 22.5547 358.29 22.7051C358.659 22.8418 359.172 22.9717 359.828 23.0947L361.141 23.3408C362.371 23.5596 363.253 23.8262 363.786 24.1406C364.688 24.6738 365.14 25.501 365.14 26.6221C365.14 27.6201 364.859 28.3379 364.299 28.7754ZM335.588 14.9736C337.57 14.9736 338.931 15.8145 339.669 17.4961C340.052 18.3848 340.243 19.5195 340.243 20.9004V33H346.067V10.6875H340.428V13.9482C339.676 12.7998 338.965 11.9727 338.295 11.4668C337.092 10.5645 335.567 10.1133 333.722 10.1133C331.411 10.1133 329.524 10.7217 328.062 11.9385C326.585 13.1416 325.847 15.1445 325.847 17.9473V33H331.835V19.4033C331.835 18.2275 331.992 17.3252 332.307 16.6963C332.881 15.5479 333.975 14.9736 335.588 14.9736ZM308.764 2.77148H302.488V33H308.764V2.77148ZM269.963 11.6719C268.213 12.793 267.208 14.7207 266.948 17.4551H272.793C272.875 16.7031 273.087 16.1084 273.429 15.6709C274.071 14.8779 275.165 14.4814 276.71 14.4814C277.981 14.4814 278.891 14.6797 279.438 15.0762C279.971 15.4727 280.237 15.9375 280.237 16.4707C280.237 17.1406 279.95 17.626 279.376 17.9268C278.802 18.2412 276.771 18.7812 273.285 19.5469C270.961 20.0938 269.218 20.9209 268.056 22.0283C266.907 23.1494 266.333 24.5508 266.333 26.2324C266.333 28.4473 267.16 30.2588 268.814 31.667C270.455 33.0615 272.998 33.7588 276.443 33.7588C279.957 33.7588 282.555 33.0205 284.236 31.5439C285.904 30.0537 286.738 28.1602 286.738 25.8633H280.812C280.688 26.9023 280.422 27.6406 280.012 28.0781C279.287 28.8574 277.947 29.2471 275.992 29.2471C274.844 29.2471 273.935 29.0762 273.265 28.7344C272.581 28.3926 272.239 27.8799 272.239 27.1963C272.239 26.54 272.513 26.041 273.06 25.6992C273.606 25.3574 275.637 24.7695 279.15 23.9355C281.68 23.3066 283.464 22.5205 284.503 21.5771C285.542 20.6475 286.062 19.3076 286.062 17.5576C286.062 15.4932 285.255 13.7227 283.642 12.2461C282.015 10.7559 279.731 10.0107 276.792 10.0107C274.003 10.0107 271.727 10.5645 269.963 11.6719ZM242.852 26.4375C243.002 27.7637 243.692 29.1104 244.923 30.4775C246.837 32.6514 249.517 33.7383 252.962 33.7383C255.806 33.7383 258.314 32.8223 260.488 30.9902C262.662 29.1582 263.749 26.1777 263.749 22.0488C263.749 18.1797 262.771 15.2129 260.816 13.1484C258.848 11.084 256.298 10.0518 253.167 10.0518C251.308 10.0518 249.633 10.4004 248.143 11.0977C246.652 11.7949 245.422 12.8955 244.451 14.3994C243.576 15.7256 243.009 17.2637 242.749 19.0137C242.599 20.0391 242.537 21.5156 242.564 23.4434H257.863C257.781 25.6855 257.077 27.2578 255.751 28.1602C254.944 28.7207 253.974 29.001 252.839 29.001C251.636 29.001 250.658 28.6592 249.906 27.9756C249.496 27.6064 249.134 27.0938 248.819 26.4375H242.852ZM248.635 19.5879C248.73 18.043 249.202 16.874 250.05 16.0811C250.884 15.2744 251.923 14.8711 253.167 14.8711C254.521 14.8711 255.573 15.2949 256.325 16.1426C257.063 16.9902 257.528 18.1387 257.72 19.5879H248.635ZM238.483 2.77148H232.639V33H238.483V2.77148ZM226.794 2.77148H220.949V33H226.794V2.77148ZM190.987 16.7988C191.479 15.7188 192.443 15.1787 193.879 15.1787C195.547 15.1787 196.668 15.7188 197.242 16.7988C197.557 17.4141 197.714 18.3301 197.714 19.5469V33H203.641V10.6875H197.96V13.9482C197.235 12.7861 196.552 11.959 195.909 11.4668C194.774 10.5918 193.305 10.1543 191.5 10.1543C189.791 10.1543 188.41 10.5303 187.357 11.2822C186.51 11.9795 185.867 12.875 185.43 13.9688C184.664 12.6562 183.714 11.6924 182.579 11.0771C181.376 10.4619 180.036 10.1543 178.56 10.1543C177.575 10.1543 176.604 10.3457 175.647 10.7285C174.69 11.1113 173.822 11.7812 173.043 12.7383C172.414 13.5176 171.99 14.4746 171.771 15.6094C171.635 16.3613 171.566 17.4619 171.566 18.9111L171.607 33H177.596V18.7676C177.596 17.9199 177.732 17.2227 178.006 16.6758C178.525 15.6367 179.482 15.1172 180.877 15.1172C182.49 15.1172 183.604 15.7871 184.22 17.127C184.534 17.8379 184.691 18.6924 184.691 19.6904V33H190.577V19.6904C190.577 18.3643 190.714 17.4004 190.987 16.7988ZM157.088 27.1348L152.474 10.6465H146.26L153.93 32.6309C155.406 36.8691 156.575 39.4941 157.437 40.5059C158.298 41.5312 160.021 42.0439 162.604 42.0439C163.124 42.0439 163.541 42.0371 163.855 42.0234C164.17 42.0234 164.642 42.0029 165.271 41.9619V37.2861L164.532 37.3271C163.958 37.3545 163.411 37.334 162.892 37.2656C162.372 37.1973 161.935 37.04 161.579 36.7939C161.237 36.5615 160.923 36.0762 160.636 35.3379C160.335 34.5996 160.212 34.1484 160.267 33.9844L168.47 10.6465H161.969L157.088 27.1348ZM124.809 19.9775C127.42 19.2119 129.266 18.1455 130.346 16.7783C131.412 15.4111 131.945 13.7637 131.945 11.8359C131.945 10.5645 131.74 9.40918 131.33 8.37012C130.906 7.33105 130.318 6.43555 129.566 5.68359C128.596 4.71289 127.516 4.04297 126.326 3.67383C125.602 3.44141 124.542 3.27051 123.147 3.16113V0.433594H121.199V3.20215C118.971 3.37988 117.221 3.92676 115.949 4.84277C113.639 6.30566 112.442 8.67773 112.36 11.959H117.754C117.863 10.7422 118.068 9.85352 118.369 9.29297C118.889 8.32227 119.832 7.78906 121.199 7.69336V15.5068C117.945 16.6279 115.758 17.6191 114.637 18.4805C112.791 19.916 111.868 21.9395 111.868 24.5508C111.868 27.9961 113.133 30.498 115.662 32.0566C117.207 33.0137 119.039 33.5742 121.158 33.7383V37.8604H123.147V33.7793C125.841 33.4785 127.851 32.8906 129.177 32.0156C131.515 30.4434 132.663 27.7637 132.622 23.9766H127.085C126.894 25.6992 126.627 26.8545 126.285 27.4424C125.752 28.3584 124.706 28.9531 123.147 29.2266V20.4697L124.809 19.9775ZM121.199 21.1465V29.165C120.119 29.0283 119.333 28.7822 118.841 28.4268C117.979 27.7979 117.549 26.7109 117.549 25.166C117.549 23.9902 117.952 23.0605 118.759 22.377C119.237 21.9805 120.051 21.5703 121.199 21.1465ZM123.147 14.9326V7.73438C124.337 7.76172 125.219 8.08301 125.793 8.69824C126.367 9.2998 126.654 10.127 126.654 11.1797C126.654 12.3281 126.224 13.2373 125.362 13.9072C124.884 14.2764 124.146 14.6182 123.147 14.9326ZM85.8232 8.12402H100.979V15.0762H87.71V20.3262H100.979V33H107.254V2.8125H85.8232V8.12402ZM76.041 10.6465V33H81.9678V10.6465H76.041ZM76.041 2.58691V7.98047H81.9678V2.58691H76.041ZM59.8398 14.9736C61.8223 14.9736 63.1826 15.8145 63.9209 17.4961C64.3037 18.3848 64.4951 19.5195 64.4951 20.9004V33H70.3193V10.6875H64.6797V13.9482C63.9277 12.7998 63.2168 11.9727 62.5469 11.4668C61.3438 10.5645 59.8193 10.1133 57.9736 10.1133C55.6631 10.1133 53.7764 10.7217 52.3135 11.9385C50.8369 13.1416 50.0986 15.1445 50.0986 17.9473V33H56.0869V19.4033C56.0869 18.2275 56.2441 17.3252 56.5586 16.6963C57.1328 15.5479 58.2266 14.9736 59.8398 14.9736ZM25.5508 26.4375C25.7012 27.7637 26.3916 29.1104 27.6221 30.4775C29.5361 32.6514 32.2158 33.7383 35.6611 33.7383C38.5049 33.7383 41.0137 32.8223 43.1875 30.9902C45.3613 29.1582 46.4482 26.1777 46.4482 22.0488C46.4482 18.1797 45.4707 15.2129 43.5156 13.1484C41.5469 11.084 38.9971 10.0518 35.8662 10.0518C34.0068 10.0518 32.332 10.4004 30.8418 11.0977C29.3516 11.7949 28.1211 12.8955 27.1504 14.3994C26.2754 15.7256 25.708 17.2637 25.4482 19.0137C25.2979 20.0391 25.2363 21.5156 25.2637 23.4434H40.5625C40.4805 25.6855 39.7764 27.2578 38.4502 28.1602C37.6436 28.7207 36.6729 29.001 35.5381 29.001C34.335 29.001 33.3574 28.6592 32.6055 27.9756C32.1953 27.6064 31.833 27.0938 31.5186 26.4375H25.5508ZM31.334 19.5879C31.4297 18.043 31.9014 16.874 32.749 16.0811C33.583 15.2744 34.6221 14.8711 35.8662 14.8711C37.2197 14.8711 38.2725 15.2949 39.0244 16.1426C39.7627 16.9902 40.2275 18.1387 40.4189 19.5879H31.334ZM8.07812 21.8438C8.24219 22.3633 8.33105 23.1699 8.34473 24.2637H13.8818C13.7998 21.9531 13.5811 20.3604 13.2256 19.4854C12.8701 18.5967 11.9541 17.5781 10.4775 16.4297L8.98047 15.2607C8.48828 14.8916 8.0918 14.4883 7.79102 14.0508C7.24414 13.2988 6.9707 12.4717 6.9707 11.5693C6.9707 10.5303 7.27832 9.58691 7.89355 8.73926C8.49512 7.87793 9.60254 7.44727 11.2158 7.44727C12.8018 7.44727 13.9297 7.97363 14.5996 9.02637C15.2559 10.0791 15.584 11.1729 15.584 12.3076H21.5107C21.3467 8.41113 19.9863 5.64941 17.4297 4.02246C15.8164 2.9834 13.834 2.46387 11.4824 2.46387C8.39258 2.46387 5.8291 3.20215 3.79199 4.67871C1.74121 6.15527 0.71582 8.34277 0.71582 11.2412C0.71582 13.0186 1.16016 14.5156 2.04883 15.7324C2.56836 16.4707 3.56641 17.4141 5.04297 18.5625L6.49902 19.6904C7.29199 20.3057 7.81836 21.0234 8.07812 21.8438ZM7.91406 33H14.0254V27.0732H7.91406V33Z" fill="black"/>
</svg>
