<svg width="128" height="32" viewBox="0 0 128 32" fill="none" xmlns="http://www.w3.org/2000/svg">
<path d="M127.297 32L115.587 0.848633H110.727L122.478 32H127.297ZM115.607 32L103.897 0.848633H99.0371L110.788 32H115.607ZM92.6387 32H98.5244V1.77148H89.3369L83.8408 25.54L78.3857 1.77148H69.3008V32H75.1865V11.5537C75.1865 10.9658 75.1797 10.1455 75.166 9.09277C75.1523 8.02637 75.1455 7.20605 75.1455 6.63184L80.8672 32H86.999L92.6797 6.63184C92.6797 7.20605 92.6729 8.02637 92.6592 9.09277C92.6455 10.1455 92.6387 10.9658 92.6387 11.5537V32ZM45.7373 25.7861H56.873L58.9648 32H65.5684L54.7812 1.77148H47.6445L36.9395 32H43.7891L45.7373 25.7861ZM47.501 20.5771L51.2744 8.68262L55.1709 20.5771H47.501ZM33.5762 1.77148H27.3008V32H33.5762V1.77148ZM21.3945 1.77148H15.0781V26.5654H0.107422V32H21.3945V1.77148Z" fill="white"/>
</svg>
