<svg width="213" height="33" viewBox="0 0 213 33" fill="none" xmlns="http://www.w3.org/2000/svg">
<path d="M199.963 20.1465H206.484V32H212.657V1.77148H197.83C195.711 1.8125 194.084 2.07227 192.949 2.55078C191.801 3.0293 190.83 3.7334 190.037 4.66309C189.381 5.42871 188.861 6.27637 188.479 7.20605C188.096 8.13574 187.904 9.19531 187.904 10.3848C187.904 11.8203 188.267 13.2354 188.991 14.6299C189.716 16.0107 190.912 16.9883 192.58 17.5625C191.186 18.123 190.201 18.9229 189.627 19.9619C189.039 20.9873 188.745 22.5596 188.745 24.6787V26.709C188.745 28.0898 188.69 29.0264 188.581 29.5186C188.417 30.2979 188.034 30.8721 187.433 31.2412V32H194.385C194.576 31.3301 194.713 30.79 194.795 30.3799C194.959 29.5322 195.048 28.6641 195.062 27.7754L195.103 24.9658C195.13 23.0381 195.485 21.7529 196.169 21.1104C196.839 20.4678 198.104 20.1465 199.963 20.1465ZM196.128 14.6504C194.87 14.0762 194.241 12.9414 194.241 11.2461C194.241 9.41406 194.85 8.18359 196.066 7.55469C196.75 7.19922 197.775 7.02148 199.143 7.02148H206.484V15.1426H199.327C197.905 15.1426 196.839 14.9785 196.128 14.6504ZM169.078 32.8408C173.398 32.8408 176.7 31.665 178.983 29.3135C182.046 26.4287 183.577 22.2725 183.577 16.8447C183.577 11.3076 182.046 7.15137 178.983 4.37598C176.7 2.02441 173.398 0.848633 169.078 0.848633C164.758 0.848633 161.456 2.02441 159.173 4.37598C156.124 7.15137 154.6 11.3076 154.6 16.8447C154.6 22.2725 156.124 26.4287 159.173 29.3135C161.456 31.665 164.758 32.8408 169.078 32.8408ZM163.11 24.7197C161.647 22.874 160.916 20.249 160.916 16.8447C160.916 13.4541 161.654 10.8359 163.131 8.99023C164.594 7.13086 166.576 6.20117 169.078 6.20117C171.58 6.20117 173.576 7.12402 175.066 8.96973C176.557 10.8154 177.302 13.4404 177.302 16.8447C177.302 20.249 176.557 22.874 175.066 24.7197C173.576 26.5654 171.58 27.4883 169.078 27.4883C166.576 27.4883 164.587 26.5654 163.11 24.7197ZM132.062 25.7861H143.197L145.289 32H151.893L141.105 1.77148H133.969L123.264 32H130.113L132.062 25.7861ZM133.825 20.5771L137.599 8.68262L141.495 20.5771H133.825ZM106.386 32H119.408V1.77148H106.386C104.513 1.79883 102.954 2.01758 101.71 2.42773C99.5908 3.125 97.875 4.40332 96.5625 6.2627C95.5098 7.7666 94.792 9.39355 94.4092 11.1436C94.0264 12.8936 93.835 14.5615 93.835 16.1475C93.835 20.167 94.6416 23.5713 96.2549 26.3604C98.4424 30.1201 101.819 32 106.386 32ZM101.689 9.48242C102.66 7.8418 104.581 7.02148 107.452 7.02148H113.276V26.75H107.452C104.472 26.75 102.394 25.2803 101.218 22.3408C100.575 20.7275 100.254 18.8066 100.254 16.5781C100.254 13.502 100.732 11.1367 101.689 9.48242ZM83.2734 32H89.1592V1.77148H79.9717L74.4756 25.54L69.0205 1.77148H59.9355V32H65.8213V11.5537C65.8213 10.9658 65.8145 10.1455 65.8008 9.09277C65.7871 8.02637 65.7803 7.20605 65.7803 6.63184L71.502 32H77.6338L83.3145 6.63184C83.3145 7.20605 83.3076 8.02637 83.2939 9.09277C83.2803 10.1455 83.2734 10.9658 83.2734 11.5537V32ZM36.3721 25.7861H47.5078L49.5996 32H56.2031L45.416 1.77148H38.2793L27.5742 32H34.4238L36.3721 25.7861ZM38.1357 20.5771L41.9092 8.68262L45.8057 20.5771H38.1357ZM10.8809 21.1309H17.2998V32H23.5752V1.77148H10.4092C7.37402 1.77148 4.9541 2.55078 3.14941 4.10938C1.34473 5.66797 0.442383 8.08105 0.442383 11.3486C0.442383 14.917 1.34473 17.4395 3.14941 18.916C4.9541 20.3926 7.53125 21.1309 10.8809 21.1309ZM7.92773 14.835C7.10742 14.1104 6.69727 12.9619 6.69727 11.3896C6.69727 9.81738 7.11426 8.69629 7.94824 8.02637C8.76855 7.35645 9.92383 7.02148 11.4141 7.02148H17.2998V15.9219H11.4141C9.92383 15.9219 8.76172 15.5596 7.92773 14.835Z" fill="black"/>
</svg>
