<svg width="325" height="41" viewBox="0 0 325 41" fill="none" xmlns="http://www.w3.org/2000/svg">
<path d="M312.039 27.8369V32.2051L314.808 32.3076C317.569 32.4033 319.456 31.9248 320.468 30.8721C321.124 30.2021 321.452 29.1699 321.452 27.7754V14.0146H324.569V9.85156H321.452V3.61719H315.669V9.85156H312.039V14.0146H315.669V25.8271C315.669 26.7432 315.553 27.3174 315.32 27.5498C315.088 27.7686 314.377 27.8779 313.188 27.8779C313.01 27.8779 312.825 27.8779 312.634 27.8779C312.429 27.8643 312.23 27.8506 312.039 27.8369ZM289.152 25.4375C289.303 26.7637 289.993 28.1104 291.224 29.4775C293.138 31.6514 295.817 32.7383 299.263 32.7383C302.106 32.7383 304.615 31.8223 306.789 29.9902C308.963 28.1582 310.05 25.1777 310.05 21.0488C310.05 17.1797 309.072 14.2129 307.117 12.1484C305.148 10.084 302.599 9.05176 299.468 9.05176C297.608 9.05176 295.934 9.40039 294.443 10.0977C292.953 10.7949 291.723 11.8955 290.752 13.3994C289.877 14.7256 289.31 16.2637 289.05 18.0137C288.899 19.0391 288.838 20.5156 288.865 22.4434H304.164C304.082 24.6855 303.378 26.2578 302.052 27.1602C301.245 27.7207 300.274 28.001 299.14 28.001C297.937 28.001 296.959 27.6592 296.207 26.9756C295.797 26.6064 295.435 26.0938 295.12 25.4375H289.152ZM294.936 18.5879C295.031 17.043 295.503 15.874 296.351 15.0811C297.185 14.2744 298.224 13.8711 299.468 13.8711C300.821 13.8711 301.874 14.2949 302.626 15.1426C303.364 15.9902 303.829 17.1387 304.021 18.5879H294.936ZM284.066 12.0664C282.521 10.0977 279.869 9.11328 276.109 9.11328C273.662 9.11328 271.488 9.59863 269.588 10.5693C267.688 11.54 266.737 13.3721 266.737 16.0654V26.3193C266.737 27.0303 266.724 27.8916 266.696 28.9033C266.655 29.6689 266.539 30.1885 266.348 30.4619C266.156 30.7354 265.869 30.9609 265.486 31.1387V32H271.844C272.021 31.5488 272.145 31.125 272.213 30.7285C272.281 30.332 272.336 29.8809 272.377 29.375C273.184 30.25 274.113 30.9951 275.166 31.6104C276.424 32.335 277.846 32.6973 279.432 32.6973C281.455 32.6973 283.13 32.123 284.456 30.9746C285.769 29.8125 286.425 28.1719 286.425 26.0527C286.425 23.3047 285.365 21.3154 283.246 20.085C282.084 19.415 280.375 18.9365 278.119 18.6494L276.13 18.4033C275.05 18.2666 274.277 18.0957 273.812 17.8906C272.979 17.5352 272.562 16.9814 272.562 16.2295C272.562 15.3135 272.883 14.6846 273.525 14.3428C274.154 13.9873 275.084 13.8096 276.314 13.8096C277.695 13.8096 278.673 14.1514 279.247 14.835C279.657 15.3408 279.931 16.0244 280.067 16.8857H285.707C285.584 14.9307 285.037 13.3242 284.066 12.0664ZM279.719 27.7754C279.172 28.2266 278.502 28.4521 277.709 28.4521C276.451 28.4521 275.296 28.083 274.243 27.3447C273.177 26.6064 272.623 25.2598 272.582 23.3047V21.1309C272.951 21.3633 273.327 21.5547 273.71 21.7051C274.079 21.8418 274.592 21.9717 275.248 22.0947L276.561 22.3408C277.791 22.5596 278.673 22.8262 279.206 23.1406C280.108 23.6738 280.56 24.501 280.56 25.6221C280.56 26.6201 280.279 27.3379 279.719 27.7754ZM248.978 15.7988C249.47 14.7188 250.434 14.1787 251.869 14.1787C253.537 14.1787 254.658 14.7188 255.232 15.7988C255.547 16.4141 255.704 17.3301 255.704 18.5469V32H261.631V9.6875H255.95V12.9482C255.226 11.7861 254.542 10.959 253.899 10.4668C252.765 9.5918 251.295 9.1543 249.49 9.1543C247.781 9.1543 246.4 9.53027 245.348 10.2822C244.5 10.9795 243.857 11.875 243.42 12.9688C242.654 11.6562 241.704 10.6924 240.569 10.0771C239.366 9.46191 238.026 9.1543 236.55 9.1543C235.565 9.1543 234.595 9.3457 233.638 9.72852C232.681 10.1113 231.812 10.7812 231.033 11.7383C230.404 12.5176 229.98 13.4746 229.762 14.6094C229.625 15.3613 229.557 16.4619 229.557 17.9111L229.598 32H235.586V17.7676C235.586 16.9199 235.723 16.2227 235.996 15.6758C236.516 14.6367 237.473 14.1172 238.867 14.1172C240.48 14.1172 241.595 14.7871 242.21 16.127C242.524 16.8379 242.682 17.6924 242.682 18.6904V32H248.567V18.6904C248.567 17.3643 248.704 16.4004 248.978 15.7988ZM200.641 8.72363H196.765L199.39 17.624C199.595 18.3486 199.745 18.8887 199.841 19.2441C199.923 19.5859 199.964 19.8867 199.964 20.1465C199.964 20.5566 199.827 20.9463 199.554 21.3154C199.28 21.6709 198.843 21.8486 198.241 21.8486C197.065 21.8486 195.89 21.083 194.714 19.5518C193.524 18.0068 192.93 15.9629 192.93 13.4199C192.93 9.66016 194.543 6.95996 197.77 5.31934C199.793 4.28027 202.069 3.76074 204.599 3.76074C209.247 3.76074 212.979 5.18262 215.796 8.02637C218.339 10.5967 219.61 13.6797 219.61 17.2754C219.61 21.2676 218.12 24.4326 215.14 26.7705C212.501 28.835 209.281 29.8672 205.48 29.8672C202.883 29.8672 200.456 29.3887 198.2 28.4316C196.97 27.9258 195.698 27.208 194.386 26.2783L193.894 25.9297L192.396 28.2266C194.338 29.7305 196.443 30.8789 198.713 31.6719C200.969 32.4512 203.313 32.8408 205.747 32.8408C211.421 32.8408 215.816 31.0771 218.934 27.5498C221.518 24.624 222.81 21.1582 222.81 17.1523C222.81 12.668 221.196 8.86719 217.97 5.75C214.579 2.45508 210.238 0.807617 204.947 0.807617C200.641 0.807617 197.072 1.93555 194.242 4.19141C191.262 6.57031 189.771 9.72852 189.771 13.666C189.771 16.7695 190.715 19.4355 192.602 21.6641C194.488 23.8789 196.642 24.9863 199.062 24.9863C200.319 24.9863 201.29 24.6309 201.974 23.9199C202.644 23.209 202.979 22.4775 202.979 21.7256C202.979 21.6299 202.979 21.5273 202.979 21.418C202.965 21.2949 202.951 21.165 202.938 21.0283C203.457 22.0127 204.038 22.7988 204.681 23.3867C205.843 24.4395 207.237 24.9658 208.864 24.9658C210.519 24.9658 211.899 24.3711 213.007 23.1816C214.101 21.9922 214.647 20.3311 214.647 18.1982C214.647 15.7236 213.807 13.4062 212.125 11.2461C210.443 9.08594 208.379 8.00586 205.932 8.00586C204.496 8.00586 203.382 8.40234 202.589 9.19531C201.987 9.81055 201.584 10.5146 201.379 11.3076L200.641 8.72363ZM209.479 21.0283C209.028 21.6436 208.386 21.9512 207.552 21.9512C206.089 21.9512 204.893 20.8438 203.963 18.6289C203.02 16.4004 202.548 14.6504 202.548 13.3789C202.548 12.6543 202.767 12.0459 203.204 11.5537C203.642 11.0615 204.229 10.8154 204.968 10.8154C206.39 10.8154 207.613 11.7041 208.639 13.4814C209.664 15.2451 210.177 16.9541 210.177 18.6084C210.177 19.6064 209.944 20.4131 209.479 21.0283ZM176.257 32H182.081V13.9736H185.342V9.85156H182.143V8.41602C182.143 6.03711 181.616 4.2666 180.563 3.10449C179.62 2.01074 177.699 1.46387 174.801 1.46387C174.445 1.46387 174.083 1.47754 173.714 1.50488C173.345 1.53223 172.962 1.55957 172.565 1.58691V6.34473C172.839 6.33105 173.105 6.32422 173.365 6.32422C173.625 6.31055 173.939 6.30371 174.309 6.30371C175.225 6.30371 175.785 6.55664 175.99 7.0625C176.195 7.56836 176.284 8.36133 176.257 9.44141V9.85156H172.422V13.9736H176.257V32ZM163.132 9.74902V32H168.956V9.74902H163.132ZM168.956 6.91895V1.58691H163.234V6.91895H168.956ZM146.992 13.9736C148.975 13.9736 150.335 14.8145 151.073 16.4961C151.456 17.3848 151.647 18.5195 151.647 19.9004V32H157.472V9.6875H151.832V12.9482C151.08 11.7998 150.369 10.9727 149.699 10.4668C148.496 9.56445 146.972 9.11328 145.126 9.11328C142.815 9.11328 140.929 9.72168 139.466 10.9385C137.989 12.1416 137.251 14.1445 137.251 16.9473V32H143.239V18.4033C143.239 17.2275 143.396 16.3252 143.711 15.6963C144.285 14.5479 145.379 13.9736 146.992 13.9736ZM112.703 25.4375C112.854 26.7637 113.544 28.1104 114.774 29.4775C116.688 31.6514 119.368 32.7383 122.813 32.7383C125.657 32.7383 128.166 31.8223 130.34 29.9902C132.514 28.1582 133.601 25.1777 133.601 21.0488C133.601 17.1797 132.623 14.2129 130.668 12.1484C128.699 10.084 126.149 9.05176 123.019 9.05176C121.159 9.05176 119.484 9.40039 117.994 10.0977C116.504 10.7949 115.273 11.8955 114.303 13.3994C113.428 14.7256 112.86 16.2637 112.601 18.0137C112.45 19.0391 112.389 20.5156 112.416 22.4434H127.715C127.633 24.6855 126.929 26.2578 125.603 27.1602C124.796 27.7207 123.825 28.001 122.69 28.001C121.487 28.001 120.51 27.6592 119.758 26.9756C119.348 26.6064 118.985 26.0938 118.671 25.4375H112.703ZM118.486 18.5879C118.582 17.043 119.054 15.874 119.901 15.0811C120.735 14.2744 121.774 13.8711 123.019 13.8711C124.372 13.8711 125.425 14.2949 126.177 15.1426C126.915 15.9902 127.38 17.1387 127.571 18.5879H118.486ZM97.2197 15.04C99.5713 15.04 101.15 15.8057 101.957 17.3369C102.408 18.1982 102.634 19.5244 102.634 21.3154V32H108.52V9.64648H102.941V13.543C102.039 12.0527 101.253 11.0342 100.583 10.4873C99.4893 9.57129 98.0674 9.11328 96.3174 9.11328C96.208 9.11328 96.1191 9.12012 96.0508 9.13379C95.9688 9.13379 95.7979 9.14062 95.5381 9.1543V15.1426C95.9072 15.1016 96.2354 15.0742 96.5225 15.0605C96.8096 15.0469 97.042 15.04 97.2197 15.04ZM72.7539 17.665H78.7422C78.8516 16.8311 79.1318 16.0791 79.583 15.4092C80.2393 14.5068 81.2578 14.0557 82.6387 14.0557C84.6074 14.0557 85.9541 15.0332 86.6787 16.9883C87.0615 18.0273 87.2529 19.4082 87.2529 21.1309C87.2529 22.7715 87.0615 24.0908 86.6787 25.0889C85.9814 26.9482 84.6689 27.8779 82.7412 27.8779C81.374 27.8779 80.4033 27.5088 79.8291 26.7705C79.2549 26.0322 78.9062 25.0752 78.7832 23.8994H72.8154C72.9521 25.6768 73.5947 27.3584 74.7432 28.9443C76.5752 31.501 79.2891 32.7793 82.8848 32.7793C86.4805 32.7793 89.126 31.7129 90.8213 29.5801C92.5166 27.4473 93.3643 24.6787 93.3643 21.2744C93.3643 17.4326 92.4277 14.4453 90.5547 12.3125C88.6816 10.1797 86.0977 9.11328 82.8027 9.11328C80 9.11328 77.71 9.74219 75.9326 11C74.1416 12.2578 73.082 14.4795 72.7539 17.665ZM68.8164 25.8887H62.6025V32H68.8164V25.8887ZM59.2188 9.64648H52.6562L48.001 26.1348L43.2432 9.64648H36.9678L45.0273 32H51.2002L59.2188 9.64648ZM27.6367 9.64648V32H33.5635V9.64648H27.6367ZM27.6367 1.58691V6.98047H33.5635V1.58691H27.6367ZM3.23242 12.0459C1.42773 13.9736 0.525391 16.8037 0.525391 20.5361C0.525391 24.4736 1.41406 27.4746 3.19141 29.5391C4.95508 31.6035 7.23145 32.6357 10.0205 32.6357C11.7979 32.6357 13.2744 32.1914 14.4502 31.3027C15.0928 30.8105 15.7217 30.0928 16.3369 29.1494V40.7979H22.1201V9.64648H16.5215V12.9482C15.8926 11.9775 15.2227 11.2119 14.5117 10.6514C13.2129 9.65332 11.668 9.1543 9.87695 9.1543C7.26562 9.1543 5.05078 10.1182 3.23242 12.0459ZM6.55469 20.8232C6.55469 19.1006 6.95117 17.5762 7.74414 16.25C8.52344 14.9238 9.79492 14.2607 11.5586 14.2607C13.6777 14.2607 15.1338 15.2656 15.9268 17.2754C16.3369 18.3418 16.542 19.6953 16.542 21.3359C16.542 23.9336 15.8516 25.7588 14.4707 26.8115C13.6504 27.4268 12.6797 27.7344 11.5586 27.7344C9.93164 27.7344 8.69434 27.1055 7.84668 25.8477C6.98535 24.5898 6.55469 22.915 6.55469 20.8232Z" fill="white"/>
</svg>
