<svg width="260" height="33" viewBox="0 0 260 33" fill="none" xmlns="http://www.w3.org/2000/svg">
<path d="M259.297 32L247.587 0.848633H242.727L254.478 32H259.297ZM247.607 32L235.897 0.848633H231.037L242.788 32H247.607ZM208.458 1.77148V7.12402H217.502V32H223.859V7.12402H232.944V1.77148H208.458ZM183.705 18.793H198.389V26.5654H181.654V32H204.562V1.77148H182.393V7.12402H198.389V13.543H183.705V18.793ZM176.732 1.77148H170.416V26.5654H155.445V32H176.732V1.77148ZM130.016 18.793H144.699V26.5654H127.965V32H150.872V1.77148H128.703V7.12402H144.699V13.543H130.016V18.793ZM104.504 31.2617C106.172 32.2871 108.223 32.7998 110.656 32.7998C114.662 32.7998 117.943 31.4121 120.5 28.6367C123.166 25.8477 124.499 22.0332 124.499 17.1934C124.499 12.2988 123.152 8.375 120.459 5.42188C117.766 2.46875 114.204 0.992188 109.774 0.992188C105.933 0.992188 102.85 1.96973 100.525 3.9248C98.1875 5.86621 96.8477 8.29297 96.5059 11.2051H102.72C103.198 9.14062 104.367 7.69824 106.227 6.87793C107.266 6.42676 108.421 6.20117 109.692 6.20117C112.126 6.20117 114.129 7.12402 115.701 8.96973C117.26 10.8018 118.039 13.5635 118.039 17.2549C118.039 20.9736 117.191 23.6055 115.496 25.1504C113.801 26.6953 111.873 27.4678 109.713 27.4678C107.594 27.4678 105.857 26.8594 104.504 25.6426C103.15 24.4121 102.316 22.8057 102.002 20.8232H108.995V15.7783H96.4033V32H100.587L101.223 28.2266C102.439 29.6621 103.533 30.6738 104.504 31.2617ZM77.5156 20.1465H84.0371V32H90.21V1.77148H75.3828C73.2637 1.8125 71.6367 2.07227 70.502 2.55078C69.3535 3.0293 68.3828 3.7334 67.5898 4.66309C66.9336 5.42871 66.4141 6.27637 66.0312 7.20605C65.6484 8.13574 65.457 9.19531 65.457 10.3848C65.457 11.8203 65.8193 13.2354 66.5439 14.6299C67.2686 16.0107 68.4648 16.9883 70.1328 17.5625C68.7383 18.123 67.7539 18.9229 67.1797 19.9619C66.5918 20.9873 66.2979 22.5596 66.2979 24.6787V26.709C66.2979 28.0898 66.2432 29.0264 66.1338 29.5186C65.9697 30.2979 65.5869 30.8721 64.9854 31.2412V32H71.9375C72.1289 31.3301 72.2656 30.79 72.3477 30.3799C72.5117 29.5322 72.6006 28.6641 72.6143 27.7754L72.6553 24.9658C72.6826 23.0381 73.0381 21.7529 73.7217 21.1104C74.3916 20.4678 75.6562 20.1465 77.5156 20.1465ZM73.6807 14.6504C72.4229 14.0762 71.7939 12.9414 71.7939 11.2461C71.7939 9.41406 72.4023 8.18359 73.6191 7.55469C74.3027 7.19922 75.3281 7.02148 76.6953 7.02148H84.0371V15.1426H76.8799C75.458 15.1426 74.3916 14.9785 73.6807 14.6504ZM42.3037 25.7861H53.4395L55.5312 32H62.1348L51.3477 1.77148H44.2109L33.5059 32H40.3555L42.3037 25.7861ZM44.0674 20.5771L47.8408 8.68262L51.7373 20.5771H44.0674ZM23.8672 32H29.7529V1.77148H20.5654L15.0693 25.54L9.61426 1.77148H0.529297V32H6.41504V11.5537C6.41504 10.9658 6.4082 10.1455 6.39453 9.09277C6.38086 8.02637 6.37402 7.20605 6.37402 6.63184L12.0957 32H18.2275L23.9082 6.63184C23.9082 7.20605 23.9014 8.02637 23.8877 9.09277C23.874 10.1455 23.8672 10.9658 23.8672 11.5537V32Z" fill="white"/>
</svg>
