<svg width="283" height="33" viewBox="0 0 283 33" fill="none" xmlns="http://www.w3.org/2000/svg">
<path d="M257.837 1.77148V7.12402H266.881V32H273.238V7.12402H282.323V1.77148H257.837ZM241.492 32.8408C245.812 32.8408 249.114 31.665 251.397 29.3135C254.46 26.4287 255.991 22.2725 255.991 16.8447C255.991 11.3076 254.46 7.15137 251.397 4.37598C249.114 2.02441 245.812 0.848633 241.492 0.848633C237.172 0.848633 233.87 2.02441 231.587 4.37598C228.538 7.15137 227.014 11.3076 227.014 16.8447C227.014 22.2725 228.538 26.4287 231.587 29.3135C233.87 31.665 237.172 32.8408 241.492 32.8408ZM235.524 24.7197C234.062 22.874 233.33 20.249 233.33 16.8447C233.33 13.4541 234.068 10.8359 235.545 8.99023C237.008 7.13086 238.99 6.20117 241.492 6.20117C243.994 6.20117 245.99 7.12402 247.48 8.96973C248.971 10.8154 249.716 13.4404 249.716 16.8447C249.716 20.249 248.971 22.874 247.48 24.7197C245.99 26.5654 243.994 27.4883 241.492 27.4883C238.99 27.4883 237.001 26.5654 235.524 24.7197ZM195.391 32H203.512L212.843 18.793L215.857 21.8896V32H222.071V1.77148H215.857V14.2197L204.188 1.77148H196.026L208.413 14.2197L195.391 32ZM170.781 18.793H185.465V26.5654H168.73V32H191.638V1.77148H169.469V7.12402H185.465V13.543H170.781V18.793ZM139.363 32H145.68L158.025 10.5283V32H163.911V1.77148H157.287L145.249 22.874V1.77148H139.363V32ZM120.086 32.8408C124.406 32.8408 127.708 31.665 129.991 29.3135C133.054 26.4287 134.585 22.2725 134.585 16.8447C134.585 11.3076 133.054 7.15137 129.991 4.37598C127.708 2.02441 124.406 0.848633 120.086 0.848633C115.766 0.848633 112.464 2.02441 110.181 4.37598C107.132 7.15137 105.607 11.3076 105.607 16.8447C105.607 22.2725 107.132 26.4287 110.181 29.3135C112.464 31.665 115.766 32.8408 120.086 32.8408ZM114.118 24.7197C112.655 22.874 111.924 20.249 111.924 16.8447C111.924 13.4541 112.662 10.8359 114.139 8.99023C115.602 7.13086 117.584 6.20117 120.086 6.20117C122.588 6.20117 124.584 7.12402 126.074 8.96973C127.564 10.8154 128.31 13.4404 128.31 16.8447C128.31 20.249 127.564 22.874 126.074 24.7197C124.584 26.5654 122.588 27.4883 120.086 27.4883C117.584 27.4883 115.595 26.5654 114.118 24.7197ZM94.9844 32H100.87V1.77148H91.6826L86.1865 25.54L80.7314 1.77148H71.6465V32H77.5322V11.5537C77.5322 10.9658 77.5254 10.1455 77.5117 9.09277C77.498 8.02637 77.4912 7.20605 77.4912 6.63184L83.2129 32H89.3447L95.0254 6.63184C95.0254 7.20605 95.0186 8.02637 95.0049 9.09277C94.9912 10.1455 94.9844 10.9658 94.9844 11.5537V32ZM66.2734 1.77148H59.998V32H66.2734V1.77148ZM32.7637 29.7441C35.0195 31.8086 37.9043 32.8408 41.418 32.8408C45.7656 32.8408 49.1836 31.4463 51.6719 28.6572C54.1602 25.8545 55.4043 22.0127 55.4043 17.1318C55.4043 11.8545 53.9893 7.78711 51.1592 4.92969C48.6982 2.44141 45.5674 1.19727 41.7666 1.19727C36.6807 1.19727 32.9619 2.86523 30.6104 6.20117C29.3115 8.07422 28.6143 9.9541 28.5186 11.8408H34.835C35.2451 10.3916 35.7715 9.29785 36.4141 8.55957C37.5625 7.24707 39.2646 6.59082 41.5205 6.59082C43.8174 6.59082 45.6289 7.52051 46.9551 9.37988C48.2812 11.2256 48.9443 13.8438 48.9443 17.2344C48.9443 20.625 48.2471 23.168 46.8525 24.8633C45.4443 26.5449 43.6602 27.3857 41.5 27.3857C39.2852 27.3857 37.5967 26.6611 36.4346 25.2119C35.792 24.4326 35.2588 23.2637 34.835 21.7051H28.5801C29.127 25 30.5215 27.6797 32.7637 29.7441ZM12.7686 27.6318C11.2783 27.6318 10.0684 27.4678 9.13867 27.1396C7.375 26.5107 6.49316 25.3418 6.49316 23.6328C6.49316 22.6348 6.93066 21.8623 7.80566 21.3154C8.68066 20.7822 10.0547 20.3105 11.9277 19.9004L15.127 19.1826C18.2715 18.4717 20.4453 17.6992 21.6484 16.8652C23.6855 15.4707 24.7041 13.29 24.7041 10.3232C24.7041 7.61621 23.7197 5.36719 21.751 3.57617C19.7822 1.78516 16.8906 0.889648 13.0762 0.889648C9.89062 0.889648 7.17676 1.7373 4.93457 3.43262C2.67871 5.11426 1.49609 7.56152 1.38672 10.7744H7.45703C7.56641 8.95605 8.35938 7.66406 9.83594 6.89844C10.8203 6.39258 12.0439 6.13965 13.5068 6.13965C15.1338 6.13965 16.4326 6.46777 17.4033 7.12402C18.374 7.78027 18.8594 8.69629 18.8594 9.87207C18.8594 10.9521 18.3809 11.7588 17.4238 12.292C16.8086 12.6475 15.4961 13.0645 13.4863 13.543L8.27734 14.7939C5.99414 15.3408 4.27148 16.0723 3.10938 16.9883C1.30469 18.4102 0.402344 20.4678 0.402344 23.1611C0.402344 25.9229 1.46191 28.2197 3.58105 30.0518C5.68652 31.8701 8.66699 32.7793 12.5225 32.7793C16.46 32.7793 19.5566 31.8838 21.8125 30.0928C24.0684 28.2881 25.1963 25.8135 25.1963 22.6689H19.167C18.9756 24.0498 18.5996 25.082 18.0391 25.7656C17.0137 27.0098 15.2568 27.6318 12.7686 27.6318Z" fill="black"/>
</svg>
