<svg width="212" height="32" viewBox="0 0 212 32" fill="none" xmlns="http://www.w3.org/2000/svg">
<path d="M211.297 32L199.587 0.848633H194.727L206.478 32H211.297ZM199.607 32L187.897 0.848633H183.037L194.788 32H199.607ZM160.458 1.77148V7.12402H169.502V32H175.859V7.12402H184.944V1.77148H160.458ZM127.338 1.77148H120.919L129.43 32H135.459L139.109 14.3223L140.176 8.47754L141.242 14.3223L144.893 32H150.758L159.33 1.77148H152.624L148.625 19.0801L147.764 23.8994L146.882 19.1826L143.478 1.77148H136.812L133.224 19.0801L132.301 23.8994L131.378 19.2646L127.338 1.77148ZM117.576 1.77148H111.301V32H117.576V1.77148ZM83.4307 1.77148V7.12402H92.4746V32H98.832V7.12402H107.917V1.77148H83.4307ZM57.7549 1.77148V7.12402H66.7988V32H73.1562V7.12402H82.2412V1.77148H57.7549ZM33.002 18.793H47.6855V26.5654H30.9512V32H53.8584V1.77148H31.6895V7.12402H47.6855V13.543H33.002V18.793ZM13.1914 20.1465H19.7129V32H25.8857V1.77148H11.0586C8.93945 1.8125 7.3125 2.07227 6.17773 2.55078C5.0293 3.0293 4.05859 3.7334 3.26562 4.66309C2.60938 5.42871 2.08984 6.27637 1.70703 7.20605C1.32422 8.13574 1.13281 9.19531 1.13281 10.3848C1.13281 11.8203 1.49512 13.2354 2.21973 14.6299C2.94434 16.0107 4.14062 16.9883 5.80859 17.5625C4.41406 18.123 3.42969 18.9229 2.85547 19.9619C2.26758 20.9873 1.97363 22.5596 1.97363 24.6787V26.709C1.97363 28.0898 1.91895 29.0264 1.80957 29.5186C1.64551 30.2979 1.2627 30.8721 0.661133 31.2412V32H7.61328C7.80469 31.3301 7.94141 30.79 8.02344 30.3799C8.1875 29.5322 8.27637 28.6641 8.29004 27.7754L8.33105 24.9658C8.3584 23.0381 8.71387 21.7529 9.39746 21.1104C10.0674 20.4678 11.332 20.1465 13.1914 20.1465ZM9.35645 14.6504C8.09863 14.0762 7.46973 12.9414 7.46973 11.2461C7.46973 9.41406 8.07812 8.18359 9.29492 7.55469C9.97852 7.19922 11.0039 7.02148 12.3711 7.02148H19.7129V15.1426H12.5557C11.1338 15.1426 10.0674 14.9785 9.35645 14.6504Z" fill="white"/>
</svg>
