<svg width="20" height="21" viewBox="0 0 20 21" fill="none" xmlns="http://www.w3.org/2000/svg">
<path d="M4.10847 10.2929C4.13608 10.2865 4.15876 10.2814 4.1771 10.2774C4.05345 10.2988 3.81647 10.3241 4.04615 10.1683C5.28496 9.32764 6.53542 8.51451 7.79595 7.70648C9.2759 6.7578 10.9034 6.25705 12.3352 5.23431C14.1932 3.90718 16.1803 3.22147 17.882 1.65071C18.985 0.63256 18.9484 1.88747 19.0557 2.90757C19.184 4.12657 19.0661 5.43349 19.0661 6.65737C19.0661 7.86429 18.6922 9.03597 18.6922 10.2098C18.6922 11.7784 18.4501 13.6038 17.9858 15.1126C17.7134 15.998 17.6633 17.1952 17.56 18.1249C17.5167 18.514 17.19 19.9831 16.916 20.2023C16.7444 20.3396 14.2467 17.8845 13.9244 17.3043C13.7621 17.0122 13.1112 16.1243 12.7091 16.4629C11.99 17.0685 10.8864 17.2923 10.2785 18.0522C9.62488 18.8692 9.90456 18.1033 9.90456 17.5848C9.90456 16.9007 10.3336 16.3001 10.4551 15.632C10.64 14.615 12.1236 13.4942 12.8545 12.682C14.4154 10.9477 15.1512 8.76802 16.4709 7.04324C16.0781 7.37358 15.4715 7.74435 15.2852 8.04926C15.0065 8.5053 14.3912 8.9103 13.9348 9.17108C13.017 9.69555 12.1163 10.3931 11.1406 10.8434C10.1638 11.2943 8.90372 12.3386 8.22182 13.191C7.2832 14.3642 6.08291 13.3753 5.04333 13.004C3.87331 12.5861 2.19239 12.5413 1.13772 11.8822C0.605467 11.5495 1.59349 11.6023 2.0518 11.3732C2.50106 11.1486 3.91983 10.6702 4.10847 10.2929Z" fill="black"/>
<path d="M4.10847 10.2929C4.56771 10.1869 3.66527 10.4267 4.04615 10.1683C5.28496 9.32764 6.53542 8.51451 7.79595 7.70648C9.2759 6.7578 10.9034 6.25705 12.3352 5.23431C14.1932 3.90718 16.1803 3.22147 17.882 1.65071C18.985 0.63256 18.9484 1.88747 19.0557 2.90757C19.184 4.12657 19.0661 5.43349 19.0661 6.65737C19.0661 7.86429 18.6922 9.03597 18.6922 10.2098C18.6922 11.7784 18.4501 13.6038 17.9858 15.1126C17.7134 15.998 17.6633 17.1952 17.56 18.1249C17.5167 18.514 17.19 19.9831 16.916 20.2023C16.7444 20.3396 14.2467 17.8845 13.9244 17.3043C13.7621 17.0122 13.1112 16.1243 12.7091 16.4629C11.99 17.0685 10.8864 17.2923 10.2785 18.0522C9.62488 18.8692 9.90456 18.1033 9.90456 17.5848C9.90456 16.9007 10.3336 16.3001 10.4551 15.632C10.64 14.615 12.1236 13.4942 12.8545 12.682C14.4632 10.8946 15.1955 8.63393 16.594 6.88589C16.835 6.58455 17.0499 5.80441 16.8121 6.63659C16.6992 7.03152 15.5542 7.60904 15.2852 8.04926C15.0065 8.5053 14.3912 8.9103 13.9348 9.17108C13.017 9.69555 12.1163 10.3931 11.1406 10.8434C10.1638 11.2943 8.90372 12.3386 8.22182 13.191C7.2832 14.3642 6.08291 13.3753 5.04333 13.004C3.87331 12.5861 2.19239 12.5413 1.13772 11.8822C0.605467 11.5495 1.59349 11.6023 2.0518 11.3732C2.50106 11.1486 3.91983 10.6702 4.10847 10.2929Z" stroke="black" stroke-linecap="round"/>
</svg>
