<svg width="416" height="32" viewBox="0 0 416 32" fill="none" xmlns="http://www.w3.org/2000/svg">
<path d="M383.393 0.771484H376.974L385.484 31H391.514L395.164 13.3223L396.23 7.47754L397.297 13.3223L400.947 31H406.812L415.385 0.771484H408.679L404.68 18.0801L403.818 22.8994L402.937 18.1826L399.532 0.771484H392.867L389.278 18.0801L388.355 22.8994L387.433 18.2646L383.393 0.771484ZM353.41 17.875V31H359.378V17.4033C359.378 16.2002 359.583 15.2295 359.993 14.4912C360.526 13.4521 361.538 12.9326 363.028 12.9326C364.573 12.9326 365.749 13.4521 366.556 14.4912C367.349 15.5166 367.745 16.9863 367.745 18.9004V31H373.569V0.874023H367.745V11.5586C366.897 10.2598 365.92 9.35742 364.812 8.85156C363.691 8.33203 362.516 8.07227 361.285 8.07227C359.904 8.07227 358.653 8.31152 357.532 8.79004C356.397 9.26855 355.468 10 354.743 10.9844C354.128 11.8184 353.752 12.6797 353.615 13.5684C353.479 14.4434 353.41 15.8789 353.41 17.875ZM347.094 11.0664C345.549 9.09766 342.896 8.11328 339.137 8.11328C336.689 8.11328 334.516 8.59863 332.615 9.56934C330.715 10.54 329.765 12.3721 329.765 15.0654V25.3193C329.765 26.0303 329.751 26.8916 329.724 27.9033C329.683 28.6689 329.566 29.1885 329.375 29.4619C329.184 29.7354 328.896 29.9609 328.514 30.1387V31H334.871C335.049 30.5488 335.172 30.125 335.24 29.7285C335.309 29.332 335.363 28.8809 335.404 28.375C336.211 29.25 337.141 29.9951 338.193 30.6104C339.451 31.335 340.873 31.6973 342.459 31.6973C344.482 31.6973 346.157 31.123 347.483 29.9746C348.796 28.8125 349.452 27.1719 349.452 25.0527C349.452 22.3047 348.393 20.3154 346.273 19.085C345.111 18.415 343.402 17.9365 341.146 17.6494L339.157 17.4033C338.077 17.2666 337.305 17.0957 336.84 16.8906C336.006 16.5352 335.589 15.9814 335.589 15.2295C335.589 14.3135 335.91 13.6846 336.553 13.3428C337.182 12.9873 338.111 12.8096 339.342 12.8096C340.723 12.8096 341.7 13.1514 342.274 13.835C342.685 14.3408 342.958 15.0244 343.095 15.8857H348.734C348.611 13.9307 348.064 12.3242 347.094 11.0664ZM342.746 26.7754C342.199 27.2266 341.529 27.4521 340.736 27.4521C339.479 27.4521 338.323 27.083 337.271 26.3447C336.204 25.6064 335.65 24.2598 335.609 22.3047V20.1309C335.979 20.3633 336.354 20.5547 336.737 20.7051C337.106 20.8418 337.619 20.9717 338.275 21.0947L339.588 21.3408C340.818 21.5596 341.7 21.8262 342.233 22.1406C343.136 22.6738 343.587 23.501 343.587 24.6221C343.587 25.6201 343.307 26.3379 342.746 26.7754ZM314.322 26.8369V31.2051L317.091 31.3076C319.853 31.4033 321.739 30.9248 322.751 29.8721C323.407 29.2021 323.735 28.1699 323.735 26.7754V13.0146H326.853V8.85156H323.735V2.61719H317.952V8.85156H314.322V13.0146H317.952V24.8271C317.952 25.7432 317.836 26.3174 317.604 26.5498C317.371 26.7686 316.66 26.8779 315.471 26.8779C315.293 26.8779 315.108 26.8779 314.917 26.8779C314.712 26.8643 314.514 26.8506 314.322 26.8369ZM292.871 8.64648V31H298.798V8.64648H292.871ZM292.871 0.586914V5.98047H298.798V0.586914H292.871ZM271.789 9.67188C270.039 10.793 269.034 12.7207 268.774 15.4551H274.619C274.701 14.7031 274.913 14.1084 275.255 13.6709C275.897 12.8779 276.991 12.4814 278.536 12.4814C279.808 12.4814 280.717 12.6797 281.264 13.0762C281.797 13.4727 282.063 13.9375 282.063 14.4707C282.063 15.1406 281.776 15.626 281.202 15.9268C280.628 16.2412 278.598 16.7812 275.111 17.5469C272.787 18.0938 271.044 18.9209 269.882 20.0283C268.733 21.1494 268.159 22.5508 268.159 24.2324C268.159 26.4473 268.986 28.2588 270.641 29.667C272.281 31.0615 274.824 31.7588 278.27 31.7588C281.783 31.7588 284.381 31.0205 286.062 29.5439C287.73 28.0537 288.564 26.1602 288.564 23.8633H282.638C282.515 24.9023 282.248 25.6406 281.838 26.0781C281.113 26.8574 279.773 27.2471 277.818 27.2471C276.67 27.2471 275.761 27.0762 275.091 26.7344C274.407 26.3926 274.065 25.8799 274.065 25.1963C274.065 24.54 274.339 24.041 274.886 23.6992C275.433 23.3574 277.463 22.7695 280.977 21.9355C283.506 21.3066 285.29 20.5205 286.329 19.5771C287.368 18.6475 287.888 17.3076 287.888 15.5576C287.888 13.4932 287.081 11.7227 285.468 10.2461C283.841 8.75586 281.558 8.01074 278.618 8.01074C275.829 8.01074 273.553 8.56445 271.789 9.67188ZM229.687 0.771484V6.12402H238.73V31H245.088V6.12402H254.173V0.771484H229.687ZM206.246 17.875V31H212.214V17.4033C212.214 16.2002 212.419 15.2295 212.829 14.4912C213.362 13.4521 214.374 12.9326 215.864 12.9326C217.409 12.9326 218.585 13.4521 219.392 14.4912C220.185 15.5166 220.581 16.9863 220.581 18.9004V31H226.405V0.874023H220.581V11.5586C219.733 10.2598 218.756 9.35742 217.648 8.85156C216.527 8.33203 215.352 8.07227 214.121 8.07227C212.74 8.07227 211.489 8.31152 210.368 8.79004C209.233 9.26855 208.304 10 207.579 10.9844C206.964 11.8184 206.588 12.6797 206.451 13.5684C206.314 14.4434 206.246 15.8789 206.246 17.875ZM194.762 8.64648V31H200.688V8.64648H194.762ZM194.762 0.586914V5.98047H200.688V0.586914H194.762ZM173.68 9.67188C171.93 10.793 170.925 12.7207 170.665 15.4551H176.51C176.592 14.7031 176.804 14.1084 177.146 13.6709C177.788 12.8779 178.882 12.4814 180.427 12.4814C181.698 12.4814 182.607 12.6797 183.154 13.0762C183.688 13.4727 183.954 13.9375 183.954 14.4707C183.954 15.1406 183.667 15.626 183.093 15.9268C182.519 16.2412 180.488 16.7812 177.002 17.5469C174.678 18.0938 172.935 18.9209 171.772 20.0283C170.624 21.1494 170.05 22.5508 170.05 24.2324C170.05 26.4473 170.877 28.2588 172.531 29.667C174.172 31.0615 176.715 31.7588 180.16 31.7588C183.674 31.7588 186.271 31.0205 187.953 29.5439C189.621 28.0537 190.455 26.1602 190.455 23.8633H184.528C184.405 24.9023 184.139 25.6406 183.729 26.0781C183.004 26.8574 181.664 27.2471 179.709 27.2471C178.561 27.2471 177.651 27.0762 176.981 26.7344C176.298 26.3926 175.956 25.8799 175.956 25.1963C175.956 24.54 176.229 24.041 176.776 23.6992C177.323 23.3574 179.354 22.7695 182.867 21.9355C185.396 21.3066 187.181 20.5205 188.22 19.5771C189.259 18.6475 189.778 17.3076 189.778 15.5576C189.778 13.4932 188.972 11.7227 187.358 10.2461C185.731 8.75586 183.448 8.01074 180.509 8.01074C177.72 8.01074 175.443 8.56445 173.68 9.67188ZM148.004 8.64648V31H153.931V8.64648H148.004ZM148.004 0.586914V5.98047H153.931V0.586914H148.004ZM126.922 9.67188C125.172 10.793 124.167 12.7207 123.907 15.4551H129.752C129.834 14.7031 130.046 14.1084 130.388 13.6709C131.03 12.8779 132.124 12.4814 133.669 12.4814C134.94 12.4814 135.85 12.6797 136.396 13.0762C136.93 13.4727 137.196 13.9375 137.196 14.4707C137.196 15.1406 136.909 15.626 136.335 15.9268C135.761 16.2412 133.73 16.7812 130.244 17.5469C127.92 18.0938 126.177 18.9209 125.015 20.0283C123.866 21.1494 123.292 22.5508 123.292 24.2324C123.292 26.4473 124.119 28.2588 125.773 29.667C127.414 31.0615 129.957 31.7588 133.402 31.7588C136.916 31.7588 139.514 31.0205 141.195 29.5439C142.863 28.0537 143.697 26.1602 143.697 23.8633H137.771C137.647 24.9023 137.381 25.6406 136.971 26.0781C136.246 26.8574 134.906 27.2471 132.951 27.2471C131.803 27.2471 130.894 27.0762 130.224 26.7344C129.54 26.3926 129.198 25.8799 129.198 25.1963C129.198 24.54 129.472 24.041 130.019 23.6992C130.565 23.3574 132.596 22.7695 136.109 21.9355C138.639 21.3066 140.423 20.5205 141.462 19.5771C142.501 18.6475 143.021 17.3076 143.021 15.5576C143.021 13.4932 142.214 11.7227 140.601 10.2461C138.974 8.75586 136.69 8.01074 133.751 8.01074C130.962 8.01074 128.686 8.56445 126.922 9.67188ZM85.3525 6.12402H100.508V13.0762H87.2393V18.3262H100.508V31H106.783V0.8125H85.3525V6.12402ZM75.5703 8.64648V31H81.4971V8.64648H75.5703ZM75.5703 0.586914V5.98047H81.4971V0.586914H75.5703ZM59.3691 12.9736C61.3516 12.9736 62.7119 13.8145 63.4502 15.4961C63.833 16.3848 64.0244 17.5195 64.0244 18.9004V31H69.8486V8.6875H64.209V11.9482C63.457 10.7998 62.7461 9.97266 62.0762 9.4668C60.873 8.56445 59.3486 8.11328 57.5029 8.11328C55.1924 8.11328 53.3057 8.72168 51.8428 9.93848C50.3662 11.1416 49.6279 13.1445 49.6279 15.9473V31H55.6162V17.4033C55.6162 16.2275 55.7734 15.3252 56.0879 14.6963C56.6621 13.5479 57.7559 12.9736 59.3691 12.9736ZM25.0801 24.4375C25.2305 25.7637 25.9209 27.1104 27.1514 28.4775C29.0654 30.6514 31.7451 31.7383 35.1904 31.7383C38.0342 31.7383 40.543 30.8223 42.7168 28.9902C44.8906 27.1582 45.9775 24.1777 45.9775 20.0488C45.9775 16.1797 45 13.2129 43.0449 11.1484C41.0762 9.08398 38.5264 8.05176 35.3955 8.05176C33.5361 8.05176 31.8613 8.40039 30.3711 9.09766C28.8809 9.79492 27.6504 10.8955 26.6797 12.3994C25.8047 13.7256 25.2373 15.2637 24.9775 17.0137C24.8271 18.0391 24.7656 19.5156 24.793 21.4434H40.0918C40.0098 23.6855 39.3057 25.2578 37.9795 26.1602C37.1729 26.7207 36.2021 27.001 35.0674 27.001C33.8643 27.001 32.8867 26.6592 32.1348 25.9756C31.7246 25.6064 31.3623 25.0938 31.0479 24.4375H25.0801ZM30.8633 17.5879C30.959 16.043 31.4307 14.874 32.2783 14.0811C33.1123 13.2744 34.1514 12.8711 35.3955 12.8711C36.749 12.8711 37.8018 13.2949 38.5537 14.1426C39.292 14.9902 39.7568 16.1387 39.9482 17.5879H30.8633ZM7.60742 19.8438C7.77148 20.3633 7.86035 21.1699 7.87402 22.2637H13.4111C13.3291 19.9531 13.1104 18.3604 12.7549 17.4854C12.3994 16.5967 11.4834 15.5781 10.0068 14.4297L8.50977 13.2607C8.01758 12.8916 7.62109 12.4883 7.32031 12.0508C6.77344 11.2988 6.5 10.4717 6.5 9.56934C6.5 8.53027 6.80762 7.58691 7.42285 6.73926C8.02441 5.87793 9.13184 5.44727 10.7451 5.44727C12.3311 5.44727 13.459 5.97363 14.1289 7.02637C14.7852 8.0791 15.1133 9.17285 15.1133 10.3076H21.04C20.876 6.41113 19.5156 3.64941 16.959 2.02246C15.3457 0.983398 13.3633 0.463867 11.0117 0.463867C7.92188 0.463867 5.3584 1.20215 3.32129 2.67871C1.27051 4.15527 0.245117 6.34277 0.245117 9.24121C0.245117 11.0186 0.689453 12.5156 1.57812 13.7324C2.09766 14.4707 3.0957 15.4141 4.57227 16.5625L6.02832 17.6904C6.82129 18.3057 7.34766 19.0234 7.60742 19.8438ZM7.44336 31H13.5547V25.0732H7.44336V31Z" fill="black"/>
</svg>
