<svg width="225" height="33" viewBox="0 0 225 33" fill="none" xmlns="http://www.w3.org/2000/svg">
<path d="M192.393 1.77148H185.974L194.484 32H200.514L204.164 14.3223L205.23 8.47754L206.297 14.3223L209.947 32H215.812L224.385 1.77148H217.679L213.68 19.0801L212.818 23.8994L211.937 19.1826L208.532 1.77148H201.867L198.278 19.0801L197.355 23.8994L196.433 19.2646L192.393 1.77148ZM164.112 32V18.5059H175.925V32H182.18V1.77148H175.925V13.2969H164.112V1.77148H157.837V32H164.112ZM138.416 32.8408C142.736 32.8408 146.038 31.665 148.321 29.3135C151.384 26.4287 152.915 22.2725 152.915 16.8447C152.915 11.3076 151.384 7.15137 148.321 4.37598C146.038 2.02441 142.736 0.848633 138.416 0.848633C134.096 0.848633 130.794 2.02441 128.511 4.37598C125.462 7.15137 123.938 11.3076 123.938 16.8447C123.938 22.2725 125.462 26.4287 128.511 29.3135C130.794 31.665 134.096 32.8408 138.416 32.8408ZM132.448 24.7197C130.985 22.874 130.254 20.249 130.254 16.8447C130.254 13.4541 130.992 10.8359 132.469 8.99023C133.932 7.13086 135.914 6.20117 138.416 6.20117C140.918 6.20117 142.914 7.12402 144.404 8.96973C145.895 10.8154 146.64 13.4404 146.64 16.8447C146.64 20.249 145.895 22.874 144.404 24.7197C142.914 26.5654 140.918 27.4883 138.416 27.4883C135.914 27.4883 133.925 26.5654 132.448 24.7197ZM91.2686 25.7861H102.404L104.496 32H111.1L100.312 1.77148H93.1758L82.4707 32H89.3203L91.2686 25.7861ZM93.0322 20.5771L96.8057 8.68262L100.702 20.5771H93.0322ZM72.832 32H78.7178V1.77148H69.5303L64.0342 25.54L58.5791 1.77148H49.4941V32H55.3799V11.5537C55.3799 10.9658 55.373 10.1455 55.3594 9.09277C55.3457 8.02637 55.3389 7.20605 55.3389 6.63184L61.0605 32H67.1924L72.873 6.63184C72.873 7.20605 72.8662 8.02637 72.8525 9.09277C72.8389 10.1455 72.832 10.9658 72.832 11.5537V32ZM32.4316 1.77148H26.1562V32H32.4316V1.77148ZM7.49414 20.8438C7.6582 21.3633 7.74707 22.1699 7.76074 23.2637H13.2979C13.2158 20.9531 12.9971 19.3604 12.6416 18.4854C12.2861 17.5967 11.3701 16.5781 9.89355 15.4297L8.39648 14.2607C7.9043 13.8916 7.50781 13.4883 7.20703 13.0508C6.66016 12.2988 6.38672 11.4717 6.38672 10.5693C6.38672 9.53027 6.69434 8.58691 7.30957 7.73926C7.91113 6.87793 9.01855 6.44727 10.6318 6.44727C12.2178 6.44727 13.3457 6.97363 14.0156 8.02637C14.6719 9.0791 15 10.1729 15 11.3076H20.9268C20.7627 7.41113 19.4023 4.64941 16.8457 3.02246C15.2324 1.9834 13.25 1.46387 10.8984 1.46387C7.80859 1.46387 5.24512 2.20215 3.20801 3.67871C1.15723 5.15527 0.131836 7.34277 0.131836 10.2412C0.131836 12.0186 0.576172 13.5156 1.46484 14.7324C1.98438 15.4707 2.98242 16.4141 4.45898 17.5625L5.91504 18.6904C6.70801 19.3057 7.23438 20.0234 7.49414 20.8438ZM7.33008 32H13.4414V26.0732H7.33008V32Z" fill="black"/>
</svg>
